<?xml version="1.0" standalone="no"?>
<!DOCTYPE svg PUBLIC "-//W3C//DTD SVG 1.1//EN" "http://www.w3.org/Graphics/SVG/1.1/DTD/svg11.dtd" >
<svg xmlns="http://www.w3.org/2000/svg" xmlns:xlink="http://www.w3.org/1999/xlink" version="1.1">
<metadata>
Created by FontForge 20190801 at Thu Nov  5 06:18:13 2020
 By Jimmy Wärting
Copyright (c) 2020 Sandoll Inc. &#38; Samliphopang. All rights reserved.
</metadata>
<defs>
<font id="SDSamliphopangcheTTFBasic" horiz-adv-x="790" >
  <font-face 
    font-family="Sandoll Samliphopangche TTF Ba"
    font-weight="550"
    font-stretch="normal"
    units-per-em="1000"
    panose-1="0 0 5 0 0 0 0 0 0 0"
    ascent="800"
    descent="-200"
    x-height="521"
    cap-height="701"
    bbox="-71 -219 2241 854"
    underline-thickness="50"
    underline-position="-235"
    unicode-range="U+0020-FB04"
  />
<missing-glyph horiz-adv-x="1000" 
d="M100 -200v1000h800v-1000h-800zM500 341l318 409h-636zM150 -109l318 409l-318 409v-818zM850 -109v818l-318 -409zM182 -150h636l-318 409z" />
    <glyph glyph-name="f_f" unicode="ff" horiz-adv-x="701" 
d="M575.5 612q-13.5 -15 -13.5 -45v-35h90q33 0 33 -31v-88h-123v-368q0 -31 -32 -31h-98v399h-190v-368q0 -31 -32 -31h-98v399h-49q-33 0 -33 32v87h82v53q0 79 45 120.5t124 41.5q50 0 95 -21q15 -6 15 -20q0 -3 -2 -9l-36 -85q-33 15 -61 15q-23 0 -36.5 -15t-13.5 -45
v-35h190v53q0 79 45 120.5t124 41.5q50 0 95 -21q15 -6 15 -20q0 -3 -2 -9l-36 -85q-33 15 -61 15q-23 0 -36.5 -15z" />
    <glyph glyph-name="fi" unicode="fi" horiz-adv-x="634" 
d="M534 532q33 0 33 -31v-411q0 -43 -16 -60t-64 -17h-50v400h-195v-368q0 -31 -32 -31h-98v399h-49q-33 0 -33 32v87h82v53q0 78 44 120t119 42q27 0 45.5 -4t35.5 -13q15 -9 15 -24q0 -8 -2 -12l-34 -79q-19 12 -44 12q-23 0 -36 -15t-13 -45v-35h292zM424 716
q14 11 35.5 16.5t42.5 5.5q22 0 38 -6q19 -7 29 -23.5t10 -40.5q0 -34 -24 -81h-115z" />
    <glyph glyph-name="fl" unicode="fl" horiz-adv-x="622" 
d="M391 706q0 -3 -2 -9l-36 -85q-33 15 -61 15q-50 0 -50 -56v-39h80q33 0 33 -31v-88h-113v-368q0 -31 -32 -31h-98v399h-49q-33 0 -33 32v87h82v53q0 79 45 120.5t124 41.5q54 0 95 -21q15 -6 15 -20zM567 158v-46q0 -36 -4 -52q-5 -25 -26.5 -37t-61.5 -12q-10 0 -38 2
v725h97q33 0 33 -32v-548z" />
    <glyph glyph-name="f_f_i" unicode="ffi" horiz-adv-x="954" 
d="M854 532q33 0 33 -31v-411q0 -43 -16 -60t-64 -17h-50v400h-195v-368q0 -31 -32 -31h-98v399h-190v-368q0 -31 -32 -31h-98v399h-49q-33 0 -33 32v87h82v53q0 79 45 120.5t124 41.5q50 0 95 -21q15 -6 15 -20q0 -3 -2 -9l-36 -85q-33 15 -61 15q-23 0 -36.5 -15
t-13.5 -45v-35h190v53q0 78 44 120t119 42q28 0 46 -3.5t35 -13.5q15 -9 15 -24q0 -8 -2 -12l-34 -79q-19 12 -44 12q-23 0 -36 -15t-13 -45v-35h292zM744 716q14 11 35.5 16.5t42.5 5.5q22 0 38 -6q19 -7 29 -23.5t10 -40.5q0 -34 -24 -81h-115z" />
    <glyph glyph-name="f_f_l" unicode="ffl" horiz-adv-x="942" 
d="M711 706q0 -3 -2 -9l-36 -85q-33 15 -61 15q-23 0 -36.5 -15t-13.5 -45v-35h80q33 0 33 -31v-88h-113v-368q0 -31 -32 -31h-98v399h-190v-368q0 -31 -32 -31h-98v399h-49q-33 0 -33 32v87h82v53q0 79 45 120.5t124 41.5q50 0 95 -21q15 -6 15 -20q0 -3 -2 -9l-36 -85
q-33 15 -61 15q-23 0 -36.5 -15t-13.5 -45v-35h190v53q0 79 45 120.5t124 41.5q50 0 95 -21q15 -6 15 -20zM887 158v-46q0 -36 -4 -52q-5 -25 -26.5 -37t-61.5 -12q-10 0 -38 2v725h97q33 0 33 -32v-548z" />
    <glyph glyph-name=".notdef" horiz-adv-x="1000" 
d="M100 -200v1000h800v-1000h-800zM500 341l318 409h-636zM150 -109l318 409l-318 409v-818zM850 -109v818l-318 -409zM182 -150h636l-318 409z" />
    <glyph glyph-name="space" unicode=" " horiz-adv-x="230" 
 />
    <glyph glyph-name="space" unicode="&#xa0;" horiz-adv-x="230" 
 />
    <glyph glyph-name="exclam" unicode="!" horiz-adv-x="240" 
d="M152 692q34 0 34 -33l-3 -391q0 -45 -16.5 -63t-62.5 -17l-43 1l-5 503h96zM68.5 19q-17.5 16 -17.5 45t19 49.5t50 20.5t50 -20.5t19 -49.5t-17.5 -45t-51.5 -16t-51.5 16z" />
    <glyph glyph-name="quotedbl" unicode="&#x22;" horiz-adv-x="374" 
d="M122 784q37 0 37 -35l-2 -157q-1 -36 -16.5 -53.5t-56.5 -17.5h-44l-2 263h84zM292 784q37 0 37 -35l-2 -157q-1 -36 -16.5 -53.5t-56.5 -17.5h-44l-2 263h84z" />
    <glyph glyph-name="numbersign" unicode="#" horiz-adv-x="669" 
d="M639 418h-113l-8 -135h87q34 0 34 -33v-82h-127l-8 -136q-1 -28 -11.5 -37.5t-39.5 -9.5h-80l12 183h-123l-8 -136q-1 -28 -11.5 -37.5t-39.5 -9.5h-80l12 183h-71q-34 0 -34 33v82h112l8 135h-86q-34 0 -34 33v82h128l10 166h96q13 0 20 -8.5t6 -23.5l-8 -134h126
l10 166h96q13 0 20 -8.5t6 -23.5l-8 -134h73q34 0 34 -33v-82zM268 283h124l8 135h-124z" />
    <glyph glyph-name="dollar" unicode="$" horiz-adv-x="557" 
d="M466.5 62q-49.5 -49 -130.5 -60v-30q0 -36 -16 -53.5t-57 -17.5h-48v101q-99 11 -155 56q-15 12 -15 25q0 6 5 14l53 85q44 -29 86.5 -42.5t89.5 -13.5q42 0 68.5 19t26.5 50q0 35 -28 61.5t-107 59.5q-89 37 -128.5 83.5t-39.5 110.5q0 68 38.5 117t105.5 69v108h84
q37 0 37 -35v-64q79 -8 139 -50q9 -7 9 -18q0 -7 -4 -14l-48 -81q-30 19 -65 29.5t-66 10.5q-41 0 -66 -18t-25 -48q0 -27 23.5 -47.5t81.5 -44.5q108 -45 154.5 -98t46.5 -131q0 -84 -49.5 -133z" />
    <glyph glyph-name="percent" unicode="%" horiz-adv-x="728" 
d="M80 0l435 705h108q7 0 11 -4.5t4 -11.5q0 -5 -3 -11l-394 -645q-11 -18 -22 -25.5t-28 -7.5h-111zM282.5 407.5q-43.5 -40.5 -112.5 -40.5t-112 40t-43 103q0 41 19.5 76t55 55.5t80.5 20.5t80.5 -20.5t55.5 -55.5t20 -76q0 -62 -43.5 -102.5zM204 544q-13 14 -34 14
t-34 -14t-13 -34q0 -19 13 -29.5t34 -10.5t34 10.5t13 29.5q0 20 -13 34zM669.5 83.5q-43.5 -40.5 -112.5 -40.5t-112 40t-43 103q0 41 19.5 76t55 55.5t80.5 20.5t80.5 -20.5t55.5 -55.5t20 -76q0 -62 -43.5 -102.5zM591 220q-13 14 -34 14t-34 -14t-13 -34q0 -19 13 -29.5
t34 -10.5t34 10.5t13 29.5q0 20 -13 34z" />
    <glyph glyph-name="ampersand" unicode="&#x26;" horiz-adv-x="701" 
d="M566 170l84 -72q10 -8 10 -18q0 -9 -8 -20l-55 -67q-5 5 -49 41l-51 42q-48 -50 -105 -72.5t-130 -22.5q-102 0 -160.5 47t-58.5 125q0 54 32.5 108.5t100.5 104.5q-51 44 -74 87t-23 95q0 51 25 91t71 63t107 23q56 0 101.5 -22.5t71.5 -61.5t26 -87q0 -54 -28.5 -96.5
t-99.5 -102.5q56 -48 123 -109q28 37 63 106l76 -42q17 -9 17 -24q0 -6 -3 -12q-23 -48 -63 -104zM228.5 588.5q-18.5 -18.5 -18.5 -48.5q0 -24 14 -43.5t47 -52.5q49 38 64.5 58.5t15.5 43.5q0 26 -20 43.5t-52 17.5t-50.5 -18.5zM349 117.5q30 13.5 55 39.5
q-64 52 -145 124q-81 -47 -81 -111q0 -32 26 -49t76 -17q39 0 69 13.5z" />
    <glyph glyph-name="quotesingle" unicode="'" horiz-adv-x="210" 
d="M128 784q37 0 37 -35l-2 -157q-1 -36 -16.5 -53.5t-56.5 -17.5h-44l-2 263h84z" />
    <glyph glyph-name="parenleft" unicode="(" horiz-adv-x="380" 
d="M104.5 561.5q39.5 111.5 104.5 192.5q10 13 26 13q12 0 23 -7l72 -45q-72 -99 -104 -189t-32 -201q0 -110 34.5 -200t111.5 -194l-72 -45q-11 -7 -23 -7q-16 0 -26 13q-75 92 -114.5 202t-39.5 235q0 121 39.5 232.5z" />
    <glyph glyph-name="parenright" unicode=")" horiz-adv-x="380" 
d="M275 91.5q-40 -108.5 -114 -199.5q-10 -13 -26 -13q-12 0 -23 7l-72 45q77 104 111.5 194t34.5 200q0 111 -32 201t-104 189l72 45q11 7 23 7q16 0 26 -13q66 -82 105 -195.5t39 -237.5q0 -121 -40 -229.5z" />
    <glyph glyph-name="asterisk" unicode="*" horiz-adv-x="478" 
d="M432 587q12 5 12 16q0 5 -4 13l-44 77l-106 -62l8 109v2q0 16 -16 16h-102l8 -127l-83 55q-8 5 -15 5q-11 0 -16 -9l-47 -77l116 -60l-116 -60l47 -77q5 -9 16 -9q7 0 15 5l83 55l-8 -124h102q8 0 12.5 5t3.5 13l-8 106l106 -62l44 77q4 8 4 13q0 12 -12 16l-96 42z" />
    <glyph glyph-name="plus" unicode="+" horiz-adv-x="544" 
d="M484 298h-149v-149h-92q-33 0 -32 34v115h-117q-34 0 -34 33v92h151v150h92q33 0 33 -34v-116h114q34 0 34 -33v-92z" />
    <glyph glyph-name="comma" unicode="," horiz-adv-x="244" 
d="M49 -126q23 26 40.5 56t24.5 57q-34 2 -52.5 19t-18.5 47q0 32 21.5 54.5t55.5 22.5t54 -23.5t20 -65.5q0 -56 -26 -110.5t-57 -85.5q-4 -4 -11 -4q-5 0 -8 2z" />
    <glyph glyph-name="hyphen" unicode="-" horiz-adv-x="503" 
d="M84 298q-34 0 -34 33v92h369q34 0 34 -33v-92h-369z" />
    <glyph glyph-name="hyphen" unicode="&#x2011;" horiz-adv-x="503" 
d="M84 298q-34 0 -34 33v92h369q34 0 34 -33v-92h-369z" />
    <glyph glyph-name="hyphen" unicode="&#x2010;" horiz-adv-x="503" 
d="M84 298q-34 0 -34 33v92h369q34 0 34 -33v-92h-369z" />
    <glyph glyph-name="hyphen" unicode="&#xad;" horiz-adv-x="503" 
d="M84 298q-34 0 -34 33v92h369q34 0 34 -33v-92h-369z" />
    <glyph glyph-name="period" unicode="." horiz-adv-x="232" 
d="M59 4.5q-20 17.5 -20 48.5q0 32 21.5 54.5t55.5 22.5t55.5 -22.5t21.5 -54.5q0 -31 -20 -48.5t-57 -17.5t-57 17.5z" />
    <glyph glyph-name="slash" unicode="/" horiz-adv-x="445" 
d="M180 -34q-8 -29 -23 -40t-49 -11h-88l268 882h111q21 0 21 -20q0 -6 -1 -9z" />
    <glyph glyph-name="zero" unicode="0" horiz-adv-x="562" 
d="M464.5 90.5q-67.5 -87.5 -183.5 -87.5t-183.5 87.5t-67.5 263.5q0 178 67.5 267t183.5 89t183.5 -89t67.5 -267q0 -176 -67.5 -263.5zM369 526.5q-32 56.5 -88 56.5t-88 -56.5t-32 -173.5q0 -116 32 -169.5t88 -53.5t88 53.5t32 169.5q0 117 -32 173.5z" />
    <glyph glyph-name="one" unicode="1" horiz-adv-x="388" 
d="M281 701q33 0 33 -32v-579q0 -43 -16.5 -60.5t-63.5 -17.5h-43v524l-103 -93l-63 70q-6 8 -6 13q0 8 7 15l179 160h76z" />
    <glyph glyph-name="two" unicode="2" horiz-adv-x="544" 
d="M450 124q36 0 36 -33v-78h-410q-36 0 -36 33v78l26 23q114 101 194 191.5t81 162.5q0 39 -25.5 63t-64.5 24q-40 0 -71.5 -15t-67.5 -45l-49 71q-6 9 -6 18q0 14 15 26q83 67 183 67q67 0 115.5 -26.5t74 -73t25.5 -104.5q0 -103 -68 -195.5t-180 -186.5h228z" />
    <glyph glyph-name="three" unicode="3" horiz-adv-x="542" 
d="M189 416q85 9 122.5 33t37.5 67q0 35 -26 55.5t-74 20.5q-45 0 -81 -15t-60 -39l-46 76q-5 8 -5 16q0 13 13 22q42 28 88.5 43t104.5 15q94 0 154 -47t60 -134q0 -53 -29.5 -94t-78.5 -58q59 -20 91 -63.5t32 -107.5q0 -65 -32.5 -111t-88.5 -69t-126 -23q-117 0 -182 27
q-17 6 -13 24l21 97q75 -26 158 -26q54 0 93.5 23t39.5 69q0 44 -32 69t-95 25q-9 0 -33 -2l-45 -4h-3q-17 0 -18 16l-9 87z" />
    <glyph glyph-name="four" unicode="4" horiz-adv-x="599" 
d="M555 166h-96v-76q0 -43 -16 -60.5t-64 -17.5h-38v154h-279v109l279 426h86q32 0 32 -32v-394h60q36 0 36 -33v-76zM341 497l-142 -222h142v222z" />
    <glyph glyph-name="five" unicode="5" horiz-adv-x="514" 
d="M414 387q57 -60 57 -163q0 -109 -65.5 -165t-168.5 -56q-108 0 -177 51q-14 10 -14 23q0 9 6 18l53 70q19 -17 50.5 -29t63.5 -12q51 0 86.5 28t35.5 75q0 52 -35 82.5t-95 35.5q-24 3 -48 3q-19 0 -61 -4q-13 -2 -20.5 4t-7.5 18v334h330q35 0 35 -33v-85h-247v-126
q7 1 32 1q27 0 45 -2q88 -8 145 -68z" />
    <glyph glyph-name="six" unicode="6" horiz-adv-x="544" 
d="M446 572q-52 16 -102 16q-68 0 -116.5 -47.5t-57.5 -137.5q20 24 56.5 38.5t72.5 14.5q98 0 152 -63t54 -163q0 -102 -59.5 -164.5t-166.5 -62.5q-114 0 -177 77t-63 229q0 215 85.5 308t216.5 93q48 0 103 -15q28 -8 22 -33zM212 331.5q-31 -18.5 -48 -48.5
q2 -70 31 -116t82 -46q103 0 103 110q0 56 -27.5 87.5t-74.5 31.5q-35 0 -66 -18.5z" />
    <glyph glyph-name="seven" unicode="7" horiz-adv-x="514" 
d="M446 701q35 0 35 -34v-87l-251 -559h-118q-10 0 -15 5t-5 12q0 2 2 8l248 534h-269q-35 0 -35 33v88h408z" />
    <glyph glyph-name="eight" unicode="8" horiz-adv-x="538" 
d="M77.5 620.5q26.5 42.5 74.5 66t109 23.5q96 0 155 -49t59 -132q0 -111 -101 -152q63 -30 95 -78t32 -105q0 -91 -61.5 -141t-166.5 -50q-108 0 -173 48t-65 133q0 58 32 105t93 77q-52 23 -80.5 63.5t-28.5 92.5q0 56 26.5 98.5zM200 460q24 -24 74 -42q34 13 55.5 40.5
t21.5 62.5q0 36 -24.5 59t-62.5 23q-41 0 -64.5 -22t-23.5 -59q0 -38 24 -62zM194.5 131q29.5 -21 78.5 -21q46 0 72 21.5t26 61.5q0 82 -109 119q-97 -48 -97 -120q0 -40 29.5 -61z" />
    <glyph glyph-name="nine" unicode="9" horiz-adv-x="544" 
d="M98 141q52 -16 102 -16q68 0 116.5 47.5t57.5 137.5q-20 -24 -56.5 -38.5t-72.5 -14.5q-98 0 -152 63t-54 163q0 102 59.5 164.5t166.5 62.5q114 0 177 -77t63 -229q0 -215 -85.5 -308t-216.5 -93q-48 0 -103 15q-28 8 -22 33zM332 381.5q31 18.5 48 48.5q-2 70 -31 116
t-82 46q-103 0 -103 -110q0 -56 27.5 -87.5t74.5 -31.5q35 0 66 18.5z" />
    <glyph glyph-name="colon" unicode=":" horiz-adv-x="282" 
d="M87 504.5q-19 16.5 -19 46.5q0 31 20.5 52t52.5 21t52.5 -21t20.5 -52q0 -30 -19 -46.5t-54 -16.5t-54 16.5zM87 108.5q-19 16.5 -19 46.5q0 31 20.5 52t52.5 21t52.5 -21t20.5 -52q0 -30 -19 -46.5t-54 -16.5t-54 16.5z" />
    <glyph glyph-name="semicolon" unicode=";" horiz-adv-x="294" 
d="M87 504.5q-19 16.5 -19 46.5q0 31 20.5 52t52.5 21t52.5 -21t20.5 -52q0 -30 -19 -46.5t-54 -16.5t-54 16.5zM74 -26q23 25 40.5 55t24.5 58q-34 2 -52.5 19t-18.5 47q0 32 21.5 54.5t55.5 22.5t54 -23.5t20 -64.5q0 -58 -24.5 -111t-58.5 -86q-4 -4 -11 -4q-5 0 -8 2z
" />
    <glyph glyph-name="less" unicode="&#x3c;" horiz-adv-x="526" 
d="M213 352l275 -133l-52 -93q-6 -11 -20 -11q-7 0 -14 4l-298 157q-33 17 -46 34t-13 42t13 42t46 34l298 157q7 4 14 4q14 0 20 -11l52 -93z" />
    <glyph glyph-name="equal" unicode="=" horiz-adv-x="544" 
d="M89 398q-34 0 -34 33v82h400q34 0 34 -33v-82h-400zM89 188q-34 0 -34 33v82h400q34 0 34 -33v-82h-400z" />
    <glyph glyph-name="greater" unicode="&#x3e;" horiz-adv-x="526" 
d="M321 352l-275 133l52 93q6 11 20 11q7 0 14 -4l298 -157q33 -17 46 -34t13 -42t-13 -42t-46 -34l-298 -157q-7 -4 -14 -4q-14 0 -20 11l-52 93z" />
    <glyph glyph-name="question" unicode="?" horiz-adv-x="450" 
d="M97.5 657q51.5 37 125.5 37q58 0 104 -25t72 -72.5t26 -112.5q0 -78 -40.5 -126.5t-106.5 -66.5v-23q-1 -45 -17 -63t-62 -17l-45 1l-2 141q0 13 6 20.5t20 10.5q122 27 122 123q0 45 -23 70.5t-64 25.5q-63 0 -91 -74l-86 28q-15 5 -15 17q0 3 2 9q23 60 74.5 97z
M159.5 16.5q-18.5 16.5 -18.5 47.5t20 52t52 21t52 -21t20 -52t-18.5 -47.5t-53.5 -16.5t-53.5 16.5z" />
    <glyph glyph-name="at" unicode="@" horiz-adv-x="800" 
d="M491.5 -35q-50.5 -10 -95.5 -10q-107 0 -190.5 41.5t-131 124.5t-47.5 202q0 107 47 196t132.5 140.5t196.5 51.5q110 0 194 -50t130 -133t46 -178q0 -98 -48.5 -157t-139.5 -59q-34 0 -62.5 10.5t-46.5 30.5q-21 -18 -43.5 -26t-51.5 -8q-72 0 -117.5 45t-45.5 125
q0 85 45.5 139t120.5 54q41 0 68 -12v25h71q34 0 34 -33v-206q0 -16 11 -25t26 -9q26 0 42.5 29.5t16.5 76.5q0 69 -31.5 127.5t-88 93t-129.5 34.5q-75 0 -133.5 -36t-91 -100.5t-32.5 -145.5q0 -86 35.5 -145t94 -88t128.5 -29q46 0 80 7t77 27l32 -63q4 -7 4 -14
q0 -8 -5 -15t-13 -11q-38 -17 -88.5 -27zM347 263q18 -20 50 -20q16 0 29 5.5t18 13.5v132q-23 10 -43 10q-30 0 -51 -23t-21 -57q0 -41 18 -61z" />
    <glyph glyph-name="A" unicode="A" horiz-adv-x="573" 
d="M541 46q2 -8 2 -12q0 -10 -6.5 -16t-17.5 -6h-105l-50 177h-187l-41 -146q-5 -17 -14.5 -24t-28.5 -7h-104l211 689h114q25 0 31 -20zM270 524l-60 -217h121z" />
    <glyph glyph-name="B" unicode="B" horiz-adv-x="533" 
d="M264 701q102 0 156 -53.5t54 -137.5q0 -43 -16.5 -78t-44.5 -54q46 -29 68 -69.5t22 -97.5q0 -95 -59.5 -147t-170.5 -52h-182q-36 0 -36 34v655h209zM185 580v-155h73q41 0 64 20.5t23 57.5t-23 57t-64 20h-73zM289 133q39 0 61.5 23t22.5 62q0 40 -22.5 63.5
t-61.5 23.5h-104v-172h104z" />
    <glyph glyph-name="C" unicode="C" horiz-adv-x="564" 
d="M446.5 15q-45.5 -12 -93.5 -12q-90 0 -161 35.5t-113 112t-42 194.5q0 122 42.5 204t111 121.5t147.5 39.5q54 0 101.5 -16t77.5 -40q11 -8 11 -21q0 -7 -3 -13l-41 -77q-32 22 -66.5 34t-64.5 12q-49 0 -90 -28t-65.5 -83.5t-24.5 -132.5q0 -107 48.5 -164t140.5 -57
q67 0 122 32l46 -83q2 -6 2 -9q0 -11 -8 -16q-32 -21 -77.5 -33z" />
    <glyph glyph-name="D" unicode="D" horiz-adv-x="609" 
d="M250 701q158 0 235 -85.5t77 -259.5t-77 -259t-235 -85h-158q-35 0 -35 33v656h193zM241 133q92 0 138.5 49.5t46.5 173.5t-46.5 174t-138.5 50h-54v-447h54z" />
    <glyph glyph-name="E" unicode="E" horiz-adv-x="509" 
d="M444 133q35 0 35 -33v-88h-389q-35 0 -35 34v655h379q36 0 36 -34v-87h-285v-149h230q36 0 36 -33v-85h-266v-106q0 -54 -1 -74h260z" />
    <glyph glyph-name="F" unicode="F" horiz-adv-x="464" 
d="M435 580h-251v-158h207q17 0 26 -9t9 -25v-84h-242v-213q0 -43 -19 -61t-73 -18h-38v688h1v1h345q35 0 35 -34v-87z" />
    <glyph glyph-name="G" unicode="G" horiz-adv-x="594" 
d="M509 389q35 0 35 -33v-275q0 -35 -29 -48q-57 -27 -150 -27q-151 0 -239 83t-88 255q0 117 42 199.5t114.5 124.5t164.5 42q52 0 97.5 -13.5t71.5 -34.5q11 -9 11 -19q0 -3 -4 -13l-42 -79q-29 20 -61.5 29t-72.5 9q-87 0 -136.5 -63.5t-49.5 -181.5q0 -94 40 -151
t111 -68q18 -3 38 -3q35 0 62 8v146h-78q-36 0 -36 34v79h199z" />
    <glyph glyph-name="H" unicode="H" horiz-adv-x="608" 
d="M516 701q35 0 35 -34v-576q0 -29 -6.5 -45.5t-25.5 -25t-56 -8.5h-42v301h-234v-222q0 -43 -19 -61t-74 -18h-37v689h95q35 0 35 -34v-222h234v256h95z" />
    <glyph glyph-name="I" unicode="I" horiz-adv-x="226" 
d="M142 701q36 0 36 -34v-576q0 -43 -19.5 -61t-73.5 -18h-37v689h94z" />
    <glyph glyph-name="J" unicode="J" horiz-adv-x="412" 
d="M57 172q33 -19 57 -27.5t49 -8.5q68 0 68 88v476h95q35 0 35 -33v-493q0 -86 -48.5 -128.5t-129.5 -42.5q-87 0 -158 38q-18 9 -18 23q0 6 5 16z" />
    <glyph glyph-name="K" unicode="K" horiz-adv-x="558" 
d="M531 54q6 -9 6 -17q0 -10 -6.5 -17.5t-17.5 -7.5h-119l-209 305v-226q0 -29 -6.5 -45.5t-25.5 -25t-56 -8.5h-42v689h94q36 0 36 -34v-237l189 271h121q10 0 16 -5.5t6 -13.5t-6 -16l-204 -293z" />
    <glyph glyph-name="L" unicode="L" horiz-adv-x="502" 
d="M444 132q35 0 35 -33v-87h-389q-35 0 -35 34v655h95q35 0 35 -34v-535h259z" />
    <glyph glyph-name="M" unicode="M" horiz-adv-x="758" 
d="M663 701q35 0 35 -34v-576q0 -43 -18 -61t-71 -18h-41v467l-150 -237q-6 -10 -17 -15t-24 -5t-23.5 5t-16.5 14l-147 238v-388q0 -43 -18.5 -61t-69.5 -18h-42v689h130l188 -297l190 297h95z" />
    <glyph glyph-name="N" unicode="N" horiz-adv-x="623" 
d="M531 701q35 0 35 -34v-576q0 -43 -18 -61t-72 -18h-41l-248 448v-369q0 -43 -18.5 -61t-69.5 -18h-42v689h131l248 -441v441h95z" />
    <glyph glyph-name="O" unicode="O" horiz-adv-x="644" 
d="M533.5 93q-72.5 -90 -211.5 -90t-211.5 90t-72.5 261q0 119 36.5 198.5t100 118.5t147.5 39t147.5 -39t100 -118.5t36.5 -198.5q0 -171 -72.5 -261zM322 583q-148 0 -148 -230q0 -223 148 -223t148 223q0 230 -148 230z" />
    <glyph glyph-name="P" unicode="P" horiz-adv-x="518" 
d="M273 701q66 0 116 -27t77 -76t27 -114q0 -67 -29.5 -116t-79.5 -75t-111 -26h-84v-176q0 -43 -19 -61t-73 -18h-42v689h218zM267 387q46 0 71 26t25 71t-25 70.5t-71 25.5h-82v-193h82z" />
    <glyph glyph-name="Q" unicode="Q" horiz-adv-x="649" 
d="M578 -27q5 -7 5 -14q0 -8 -5 -13t-13 -5h-112q-15 20 -50 69q-37 -9 -81 -9q-139 0 -211.5 90.5t-72.5 261.5q0 118 36.5 198t100 119t147.5 39t147.5 -39t100 -119t36.5 -198q0 -196 -94 -284q33 -51 66 -96zM325 129q-30 51 -49 87q-4 10 -4 14q0 15 16 22l93 43
q17 -36 56 -104q33 56 33 161q0 229 -148 229t-148 -229q0 -223 148 -223h3z" />
    <glyph glyph-name="R" unicode="R" horiz-adv-x="564" 
d="M553 30q0 -7 -5 -12.5t-13 -5.5h-118l-40 74q-63 114 -103 190h-87v-185q0 -43 -18.5 -61t-70.5 -18h-41v689h218q103 0 161 -56.5t58 -155.5q0 -63 -24.5 -110t-70.5 -73l39 -69q66 -117 113 -198q2 -3 2 -9zM187 580v-183h82q46 0 71 24t25 67t-25 67.5t-71 24.5h-82z
" />
    <glyph glyph-name="S" unicode="S" horiz-adv-x="541" 
d="M96 187q44 -29 86 -43t89 -14q42 0 68 19.5t26 50.5q0 35 -27.5 61t-106.5 59q-89 37 -128 83t-39 110q0 59 28 103.5t80 69t120 24.5q53 0 97 -14.5t77 -37.5q10 -7 10 -18q0 -7 -4 -14l-49 -81q-30 19 -64.5 29.5t-65.5 10.5q-41 0 -65.5 -17.5t-24.5 -47.5
q0 -27 23 -47.5t81 -45.5q107 -44 153.5 -97t46.5 -131q0 -97 -65 -146.5t-166 -49.5q-149 0 -223 60q-15 12 -15 25q0 6 5 14z" />
    <glyph glyph-name="T" unicode="T" horiz-adv-x="543" 
d="M526 580h-189v-489q0 -42 -18.5 -60.5t-69.5 -18.5h-42v568h-155q-35 0 -35 33v88h474q35 0 35 -34v-87z" />
    <glyph glyph-name="U" unicode="U" horiz-adv-x="608" 
d="M516 700q35 0 35 -33v-422q0 -116 -64 -179t-183 -63t-183 63t-64 179v455h95q35 0 35 -33v-403q0 -134 117 -134t117 134v436h95z" />
    <glyph glyph-name="V" unicode="V" horiz-adv-x="611" 
d="M215 12l-184 689h107q35 0 42 -31l125 -483q100 273 144 514h102q29 0 29 -28q0 -8 -1 -12q-27 -145 -68 -290t-109 -312q-11 -27 -25 -37t-42 -10h-120z" />
    <glyph glyph-name="W" unicode="W" horiz-adv-x="782" 
d="M714 701q16 0 22.5 -7t5.5 -22q-6 -140 -29 -304t-66 -311q-7 -27 -19.5 -36t-39.5 -9h-103l-80 440q-30 -213 -87 -398q-8 -23 -22 -32.5t-43 -9.5h-105l-108 689h102q35 0 38 -26l63 -486q62 246 81 441h122q33 0 38 -26l75 -415q24 106 39 247t19 265h97z" />
    <glyph glyph-name="X" unicode="X" horiz-adv-x="591" 
d="M496 153q38 -62 65 -107q3 -6 3 -11q0 -9 -6.5 -16t-15.5 -7h-113q-55 82 -141 226q-68 -116 -125 -226h-114q-10 0 -16.5 6t-6.5 15q0 6 3 10q100 189 182 320q-99 145 -182 304q-3 6 -3 12q0 9 6.5 15.5t16.5 6.5h113q61 -116 137 -230q24 44 70 124l60 106h112
q11 0 17.5 -6.5t6.5 -15.5q0 -7 -4 -14l-19 -33q-96 -166 -159 -291q35 -62 113 -188z" />
    <glyph glyph-name="Y" unicode="Y" horiz-adv-x="611" 
d="M553 701q12 0 19.5 -6t7.5 -15q0 -7 -4 -14l-203 -350v-225q0 -43 -19.5 -61t-73.5 -18h-42v303l-207 386h117q17 0 25 -6.5t17 -23.5l117 -221l137 251h109z" />
    <glyph glyph-name="Z" unicode="Z" horiz-adv-x="504" 
d="M465 582q-50 -107 -124.5 -232t-142.5 -217h250q35 0 35 -33v-88h-425q-36 0 -35 34l2 85q88 110 170.5 235.5t125.5 213.5h-249q-35 0 -35 33v88h393q35 0 35 -34v-85z" />
    <glyph glyph-name="bracketleft" unicode="[" horiz-adv-x="376" 
d="M351 675h-168v-676h134q34 0 34 -33v-85h-260q-34 0 -34 33v879h260q34 0 34 -33v-85z" />
    <glyph glyph-name="backslash" unicode="\" horiz-adv-x="430" 
d="M11 768q-1 3 -1 9q0 20 21 20h111l268 -882h-88q-34 0 -49 11t-23 40z" />
    <glyph glyph-name="bracketright" unicode="]" horiz-adv-x="376" 
d="M285 793q34 0 34 -33v-879h-260q-34 0 -34 33v85h168v676h-134q-34 0 -34 33v85h260z" />
    <glyph glyph-name="asciicircum" unicode="^" horiz-adv-x="468" 
d="M235 531l116 -144l77 60q10 9 10 18t-5 14l-151 184q-11 14 -21.5 19.5t-25.5 5.5t-25.5 -5.5t-21.5 -19.5l-151 -184q-5 -5 -5 -14t10 -18l77 -60z" />
    <glyph glyph-name="underscore" unicode="_" horiz-adv-x="479" 
d="M57 -22q-34 0 -34 33v82h399q34 0 34 -33v-82h-399z" />
    <glyph glyph-name="grave" unicode="`" horiz-adv-x="247" 
d="M104 783q18 0 27 -6t16 -22l75 -190q4 -9 4 -19q0 -26 -31 -26h-79l-112 263h100z" />
    <glyph glyph-name="a" unicode="a" horiz-adv-x="501" 
d="M354 514q46 -22 72.5 -63t26.5 -97v-269q0 -42 -18 -59.5t-71 -17.5h-25v35q-19 -21 -54.5 -32.5t-76.5 -11.5q-79 0 -127 36.5t-48 110.5q0 85 65.5 131t181.5 46q13 0 45 -2v18q0 39 -25.5 59.5t-63.5 20.5q-30 0 -54.5 -12.5t-49.5 -37.5l-60 46q-14 11 -14 24
q0 10 9 20q71 77 183 77q58 0 104 -22zM325 225q-30 2 -42 2q-60 0 -90.5 -18.5t-30.5 -49.5q0 -56 75 -56q51 0 88 23v99z" />
    <glyph glyph-name="b" unicode="b" horiz-adv-x="534" 
d="M110 13h-53v724h97q33 0 33 -31v-210q18 23 46.5 34t61.5 11q57 0 103.5 -28t74.5 -88t28 -150q0 -136 -58 -203.5t-151 -67.5q-40 0 -71 13.5t-49 37.5q-11 -42 -62 -42zM370 271q0 75 -26 114.5t-75 39.5q-31 0 -54 -17.5t-32 -46.5v-173q9 -30 32 -47t54 -17
q101 0 101 147z" />
    <glyph glyph-name="c" unicode="c" horiz-adv-x="454" 
d="M283 -1q-114 0 -182.5 62.5t-68.5 201.5q0 126 64.5 199.5t176.5 73.5q40 0 77 -12t62 -32q12 -10 12 -22q0 -6 -3 -12l-32 -78q-24 19 -52.5 29t-56.5 10q-54 0 -86 -40.5t-32 -111.5q0 -151 136 -151q26 0 54 5t48 13l18 -88q1 -2 1 -7q0 -14 -15 -19q-49 -21 -121 -21
z" />
    <glyph glyph-name="d" unicode="d" horiz-adv-x="534" 
d="M362 55q-22 -24 -52.5 -37.5t-67.5 -13.5q-93 0 -151 67.5t-58 203.5q0 90 28 150t74.5 88t103.5 28q33 0 61.5 -11t46.5 -34v241h97q33 0 33 -31v-616q0 -43 -19 -60t-75 -17h-21v42zM319 141q23 17 32 47v173q-9 29 -32 46.5t-54 17.5q-49 0 -75 -39.5t-26 -114.5
q0 -147 101 -147q31 0 54 17z" />
    <glyph glyph-name="e" unicode="e" horiz-adv-x="492" 
d="M374 3.5q-30 -4.5 -68 -4.5q-126 0 -200 62.5t-74 205.5q0 90 30 150.5t81 89.5t116 29q55 0 100.5 -23t71.5 -66t26 -100q0 -63 -34 -97.5t-110 -36.5l-152 -4q0 -43 41 -70.5t105 -27.5q69 0 128 21l18 -83q1 -3 1 -8q0 -13 -17 -20q-33 -13 -63 -17.5zM320 406.5
q-22 21.5 -59 21.5q-47 0 -73.5 -31t-26.5 -88l141 2q20 0 30 10.5t10 32.5q0 31 -22 52.5z" />
    <glyph glyph-name="f" unicode="f" horiz-adv-x="367" 
d="M242 571v-39h80q33 0 33 -31v-88h-113v-368q0 -31 -32 -31h-98v399h-49q-33 0 -33 32v87h82v53q0 79 45 120.5t124 41.5q54 0 95 -21q15 -6 15 -20q0 -3 -2 -9l-36 -85q-33 15 -61 15q-50 0 -50 -56z" />
    <glyph glyph-name="g" unicode="g" horiz-adv-x="508" 
d="M470 445q-23 10 -46 10q-10 0 -15 -1q31 -42 31 -99q0 -79 -58 -124t-149 -45q-15 0 -22 1q-23 -11 -23 -28q0 -19 21 -28.5t79 -11.5q87 -3 136 -48.5t49 -118.5q0 -81 -58 -126t-170 -45t-171.5 40t-59.5 110q0 41 19.5 75t58.5 56q-26 29 -26 70q0 52 47 82
q-39 21 -61 57t-22 84q0 80 57 128t146 48q56 0 102 -20q38 38 95 38q27 0 50 -10q13 -6 13 -19q0 -2 -2 -10zM298.5 303.5q22.5 19.5 22.5 51.5q0 34 -22.5 56t-63.5 22t-63.5 -22t-22.5 -56q0 -32 22.5 -51.5t63.5 -19.5t63.5 19.5zM322 -1q-30 21 -95 21q-16 0 -42 2
q-27 -13 -40 -32t-13 -40q0 -35 26.5 -52.5t86.5 -17.5q55 0 81 15.5t26 47.5q0 35 -30 56z" />
    <glyph glyph-name="h" unicode="h" horiz-adv-x="514" 
d="M422.5 493.5q46.5 -48.5 46.5 -137.5v-266q0 -42 -19 -59.5t-72 -17.5h-39v318q0 45 -20.5 67t-57.5 22q-24 0 -44.5 -11.5t-31.5 -30.5v-288q0 -42 -18 -59.5t-71 -17.5h-41v725h98q32 0 32 -32v-214q54 50 120 50q71 0 117.5 -48.5z" />
    <glyph glyph-name="i" unicode="i" horiz-adv-x="247" 
d="M46 716q14 11 35.5 16.5t42.5 5.5t38 -6q19 -7 29 -23.5t10 -40.5q0 -34 -24 -81h-115zM156 532q33 0 33 -31v-411q0 -43 -16 -60t-64 -17h-50v519h97z" />
    <glyph glyph-name="j" unicode="j" horiz-adv-x="267" 
d="M63 710q15 11 35.5 17t41.5 6q20 0 39 -7q18 -7 28 -23.5t10 -40.5q0 -37 -23 -80h-115zM-37 -73q30 -15 55 -15q29 0 41.5 14.5t12.5 51.5v548h98q32 0 32 -31v-547q0 -162 -153 -162q-58 0 -102 23q-18 9 -18 24q0 6 3 14z" />
    <glyph glyph-name="k" unicode="k" horiz-adv-x="490" 
d="M463 52q5 -8 5 -16q0 -9 -6 -16t-15 -7h-110l-150 241v-96v-34q0 -45 -4 -64q-5 -25 -26.5 -37t-61.5 -12q-10 0 -38 2v725h98q32 0 32 -32v-364l140 190h111q9 0 14 -4.5t5 -12.5t-5 -14l-147 -201z" />
    <glyph glyph-name="l" unicode="l" horiz-adv-x="240" 
d="M185 158v-46q0 -36 -4 -52q-5 -25 -26.5 -37t-61.5 -12q-10 0 -38 2v725h97q33 0 33 -32v-548z" />
    <glyph glyph-name="m" unicode="m" horiz-adv-x="761" 
d="M671.5 490.5q44.5 -46.5 44.5 -134.5v-270q0 -43 -18 -60.5t-71 -17.5h-39v318q0 42 -19 63t-52 21q-29 0 -48 -19t-23 -55v-250q0 -43 -18.5 -60.5t-71.5 -17.5h-36v318q0 42 -18.5 63t-50.5 21q-25 0 -43 -14.5t-25 -42.5v-267q0 -43 -18 -60.5t-71 -17.5h-39v519h82
q32 0 32 -31v-19q22 30 53 45t66 15q42 0 76 -18t55 -53q45 71 135 71q73 0 117.5 -46.5z" />
    <glyph glyph-name="n" unicode="n" horiz-adv-x="514" 
d="M422.5 488.5q46.5 -48.5 46.5 -137.5v-265q0 -43 -18.5 -60.5t-71.5 -17.5h-39v318q0 89 -79 89q-25 0 -45.5 -11.5t-31.5 -32.5v-285q0 -43 -18 -60.5t-71 -17.5h-40v519h97q32 0 32 -31v-11q24 24 55 38t66 14q71 0 117.5 -48.5z" />
    <glyph glyph-name="o" unicode="o" horiz-adv-x="524" 
d="M460.5 119.5q-29.5 -60.5 -81.5 -90.5t-117 -30q-103 0 -165.5 69t-62.5 200t62.5 199.5t165.5 68.5q66 0 117.5 -30t81 -90t29.5 -148t-29.5 -148.5zM334 382.5q-26 39.5 -72 39.5q-47 0 -72.5 -39t-25.5 -115t25.5 -115.5t72.5 -39.5q46 0 72 40t26 115t-26 114.5z" />
    <glyph glyph-name="p" unicode="p" horiz-adv-x="535" 
d="M187 -132q0 -42 -18.5 -59.5t-72.5 -17.5h-39v731h83q32 0 32 -32v-16q21 27 54 42t69 15q92 0 149 -67t57 -210q0 -139 -57.5 -200t-148.5 -61q-33 0 -61.5 10t-46.5 30v-165zM215 393.5q-23 -16.5 -32 -46.5v-174q9 -29 32 -46t54 -17q101 0 101 154q0 146 -101 146
q-31 0 -54 -16.5z" />
    <glyph glyph-name="q" unicode="q" horiz-adv-x="535" 
d="M347 34q-18 -20 -46.5 -30t-61.5 -10q-91 0 -148.5 63.5t-57.5 202.5q0 138 57 204.5t149 66.5q37 0 69.5 -14.5t53.5 -41.5v47h82q33 0 33 -32v-622q0 -42 -18.5 -59.5t-71.5 -17.5h-40v243zM164 269q0 -79 25.5 -119t75.5 -40q31 0 54 17t32 46v174q-9 30 -32 46.5
t-54 16.5q-101 0 -101 -141z" />
    <glyph glyph-name="r" unicode="r" horiz-adv-x="393" 
d="M389 499q0 -4 -2 -10l-30 -92q-30 14 -66 14q-63 0 -106 -62v-263q0 -43 -18.5 -60.5t-72.5 -17.5h-39v519h83q33 0 33 -31v-30q26 36 60 53.5t67 17.5q22 0 39 -4.5t38 -13.5q14 -7 14 -20z" />
    <glyph glyph-name="s" unicode="s" horiz-adv-x="469" 
d="M396 384q-37 21 -73 31.5t-80 10.5q-34 0 -51.5 -10.5t-17.5 -29.5t22 -32.5t82 -30.5q161 -45 161 -171q0 -77 -52 -115t-147 -38q-59 0 -110 14.5t-86 41.5q-13 9 -13 21q0 9 6 18l50 69q69 -50 145 -50q74 0 74 41q0 20 -21 36t-74 30q-89 24 -129 61t-40 96
q0 76 54 117.5t147 41.5q46 0 88 -11t73 -31q18 -11 18 -25q0 -6 -1 -9z" />
    <glyph glyph-name="t" unicode="t" horiz-adv-x="386" 
d="M373 59q3 -6 3 -12q0 -15 -19 -24q-39 -21 -95 -21q-75 0 -118.5 38.5t-43.5 118.5v253h-52q-32 0 -32 31v88h84v157h98q32 0 32 -32v-125h78q33 0 33 -32v-87h-111v-223q0 -33 11.5 -46.5t37.5 -13.5q28 0 60 16z" />
    <glyph glyph-name="u" unicode="u" horiz-adv-x="525" 
d="M434 528q33 0 33 -32v-411q0 -42 -16.5 -59.5t-59.5 -17.5h-40v38q-15 -21 -46 -34.5t-76 -13.5q-84 0 -130.5 51.5t-46.5 149.5v328h98q32 0 32 -32v-275q0 -58 21 -81.5t58 -23.5q55 0 76 50v363h97z" />
    <glyph glyph-name="v" unicode="v" horiz-adv-x="541" 
d="M213 8l-179 520h108q16 0 25 -7t14 -22l102 -317q79 193 96 346h101q27 0 27 -26q0 -8 -1 -12q-19 -103 -57.5 -215.5t-91.5 -220.5q-14 -27 -26 -36.5t-38 -9.5h-80z" />
    <glyph glyph-name="w" unicode="w" horiz-adv-x="748" 
d="M676 527q31 0 28 -30q-8 -94 -33.5 -212t-65.5 -231q-9 -27 -21 -36.5t-38 -9.5h-97l-61 297q-35 -167 -68 -254q-10 -24 -24 -33.5t-41 -9.5h-93l-118 519h100q32 0 38 -27l65 -335q43 121 64 294h107q17 0 25.5 -6t12.5 -20l62 -268q44 150 63 362h95z" />
    <glyph glyph-name="x" unicode="x" horiz-adv-x="544" 
d="M515 28q0 -8 -5 -14t-13 -6h-118q-33 43 -119 163q-42 -68 -94 -163h-115q-8 0 -13 5t-5 12q0 6 2 9q40 79 141 234q-76 107 -143 229q-3 6 -3 12q0 8 5 13t14 5h114q52 -90 103 -166q63 96 114 166h108q9 0 14.5 -5t5.5 -13q0 -6 -5 -14q-62 -84 -154 -231
q74 -112 162 -224q4 -5 4 -12z" />
    <glyph glyph-name="y" unicode="y" horiz-adv-x="538" 
d="M476 521q28 0 28 -24q0 -4 -2 -14q-38 -160 -104.5 -339.5t-141.5 -334.5q-9 -19 -25 -19q-9 0 -16 4l-87 42q58 117 106 232l-11 -4q-7 -3 -15 -3q-15 0 -21 16l-153 444h106q16 0 25 -6.5t14 -21.5l102 -305q67 181 99 333h96z" />
    <glyph glyph-name="z" unicode="z" horiz-adv-x="505" 
d="M447 408q-101 -169 -223 -281h205q32 0 32 -31v-88h-386q-32 0 -32 32l2 87q80 70 149.5 145.5t106.5 135.5h-212q-32 0 -32 31v88h358q32 0 32 -32v-87z" />
    <glyph glyph-name="braceleft" unicode="{" horiz-adv-x="431" 
d="M306 202q0 -29 -7 -50.5t-20 -49.5q-10 -20 -14.5 -34t-4.5 -30q0 -27 23 -41.5t79 -14.5h39v-93q0 -17 -16 -17h-23q-108 0 -167.5 39t-59.5 111q0 27 6 48t18 46q11 25 16.5 43t5.5 39q0 33 -22 53t-80 24q-10 1 -14.5 5t-4.5 14v80q0 10 4.5 14t14.5 5q58 4 80 24
t22 53q0 21 -5.5 39t-16.5 43q-12 25 -18 46t-6 48q0 72 59.5 111t167.5 39h23q16 0 16 -17v-93h-39q-56 0 -79 -14.5t-23 -41.5q0 -16 4.5 -30t14.5 -34q13 -28 20 -49.5t7 -50.5q0 -91 -77 -132q77 -41 77 -132z" />
    <glyph glyph-name="bar" unicode="|" horiz-adv-x="230" 
d="M178 -13q0 -42 -16.5 -57t-59.5 -15h-50v882h93q33 0 33 -34v-776z" />
    <glyph glyph-name="braceright" unicode="}" horiz-adv-x="431" 
d="M125 466q0 29 7 50.5t20 49.5q10 20 14.5 34t4.5 30q0 27 -23 41.5t-79 14.5h-39v93q0 17 16 17h23q107 1 167 -38.5t60 -111.5q0 -27 -6 -48t-18 -46q-11 -25 -16.5 -43t-5.5 -39q0 -33 22 -53t80 -24q10 -1 14.5 -5t4.5 -14v-80q0 -10 -4.5 -14t-14.5 -5
q-58 -4 -80 -24t-22 -53q0 -21 5.5 -39t16.5 -43q12 -25 18 -46t6 -48q0 -72 -59.5 -111t-167.5 -39h-23q-16 0 -16 17v93h39q56 0 79 14.5t23 41.5q0 16 -4.5 30t-14.5 34q-13 28 -20 49.5t-7 50.5q0 91 77 132q-77 41 -77 132z" />
    <glyph glyph-name="asciitilde" unicode="~" horiz-adv-x="672" 
d="M570.5 255.5q-43.5 -26.5 -88.5 -26.5q-42 0 -74.5 13t-74.5 45q-19 15 -35 29q-27 23 -44 33t-39 10q-33 0 -55 -22t-45 -71l-79 43q-16 9 -16 20q0 7 5 15q81 136 190 136q42 0 76.5 -16t73.5 -49q16 -13 28 -25q26 -24 43 -33.5t41 -9.5q52 0 89 65l76 -49
q10 -8 10 -17q0 -7 -6 -16q-32 -48 -75.5 -74.5z" />
    <glyph glyph-name="cent" unicode="&#xa2;" horiz-adv-x="470" 
d="M200.5 380.5q-33.5 -42.5 -33.5 -117.5q0 -159 142 -159q27 0 56 5.5t52 13.5l19 -92q1 -2 1 -7q0 -15 -16 -21q-40 -16 -85 -20v-38q0 -36 -16 -53.5t-57 -17.5h-48v115q-86 18 -135.5 84t-49.5 186q0 111 49 184.5t136 94.5v116h84q37 0 37 -35v-78q57 -12 93 -42
q13 -10 13 -23q0 -6 -3 -12l-34 -82q-26 20 -55.5 30.5t-58.5 10.5q-57 0 -90.5 -42.5z" />
    <glyph glyph-name="sterling" unicode="&#xa3;" horiz-adv-x="450" 
d="M375 413q34 0 34 -33v-82h-160v-16q0 -88 -78 -149h200q34 0 34 -33v-82h-360q-34 0 -34 33v82q54 37 87.5 79.5t33.5 69.5q0 11 -1 16h-82q-34 0 -34 33v82h75q-29 52 -29 117q0 83 50 133t133 50q58 0 99 -25.5t67 -69.5l-82 -64q-28 28 -45 39t-38 11q-34 0 -51 -19
t-17 -54q0 -29 9 -57t30 -61h159z" />
    <glyph glyph-name="currency" unicode="&#xa4;" horiz-adv-x="632" 
d="M120 490l-111 135l76 66q8 6 16 6q10 0 16 -8l99 -125q48 21 105 21q30 0 54 -5t49 -16l106 135l75 -56q12 -9 12 -21q0 -8 -8 -19l-88 -113q47 -61 47 -145q0 -80 -47 -141l88 -113q8 -11 8 -19q0 -12 -12 -21l-75 -56l-106 135q-25 -11 -48.5 -16t-54.5 -5
q-57 0 -105 21l-99 -125q-6 -8 -16 -8q-8 0 -16 6l-76 66l111 135q-46 58 -46 141q0 87 46 145zM413.5 439q-36.5 37 -92.5 37t-92.5 -37t-36.5 -94t36 -92t93 -35t93 35t36 92t-36.5 94z" />
    <glyph glyph-name="yen" unicode="&#xa5;" horiz-adv-x="617" 
d="M569 714q13 0 20.5 -6t7.5 -15q0 -8 -4 -15l-160 -275h57q34 0 34 -33v-82h-145v-55h111q34 0 34 -33v-82h-145v-44q0 -45 -20 -64t-77 -19h-44v127h-114q-34 0 -34 33v82h148v55h-114q-34 0 -34 33v82h97l-167 311h123q18 0 26.5 -7t17.5 -24l123 -233l144 264h115z" />
    <glyph glyph-name="copyright" unicode="&#xa9;" horiz-adv-x="801" 
d="M590.5 678.5q84.5 -48.5 132.5 -133.5t48 -188q0 -104 -48 -189t-132.5 -134.5t-190.5 -49.5q-105 0 -189.5 49.5t-132.5 134.5t-48 189q0 103 47.5 188t132 133.5t190.5 48.5t190.5 -48.5zM536.5 115.5q60.5 35.5 95 98.5t34.5 143t-34.5 142.5t-95 97t-136.5 34.5
q-77 0 -137 -34.5t-94 -97t-34 -142.5q0 -81 34 -144t94.5 -98t136.5 -35t136.5 35.5zM430 151q-103 0 -159 53.5t-56 151.5q0 62 26 110t72.5 74.5t107.5 26.5q33 0 64 -10.5t54 -27.5q9 -7 9 -16q0 -2 -2 -10l-26 -63q-43 31 -93 31q-46 0 -75.5 -31t-29.5 -81
q0 -53 32 -82.5t89 -29.5q40 0 86 14l15 -72l1 -5q0 -5 -3.5 -9t-8.5 -6q-52 -18 -103 -18z" />
    <glyph glyph-name="registered" unicode="&#xae;" horiz-adv-x="616" 
d="M452.5 677.5q63.5 -36.5 98.5 -99t35 -136.5t-35 -136t-98 -98.5t-145 -36.5t-145 36.5t-98 98.5t-35 136t35 136.5t98.5 99t144.5 36.5t144.5 -36.5zM406 275q43 25 67 68.5t24 98.5t-23.5 99.5t-66.5 70t-99 25.5t-99.5 -26t-67.5 -70.5t-24 -98.5t24.5 -98t68 -69
t98.5 -25t98 25zM435 327q2 -4 2 -6q0 -4 -3 -6.5t-8 -2.5h-60l-50 95h-41v-49q0 -25 -10 -35.5t-36 -10.5h-24v276h111q45 0 71.5 -23t26.5 -67q0 -49 -34 -73zM313 469q31 0 31 29q0 28 -31 28h-40v-57h40z" />
    <glyph glyph-name="degree" unicode="&#xb0;" horiz-adv-x="357" 
d="M285.5 505.5q-41.5 -38.5 -107.5 -38.5t-107 38t-41 98q0 39 19 72.5t52.5 53t76.5 19.5t77 -19.5t53 -53t19 -72.5q0 -59 -41.5 -97.5zM210.5 635.5q-12.5 13.5 -32.5 13.5t-32.5 -13.5t-12.5 -32.5q0 -18 12 -28t33 -10t33 10t12 28q0 19 -12.5 32.5z" />
    <glyph glyph-name="plusminus" unicode="&#xb1;" horiz-adv-x="544" 
d="M460 510q34 0 34 -33v-82h-162v-82q0 -42 -16.5 -57t-59.5 -15h-44v154h-133q-17 0 -23 8t-6 25v82h162v153h87q33 0 33 -34v-119h128zM455 193q34 0 34 -33v-82h-400q-34 0 -34 33v82h400z" />
    <glyph glyph-name="paragraph" unicode="&#xb6;" horiz-adv-x="647" 
d="M587 689v-744q0 -42 -15.5 -57t-53.5 -15h-60v742h-45v-670q0 -42 -15.5 -57t-53.5 -15h-60v386q-34 -8 -64 -8q-86 0 -138 61t-52 171q0 72 28 125.5t78 82t116 29.5q148 2 301 2q34 0 34 -33z" />
    <glyph glyph-name="periodcentered" unicode="&#xb7;" horiz-adv-x="232" 
d="M59 310.5q-20 17.5 -20 48.5q0 32 21.5 54.5t55.5 22.5t55.5 -22.5t21.5 -54.5q0 -31 -20 -48.5t-57 -17.5t-57 17.5z" />
    <glyph glyph-name="multiply" unicode="&#xd7;" horiz-adv-x="451" 
d="M146 350l-132 134l70 70q7 7 16 7t16 -7l114 -120l125 127l67 -64q8 -8 8 -15q0 -8 -8 -16l-115 -114l117 -120q8 -8 8 -15q0 -8 -8 -16l-67 -64l-126 121l-111 -106q-7 -7 -16 -7t-16 7l-70 70z" />
    <glyph glyph-name="divide" unicode="&#xf7;" horiz-adv-x="529" 
d="M206.5 485q-19.5 17 -19.5 47q0 31 21 52t53 21t53 -21t21 -52q0 -30 -19.5 -47t-54.5 -17t-54.5 17zM64 298q-34 0 -34 33v82h435q34 0 34 -33v-82h-435zM206.5 123q-19.5 17 -19.5 47q0 31 21 52t53 21t53 -21t21 -52q0 -30 -19.5 -47t-54.5 -17t-54.5 17z" />
    <glyph glyph-name="quoteleft" unicode="&#x2018;" horiz-adv-x="244" 
d="M191 818q-24 -28 -42.5 -60t-26.5 -61q36 -2 56.5 -20.5t20.5 -49.5q0 -34 -23.5 -58.5t-59.5 -24.5t-58 25t-22 70q0 62 28 122t61 88q7 5 12 5t9 -3z" />
    <glyph glyph-name="quoteright" unicode="&#x2019;" horiz-adv-x="244" 
d="M53 466q24 28 42.5 60t26.5 61q-36 2 -56.5 20.5t-20.5 49.5q0 34 23.5 58.5t59.5 24.5t58 -25t22 -70q0 -62 -28 -122t-61 -88q-7 -5 -12 -5t-9 3z" />
    <glyph glyph-name="quotedblleft" unicode="&#x201c;" horiz-adv-x="434" 
d="M188 818q-25 -28 -43.5 -60t-26.5 -61q37 -1 57 -19.5t20 -50.5q0 -34 -23.5 -58.5t-59.5 -24.5t-58 25t-22 70q0 61 28 118.5t62 91.5q5 5 12 5q5 0 9 -3zM391 818q-25 -29 -43.5 -60.5t-25.5 -60.5q36 -2 56.5 -20.5t20.5 -49.5q0 -34 -23.5 -58.5t-59.5 -24.5
q-37 0 -58.5 25t-21.5 70q0 61 28 119t61 91q5 5 12 5q5 0 9 -3z" />
    <glyph glyph-name="quotedblright" unicode="&#x201d;" horiz-adv-x="434" 
d="M43 466q25 29 43.5 60.5t25.5 60.5q-36 2 -56.5 20.5t-20.5 49.5q0 34 23.5 58.5t59.5 24.5q37 0 58.5 -25t21.5 -70q0 -61 -28 -119t-61 -91q-5 -5 -12 -5q-4 0 -9 3zM246 466q25 28 43.5 60t26.5 61q-37 1 -57 19.5t-20 50.5q0 34 23.5 58.5t59.5 24.5t58 -25t22 -70
q0 -61 -28 -118.5t-62 -91.5q-5 -5 -12 -5q-4 0 -9 3z" />
    <glyph glyph-name="uni203B" unicode="&#x203b;" horiz-adv-x="1000" 
d="M451 563.5q-20 17.5 -20 48.5q0 32 21.5 54.5t55.5 22.5t55.5 -22.5t21.5 -54.5q0 -31 -20 -48.5t-57 -17.5t-57 17.5zM902 16q7 -7 7 -17q0 -7 -5.5 -12t-14.5 -5h-116l-264 267l-265 -267h-116q-9 0 -14.5 5t-5.5 12q0 10 7 17l312 314l-313 316q-7 7 -7 15t6 13.5
t15 5.5h114l267 -268l266 268h114q9 0 15 -5.5t6 -13.5t-7 -15l-313 -316zM273 284.5q-20 -17.5 -57 -17.5t-57 17.5t-20 48.5q0 32 21.5 54.5t55.5 22.5t55.5 -22.5t21.5 -54.5q0 -31 -20 -48.5zM750.5 387.5q21.5 22.5 55.5 22.5t55.5 -22.5t21.5 -54.5q0 -31 -20 -48.5
t-57 -17.5t-57 17.5t-20 48.5q0 32 21.5 54.5zM563.5 96.5q21.5 -22.5 21.5 -54.5q0 -31 -20 -48.5t-57 -17.5t-57 17.5t-20 48.5q0 32 21.5 54.5t55.5 22.5t55.5 -22.5z" />
    <glyph glyph-name="uni20A9" unicode="&#x20a9;" horiz-adv-x="945" 
d="M804 381q-27 -189 -71 -343q-8 -28 -21 -37.5t-41 -9.5h-108l-71 390h-24q-31 -188 -81 -346q-8 -24 -22.5 -34t-45.5 -10h-110l-61 390h-84q-34 0 -34 33v92h98l-33 208h107q37 0 40 -27l24 -181h111q12 77 17 134h128q35 0 40 -27l19 -107h107q9 101 13 208h102
q16 0 23 -6.5t7 -20.5q0 -34 -4.5 -83t-9.5 -98h62q34 0 34 -33v-92h-111zM309 176q25 99 45 205h-72zM641 177q19 81 34 204h-71z" />
    <glyph glyph-name="Euro" unicode="&#x20ac;" horiz-adv-x="657" 
d="M634 55q3 -6 3 -11q0 -10 -9 -16q-33 -22 -81 -34.5t-99 -12.5q-103 0 -183 54.5t-111 165.5h-90q-34 0 -34 33v82h106v24q0 28 1 41h-73q-34 0 -34 33v82h127q23 76 67 127t98.5 76t110.5 25t106.5 -16.5t81.5 -42.5q12 -9 12 -22q0 -4 -4 -14l-43 -81q-33 24 -69 36.5
t-69 12.5q-38 0 -75 -26t-61 -75h188q34 0 34 -33v-82h-253q-2 -26 -2 -41q0 -16 1 -24h220q34 0 34 -33v-82h-227q22 -46 61 -69.5t90 -23.5q69 0 128 34z" />
    <glyph glyph-name="uni2103" unicode="&#x2103;" horiz-adv-x="1000" 
d="M321.5 505.5q-41.5 -38.5 -107.5 -38.5t-107 38t-41 98q0 39 19 72.5t52.5 53t76.5 19.5t77 -19.5t53 -53t19 -72.5q0 -59 -41.5 -97.5zM802.5 15q-45.5 -12 -93.5 -12q-90 0 -161 35.5t-113 112t-42 194.5q0 122 42.5 204t111 121.5t147.5 39.5q53 0 101 -16t78 -40
q11 -8 11 -21q0 -7 -3 -13l-41 -77q-32 22 -66.5 34t-64.5 12q-49 0 -90 -28t-65.5 -83.5t-24.5 -132.5q0 -107 48.5 -164t140.5 -57q67 0 122 32l46 -83q2 -6 2 -9q0 -11 -8 -16q-32 -21 -77.5 -33zM246.5 635.5q-12.5 13.5 -32.5 13.5t-32.5 -13.5t-12.5 -32.5
q0 -18 12 -28t33 -10t33 10t12 28q0 19 -12.5 32.5z" />
    <glyph glyph-name="uni2109" unicode="&#x2109;" horiz-adv-x="1000" 
d="M269 728.5q34 -19.5 53 -53t19 -72.5q0 -59 -41.5 -97.5t-107.5 -38.5t-107 38t-41 98q0 39 19 72.5t52.5 53t76.5 19.5t77 -19.5zM839 580h-251v-158h207q17 0 26 -9t9 -25v-84h-242v-213q0 -43 -19 -61t-73 -18h-38v688h1v1h345q35 0 35 -34v-87zM225 575q12 10 12 28
q0 19 -12.5 32.5t-32.5 13.5t-32.5 -13.5t-12.5 -32.5q0 -18 12 -28t33 -10t33 10z" />
    <glyph glyph-name="trademark" unicode="&#x2122;" horiz-adv-x="860" 
d="M328 764q37 0 37 -35v-82h-115v-195q0 -35 -14.5 -48t-51.5 -13h-49v256h-78q-37 0 -37 35v82h308zM753 764q37 0 37 -35v-277q0 -35 -15 -48t-52 -13h-43v221l-49 -112q-5 -11 -15.5 -17.5t-22.5 -6.5t-22.5 6t-14.5 17l-46 113v-160q0 -35 -14.5 -48t-51.5 -13h-44v373
h126l68 -122l70 122h89z" />
    <glyph glyph-name="uni3131" unicode="&#x3131;" 
d="M656 475v-70q0 -226 -4 -247q-9 -47 -88 -47q-10 0 -38 2v328h-382q-30 0 -30 29v91h514q28 -1 28 -29v-57z" />
    <glyph glyph-name="uni3131" unicode="&#xffa1;" 
d="M656 475v-70q0 -226 -4 -247q-9 -47 -88 -47q-10 0 -38 2v328h-382q-30 0 -30 29v91h514q28 -1 28 -29v-57z" />
    <glyph glyph-name="uni3132" unicode="&#x3132;" 
d="M336 551q34 0 34 -33v-265q0 -75 -4 -99q-4 -22 -25 -33.5t-53 -11.5q-16 0 -34 3v328l-126 1q-34 0 -34 33v77h242zM644 551q34 0 34 -33v-265q0 -75 -4 -99q-4 -22 -25 -33.5t-53 -11.5q-17 0 -35 3v329h-127q-18 0 -28.5 8.5t-10.5 24.5v77h249z" />
    <glyph glyph-name="uni3132" unicode="&#xffa2;" 
d="M336 551q34 0 34 -33v-265q0 -75 -4 -99q-4 -22 -25 -33.5t-53 -11.5q-16 0 -34 3v328l-126 1q-34 0 -34 33v77h242zM644 551q34 0 34 -33v-265q0 -75 -4 -99q-4 -22 -25 -33.5t-53 -11.5q-17 0 -35 3v329h-127q-18 0 -28.5 8.5t-10.5 24.5v77h249z" />
    <glyph glyph-name="uni3133" unicode="&#x3133;" 
d="M710 218q18 -24 18 -44q0 -13 -7 -25q-17 -29 -65 -32l-117 141q-29 -62 -65 -107q-29 -37 -65 -37q-31 0 -53 20q-21 -21 -67 -21q-9 0 -33 2v327h-158q-32 0 -32 31v80h276q32 0 32 -31v-60v-135q0 -95 -1 -127q58 74 91.5 159.5t33.5 168.5v26h72q31 0 31 -29v-16
q0 -60 -18 -130z" />
    <glyph glyph-name="uni3133" unicode="&#xffa3;" 
d="M710 218q18 -24 18 -44q0 -13 -7 -25q-17 -29 -65 -32l-117 141q-29 -62 -65 -107q-29 -37 -65 -37q-31 0 -53 20q-21 -21 -67 -21q-9 0 -33 2v327h-158q-32 0 -32 31v80h276q32 0 32 -31v-60v-135q0 -95 -1 -127q58 74 91.5 159.5t33.5 168.5v26h72q31 0 31 -29v-16
q0 -60 -18 -130z" />
    <glyph glyph-name="uni3134" unicode="&#x3134;" 
d="M266 337q2 -43 20.5 -63.5t60.5 -26.5q46 -6 107 -6q69 0 174 7q45 3 45 -34v-71q-97 -16 -219 -16q-71 0 -122 6q-85 10 -127 35t-57 77q-12 41 -12 165q0 96 6 150h88q17 0 25 -8t8 -25q0 -141 3 -190z" />
    <glyph glyph-name="uni3134" unicode="&#xffa4;" 
d="M266 337q2 -43 20.5 -63.5t60.5 -26.5q46 -6 107 -6q69 0 174 7q45 3 45 -34v-71q-97 -16 -219 -16q-71 0 -122 6q-85 10 -127 35t-57 77q-12 41 -12 165q0 96 6 150h88q17 0 25 -8t8 -25q0 -141 3 -190z" />
    <glyph glyph-name="uni3135" unicode="&#x3135;" 
d="M715 229q12 -15 12 -30q0 -11 -7 -23q-18 -28 -61 -38l-111 129q-33 -63 -72 -107q-20 -23 -48 -23q-19 0 -36 8t-28 23v-23q-35 -9 -91 -9q-32 0 -57 3q-50 6 -78 32t-35 77q-5 42 -5 127q0 98 6 186h80q16 0 23 -8t6 -26q-2 -66 -2 -115q0 -78 3 -111q2 -27 9 -40
t20 -17t39 -4q16 0 29 1.5t22 1.5q31 0 31 -33v-16q56 57 92.5 127t37.5 133h-67q-34 0 -34 33v70h281q34 0 34 -33v-70h-106q0 -38 -11 -77z" />
    <glyph glyph-name="uni3135" unicode="&#xffa5;" 
d="M715 229q12 -15 12 -30q0 -11 -7 -23q-18 -28 -61 -38l-111 129q-33 -63 -72 -107q-20 -23 -48 -23q-19 0 -36 8t-28 23v-23q-35 -9 -91 -9q-32 0 -57 3q-50 6 -78 32t-35 77q-5 42 -5 127q0 98 6 186h80q16 0 23 -8t6 -26q-2 -66 -2 -115q0 -78 3 -111q2 -27 9 -40
t20 -17t39 -4q16 0 29 1.5t22 1.5q31 0 31 -33v-16q56 57 92.5 127t37.5 133h-67q-34 0 -34 33v70h281q34 0 34 -33v-70h-106q0 -38 -11 -77z" />
    <glyph glyph-name="uni3136" unicode="&#x3136;" 
d="M682 495q17 0 25 -7.5t8 -24.5v-62h-331q-17 0 -24 8t-7 24v62h135l-14 61q11 9 29 15t35 6q12 0 21 -3q36 -10 36 -44q0 -14 -8 -35h95zM374 210v-65q-35 -9 -91 -9q-31 0 -57 3q-50 6 -78 32t-35 77q-5 42 -5 127q0 98 6 186h80q16 0 23 -8t6 -26q-2 -66 -2 -115
q0 -78 3 -111q2 -27 9 -40t20 -17t39 -4q7 0 43 3q39 5 39 -33zM645.5 339q42.5 -35 42.5 -89q0 -53 -40 -83.5t-114 -30.5t-114 30.5t-40 83.5q0 54 42.5 89t111.5 35t111.5 -35zM578 237q14 8 14 21t-15 23.5t-43 10.5t-43 -10.5t-15 -23.5t14 -21t44 -8t44 8z" />
    <glyph glyph-name="uni3136" unicode="&#xffa6;" 
d="M682 495q17 0 25 -7.5t8 -24.5v-62h-331q-17 0 -24 8t-7 24v62h135l-14 61q11 9 29 15t35 6q12 0 21 -3q36 -10 36 -44q0 -14 -8 -35h95zM374 210v-65q-35 -9 -91 -9q-31 0 -57 3q-50 6 -78 32t-35 77q-5 42 -5 127q0 98 6 186h80q16 0 23 -8t6 -26q-2 -66 -2 -115
q0 -78 3 -111q2 -27 9 -40t20 -17t39 -4q7 0 43 3q39 5 39 -33zM645.5 339q42.5 -35 42.5 -89q0 -53 -40 -83.5t-114 -30.5t-114 30.5t-40 83.5q0 54 42.5 89t111.5 35t111.5 -35zM578 237q14 8 14 21t-15 23.5t-43 10.5t-43 -10.5t-15 -23.5t14 -21t44 -8t44 8z" />
    <glyph glyph-name="uni3137" unicode="&#x3137;" 
d="M162 353q0 97 13 203h426q34 0 34 -30v-80h-349q-3 -36 -3 -75q0 -45 3 -69q3 -28 24 -43.5t72 -21.5q31 -4 84 -4q76 0 140 7q22 2 34.5 -7t12.5 -29v-65q-105 -15 -186 -15q-50 0 -95 4q-103 8 -148.5 37t-55.5 91q-6 36 -6 97z" />
    <glyph glyph-name="uni3137" unicode="&#xffa7;" 
d="M162 353q0 97 13 203h426q34 0 34 -30v-80h-349q-3 -36 -3 -75q0 -45 3 -69q3 -28 24 -43.5t72 -21.5q31 -4 84 -4q76 0 140 7q22 2 34.5 -7t12.5 -29v-65q-105 -15 -186 -15q-50 0 -95 4q-103 8 -148.5 37t-55.5 91q-6 36 -6 97z" />
    <glyph glyph-name="uni3138" unicode="&#x3138;" 
d="M677 234.5q11 -8.5 11 -25.5v-58q-58 -14 -115 -14q-33 0 -76 5q-25 3 -46 12q-54 -17 -122 -17q-17 0 -45 2q-65 6 -101 31.5t-46 81.5q-6 35 -6 92q0 53 5 111.5t14 103.5h484q34 0 34 -30v-78h-182q-5 -45 -5 -93q0 -33 3 -59q3 -27 14.5 -41t32.5 -18q19 -4 47 -4
q31 0 69 5q19 2 30 -6.5zM341 238q22 0 41 3q-4 16 -6 35q-2 17 -2 60q0 65 5 115h-131q-5 -31 -5 -97q0 -43 2 -56q4 -29 18.5 -42.5t46.5 -16.5q10 -1 31 -1z" />
    <glyph glyph-name="uni3138" unicode="&#xffa8;" 
d="M677 234.5q11 -8.5 11 -25.5v-58q-58 -14 -115 -14q-33 0 -76 5q-25 3 -46 12q-54 -17 -122 -17q-17 0 -45 2q-65 6 -101 31.5t-46 81.5q-6 35 -6 92q0 53 5 111.5t14 103.5h484q34 0 34 -30v-78h-182q-5 -45 -5 -93q0 -33 3 -59q3 -27 14.5 -41t32.5 -18q19 -4 47 -4
q31 0 69 5q19 2 30 -6.5zM341 238q22 0 41 3q-4 16 -6 35q-2 17 -2 60q0 65 5 115h-131q-5 -31 -5 -97q0 -43 2 -56q4 -29 18.5 -42.5t46.5 -16.5q10 -1 31 -1z" />
    <glyph glyph-name="uni3139" unicode="&#x3139;" 
d="M658.5 226q12.5 -9 12.5 -29v-64q-101 -17 -228 -17q-68 0 -107 4q-86 7 -127.5 31t-52.5 68q-7 27 -7 72q0 44 9 109h366v65h-336q-34 0 -34 33v76h459q31 0 31 -33v-240h-372q-2 -25 3 -39t22 -22t51 -12q31 -3 91 -3q112 0 185 8q22 2 34.5 -7z" />
    <glyph glyph-name="uni3139" unicode="&#xffa9;" 
d="M658.5 226q12.5 -9 12.5 -29v-64q-101 -17 -228 -17q-68 0 -107 4q-86 7 -127.5 31t-52.5 68q-7 27 -7 72q0 44 9 109h366v65h-336q-34 0 -34 33v76h459q31 0 31 -33v-240h-372q-2 -25 3 -39t22 -22t51 -12q31 -3 91 -3q112 0 185 8q22 2 34.5 -7z" />
    <glyph glyph-name="uni313A" unicode="&#x313a;" 
d="M663 560q32 0 32 -31v-60l-1 -222q0 -56 -3 -73q-4 -20 -24 -31t-54 -11q-17 0 -37 3v309h-137q-32 0 -32 31v85h256zM388 225.5q10 -8.5 10 -25.5v-63q-50 -11 -118 -11q-39 0 -76 5q-49 8 -74.5 27t-35.5 56q-7 24 -7 77q0 50 7 104h178v61h-148q-30 0 -30 29v74h250
q35 0 35 -35v-182q0 -39 -41 -39h-138l-1 -17q0 -23 7 -35t24 -16q27 -6 66 -6q15 0 35 1.5t29 1.5q18 2 28 -6.5z" />
    <glyph glyph-name="uni313A" unicode="&#xffaa;" 
d="M663 560q32 0 32 -31v-60l-1 -222q0 -56 -3 -73q-4 -20 -24 -31t-54 -11q-17 0 -37 3v309h-137q-32 0 -32 31v85h256zM388 225.5q10 -8.5 10 -25.5v-63q-50 -11 -118 -11q-39 0 -76 5q-49 8 -74.5 27t-35.5 56q-7 24 -7 77q0 50 7 104h178v61h-148q-30 0 -30 29v74h250
q35 0 35 -35v-182q0 -39 -41 -39h-138l-1 -17q0 -23 7 -35t24 -16q27 -6 66 -6q15 0 35 1.5t29 1.5q18 2 28 -6.5z" />
    <glyph glyph-name="uni313B" unicode="&#x313b;" 
d="M452 151.5q-36 27.5 -44 87.5q-3 24 -3 76q0 55 3 125t8 121h243q17 0 27.5 -8.5t10.5 -22.5v-370q-25 -17 -60.5 -26.5t-74.5 -9.5q-74 0 -110 27.5zM328 559q35 0 35 -35v-183q0 -39 -41 -39h-122l-1 -17q0 -23 7 -34.5t24 -15.5q27 -6 60 -6q11 0 33 2l32 1
q33 0 33 -32v-63q-50 -11 -111 -11q-36 0 -73 5q-49 8 -74.5 27t-35.5 56q-7 24 -7 77q0 49 7 103h162v62h-132q-30 0 -30 29v74h234zM531 229q13 -9 31 -9q16 0 29 6v238h-78q-3 -52 -3 -117q0 -67 4 -90q4 -19 17 -28z" />
    <glyph glyph-name="uni313B" unicode="&#xffab;" 
d="M452 151.5q-36 27.5 -44 87.5q-3 24 -3 76q0 55 3 125t8 121h243q17 0 27.5 -8.5t10.5 -22.5v-370q-25 -17 -60.5 -26.5t-74.5 -9.5q-74 0 -110 27.5zM328 559q35 0 35 -35v-183q0 -39 -41 -39h-122l-1 -17q0 -23 7 -34.5t24 -15.5q27 -6 60 -6q11 0 33 2l32 1
q33 0 33 -32v-63q-50 -11 -111 -11q-36 0 -73 5q-49 8 -74.5 27t-35.5 56q-7 24 -7 77q0 49 7 103h162v62h-132q-30 0 -30 29v74h234zM531 229q13 -9 31 -9q16 0 29 6v238h-78q-3 -52 -3 -117q0 -67 4 -90q4 -19 17 -28z" />
    <glyph glyph-name="uni313C" unicode="&#x313c;" 
d="M663 560q34 0 34 -33v-366q-22 -24 -59.5 -36.5t-81.5 -12.5q-146 0 -157 117q-5 53 -5 157q0 72 4 174h67q35 0 33 -32l-3 -81h98v113h70zM377 225.5q10 -8.5 10 -25.5v-63q-50 -11 -111 -11q-36 0 -73 5q-49 8 -74.5 27t-35.5 56q-7 24 -7 77q0 49 7 103h162v62h-132
q-30 0 -30 29v74h234q35 0 35 -35v-183q0 -39 -41 -39h-122l-1 -17q0 -23 7 -34.5t24 -15.5q27 -6 60 -6q14 0 40 2l20 1q18 2 28 -6.5zM593 226v125h-98q2 -65 4 -84q2 -27 14.5 -39t39.5 -12q25 0 40 10z" />
    <glyph glyph-name="uni313C" unicode="&#xffac;" 
d="M663 560q34 0 34 -33v-366q-22 -24 -59.5 -36.5t-81.5 -12.5q-146 0 -157 117q-5 53 -5 157q0 72 4 174h67q35 0 33 -32l-3 -81h98v113h70zM377 225.5q10 -8.5 10 -25.5v-63q-50 -11 -111 -11q-36 0 -73 5q-49 8 -74.5 27t-35.5 56q-7 24 -7 77q0 49 7 103h162v62h-132
q-30 0 -30 29v74h234q35 0 35 -35v-183q0 -39 -41 -39h-122l-1 -17q0 -23 7 -34.5t24 -15.5q27 -6 60 -6q14 0 40 2l20 1q18 2 28 -6.5zM593 226v125h-98q2 -65 4 -84q2 -27 14.5 -39t39.5 -12q25 0 40 10z" />
    <glyph glyph-name="uni313D" unicode="&#x313d;" 
d="M672 233q20 -27 20 -50q0 -9 -3 -18q-6 -15 -25.5 -25.5t-41.5 -12.5l-102 134q-28 -61 -58 -105q-26 -39 -59 -39q-30 0 -53 19q-45 -8 -83 -8q-28 0 -63 5q-49 8 -74.5 27t-35.5 56q-7 24 -7 79q0 53 7 107h162v54h-132q-30 0 -30 29v74h234q35 0 35 -35v-175
q0 -39 -41 -39h-122l-1 -18q0 -52 35 -60q25 -5 46 -5q17 0 47 4q30 3 36 -20q107 158 107 322v26h76q31 0 31 -29v-16q0 -59 -15 -129z" />
    <glyph glyph-name="uni313D" unicode="&#xffad;" 
d="M672 233q20 -27 20 -50q0 -9 -3 -18q-6 -15 -25.5 -25.5t-41.5 -12.5l-102 134q-28 -61 -58 -105q-26 -39 -59 -39q-30 0 -53 19q-45 -8 -83 -8q-28 0 -63 5q-49 8 -74.5 27t-35.5 56q-7 24 -7 79q0 53 7 107h162v54h-132q-30 0 -30 29v74h234q35 0 35 -35v-175
q0 -39 -41 -39h-122l-1 -18q0 -52 35 -60q25 -5 46 -5q17 0 47 4q30 3 36 -20q107 158 107 322v26h76q31 0 31 -29v-16q0 -59 -15 -129z" />
    <glyph glyph-name="uni313E" unicode="&#x313e;" 
d="M380 226.5q10 -8.5 10 -25.5v-62q-50 -11 -100 -11q-29 0 -66 5q-49 8 -74.5 27t-35.5 56q-7 24 -7 75q0 47 7 101h154v64h-124q-30 0 -30 29v74h220q35 0 35 -35v-185q0 -39 -41 -39h-110l-1 -16q0 -21 8 -33.5t27 -16.5q27 -5 47 -5q15 0 53 4q18 2 28 -6.5zM669 216
q10 -9 10 -25l-1 -57q-38 -7 -89 -7q-35 0 -53 2q-58 6 -90.5 30.5t-41.5 80.5q-5 38 -5 107q0 107 11 207h222q32 0 32 -32v-66h-161q-2 -28 -2 -44l-1 -22h120q33 0 33 -32v-61h-151v-1q3 -38 12 -52t32 -18q24 -4 52 -4q15 0 43 2q18 1 28 -8z" />
    <glyph glyph-name="uni313E" unicode="&#xffae;" 
d="M380 226.5q10 -8.5 10 -25.5v-62q-50 -11 -100 -11q-29 0 -66 5q-49 8 -74.5 27t-35.5 56q-7 24 -7 75q0 47 7 101h154v64h-124q-30 0 -30 29v74h220q35 0 35 -35v-185q0 -39 -41 -39h-110l-1 -16q0 -21 8 -33.5t27 -16.5q27 -5 47 -5q15 0 53 4q18 2 28 -6.5zM669 216
q10 -9 10 -25l-1 -57q-38 -7 -89 -7q-35 0 -53 2q-58 6 -90.5 30.5t-41.5 80.5q-5 38 -5 107q0 107 11 207h222q32 0 32 -32v-66h-161q-2 -28 -2 -44l-1 -22h120q33 0 33 -32v-61h-151v-1q3 -38 12 -52t32 -18q24 -4 52 -4q15 0 43 2q18 1 28 -8z" />
    <glyph glyph-name="uni313F" unicode="&#x313f;" 
d="M364.5 226q10.5 -9 10.5 -27v-62q-51 -9 -96 -9q-27 0 -55 3q-49 5 -75.5 25.5t-36.5 58.5q-7 25 -7 76q0 47 7 101h152v64h-120q-32 0 -32 31v72h214q37 0 37 -37v-181q0 -41 -43 -41h-104l-1 -17q0 -21 7.5 -33t25.5 -16q19 -4 41 -4t46 3q19 2 29.5 -7zM647 559
q34 0 34 -33v-70h-258q-34 0 -34 33v70h258zM647 236q34 0 34 -29v-71h-259q-34 0 -34 33v67h37v196h56q34 0 34 -31v-165h28l4 77q1 21 3 51t3 66h54q35 0 34 -31l-8 -163h14z" />
    <glyph glyph-name="uni313F" unicode="&#xffaf;" 
d="M364.5 226q10.5 -9 10.5 -27v-62q-51 -9 -96 -9q-27 0 -55 3q-49 5 -75.5 25.5t-36.5 58.5q-7 25 -7 76q0 47 7 101h152v64h-120q-32 0 -32 31v72h214q37 0 37 -37v-181q0 -41 -43 -41h-104l-1 -17q0 -21 7.5 -33t25.5 -16q19 -4 41 -4t46 3q19 2 29.5 -7zM647 559
q34 0 34 -33v-70h-258q-34 0 -34 33v70h258zM647 236q34 0 34 -29v-71h-259q-34 0 -34 33v67h37v196h56q34 0 34 -31v-165h28l4 77q1 21 3 51t3 66h54q35 0 34 -31l-8 -163h14z" />
    <glyph glyph-name="uni3140" unicode="&#x3140;" 
d="M682 499q17 0 25 -7.5t8 -24.5v-62h-302q-17 0 -24 8t-7 24v62h120l-14 61q11 9 29 15t35 6q12 0 21 -3q36 -10 36 -44q0 -14 -8 -35h81zM367 226q10 -8 10 -24v-64q-50 -11 -97 -11q-28 0 -65 5q-50 7 -76 27t-36 57q-7 25 -7 77q0 49 7 103h151v62h-119q-32 0 -32 31
v72h217q37 0 37 -37v-179q0 -41 -43 -41h-106l-1 -19q0 -23 7.5 -34.5t25.5 -14.5q21 -3 48 -3l52 1q17 0 27 -8zM655.5 348.5q42.5 -37.5 42.5 -95.5t-40 -91.5t-109 -33.5t-109 33.5t-40 91.5t42.5 95.5t106.5 37.5t106.5 -37.5zM588.5 231.5q13.5 10.5 13.5 28.5
t-14.5 31t-38.5 13t-38.5 -13t-14.5 -31t13.5 -28.5t39.5 -10.5t39.5 10.5z" />
    <glyph glyph-name="uni3140" unicode="&#xffb0;" 
d="M682 499q17 0 25 -7.5t8 -24.5v-62h-302q-17 0 -24 8t-7 24v62h120l-14 61q11 9 29 15t35 6q12 0 21 -3q36 -10 36 -44q0 -14 -8 -35h81zM367 226q10 -8 10 -24v-64q-50 -11 -97 -11q-28 0 -65 5q-50 7 -76 27t-36 57q-7 25 -7 77q0 49 7 103h151v62h-119q-32 0 -32 31
v72h217q37 0 37 -37v-179q0 -41 -43 -41h-106l-1 -19q0 -23 7.5 -34.5t25.5 -14.5q21 -3 48 -3l52 1q17 0 27 -8zM655.5 348.5q42.5 -37.5 42.5 -95.5t-40 -91.5t-109 -33.5t-109 33.5t-40 91.5t42.5 95.5t106.5 37.5t106.5 -37.5zM588.5 231.5q13.5 10.5 13.5 28.5
t-14.5 31t-38.5 13t-38.5 -13t-14.5 -31t13.5 -28.5t39.5 -10.5t39.5 10.5z" />
    <glyph glyph-name="uni3141" unicode="&#x3141;" 
d="M192.5 158.5q-54.5 30.5 -68.5 86.5q-10 39 -10 107q0 102 20 187h491q34 0 34 -33v-327q-110 -58 -263 -58q-32 0 -49 1q-100 6 -154.5 36.5zM400 228q83 0 139 23v179h-297q-3 -39 -3 -67q0 -48 10.5 -74.5t33 -39.5t64.5 -18q24 -3 53 -3z" />
    <glyph glyph-name="uni3141" unicode="&#xffb1;" 
d="M192.5 158.5q-54.5 30.5 -68.5 86.5q-10 39 -10 107q0 102 20 187h491q34 0 34 -33v-327q-110 -58 -263 -58q-32 0 -49 1q-100 6 -154.5 36.5zM400 228q83 0 139 23v179h-297q-3 -39 -3 -67q0 -48 10.5 -74.5t33 -39.5t64.5 -18q24 -3 53 -3z" />
    <glyph glyph-name="uni3142" unicode="&#x3142;" 
d="M626 559q34 0 34 -33v-359q-110 -53 -245 -53q-50 0 -86 5q-94 11 -142.5 50.5t-56.5 113.5q-4 36 -4 110q0 96 6 166h89q16 0 22.5 -6.5t6.5 -21.5l-1 -85h288v113h89zM415 222q67 0 122 20v100h-287v-23q1 -38 24 -61t75 -31q38 -5 66 -5z" />
    <glyph glyph-name="uni3142" unicode="&#xffb2;" 
d="M626 559q34 0 34 -33v-359q-110 -53 -245 -53q-50 0 -86 5q-94 11 -142.5 50.5t-56.5 113.5q-4 36 -4 110q0 96 6 166h89q16 0 22.5 -6.5t6.5 -21.5l-1 -85h288v113h89zM415 222q67 0 122 20v100h-287v-23q1 -38 24 -61t75 -31q38 -5 66 -5z" />
    <glyph glyph-name="uni3143" unicode="&#x3143;" 
d="M667 555q26 0 26 -26v-329q-26 -35 -75.5 -54.5t-103.5 -19.5q-35 0 -66.5 8.5t-52.5 24.5l-2 1q-19 -17 -53 -25.5t-72 -8.5q-32 0 -60.5 6t-45.5 18q-32 20 -46.5 51t-18.5 80q-1 11 -1 43q0 50 5 113.5t14 117.5h77q32 0 28 -30q-5 -38 -8 -76h137q5 56 11 106h82
q23 0 20 -27l-6 -79h128v106h83zM311 233.5q19 5.5 35 16.5q-4 30 -4 48q0 32 1 51h-135l1 -43q3 -78 66 -78q17 0 36 5.5zM521 229q20 0 38.5 6t24.5 16v98h-132v-34q1 -36 9.5 -55t27.5 -26q15 -5 32 -5z" />
    <glyph glyph-name="uni3143" unicode="&#xffb3;" 
d="M667 555q26 0 26 -26v-329q-26 -35 -75.5 -54.5t-103.5 -19.5q-35 0 -66.5 8.5t-52.5 24.5l-2 1q-19 -17 -53 -25.5t-72 -8.5q-32 0 -60.5 6t-45.5 18q-32 20 -46.5 51t-18.5 80q-1 11 -1 43q0 50 5 113.5t14 117.5h77q32 0 28 -30q-5 -38 -8 -76h137q5 56 11 106h82
q23 0 20 -27l-6 -79h128v106h83zM311 233.5q19 5.5 35 16.5q-4 30 -4 48q0 32 1 51h-135l1 -43q3 -78 66 -78q17 0 36 5.5zM521 229q20 0 38.5 6t24.5 16v98h-132v-34q1 -36 9.5 -55t27.5 -26q15 -5 32 -5z" />
    <glyph glyph-name="uni3144" unicode="&#x3144;" 
d="M702 253q20 -24 20 -46q0 -9 -5 -21q-7 -15 -25.5 -26.5t-39.5 -12.5l-109 125q-25 -51 -54 -89q-15 -20 -29.5 -28.5t-31.5 -8.5q-11 0 -16 1q-25 5 -39 19q-46 -31 -120 -31q-76 0 -115.5 30.5t-45.5 96.5q-5 55 -5 122q0 78 5 171h69q33 0 33 -30q0 -23 -1 -35l-1 -43
h100v108h68q34 0 34 -33v-288q50 71 77 150t27 150v26h72q31 0 31 -29v-16q0 -57 -16 -123zM292 247v104h-99l3 -62q1 -28 14 -40.5t41 -12.5q25 0 41 11z" />
    <glyph glyph-name="uni3144" unicode="&#xffb4;" 
d="M702 253q20 -24 20 -46q0 -9 -5 -21q-7 -15 -25.5 -26.5t-39.5 -12.5l-109 125q-25 -51 -54 -89q-15 -20 -29.5 -28.5t-31.5 -8.5q-11 0 -16 1q-25 5 -39 19q-46 -31 -120 -31q-76 0 -115.5 30.5t-45.5 96.5q-5 55 -5 122q0 78 5 171h69q33 0 33 -30q0 -23 -1 -35l-1 -43
h100v108h68q34 0 34 -33v-288q50 71 77 150t27 150v26h72q31 0 31 -29v-16q0 -57 -16 -123zM292 247v104h-99l3 -62q1 -28 14 -40.5t41 -12.5q25 0 41 11z" />
    <glyph glyph-name="uni3145" unicode="&#x3145;" 
d="M655 256q43 -24 43 -64q0 -22 -13 -40t-40 -34l-266 141q-61 -69 -145 -118q-37 -21 -70 -21q-32 0 -51.5 22.5t-21.5 58.5q124 67 196 148t72 156v51h86q18 0 24.5 -7t6.5 -27v-38q0 -59 -25 -115z" />
    <glyph glyph-name="uni3145" unicode="&#xffb5;" 
d="M655 256q43 -24 43 -64q0 -22 -13 -40t-40 -34l-266 141q-61 -69 -145 -118q-37 -21 -70 -21q-32 0 -51.5 22.5t-21.5 58.5q124 67 196 148t72 156v51h86q18 0 24.5 -7t6.5 -27v-38q0 -59 -25 -115z" />
    <glyph glyph-name="uni3146" unicode="&#x3146;" 
d="M710 243q26 -26 26 -53q0 -11 -5 -24q-7 -18 -25 -28.5t-43 -12.5l-123 121q-31 -54 -77 -103q-27 -29 -59 -29q-6 0 -16 2q-44 10 -61 49l21 23l-76 83q-26 -48 -64 -91q-37 -40 -71 -40q-9 0 -13 1q-19 3 -37 16.5t-26 31.5q158 166 158 327v40h79q37 0 37 -36
q0 -65 -16 -129l99 -111q79 121 79 233v37h79q36 0 36 -35q0 -72 -21 -150z" />
    <glyph glyph-name="uni3146" unicode="&#xffb6;" 
d="M710 243q26 -26 26 -53q0 -11 -5 -24q-7 -18 -25 -28.5t-43 -12.5l-123 121q-31 -54 -77 -103q-27 -29 -59 -29q-6 0 -16 2q-44 10 -61 49l21 23l-76 83q-26 -48 -64 -91q-37 -40 -71 -40q-9 0 -13 1q-19 3 -37 16.5t-26 31.5q158 166 158 327v40h79q37 0 37 -36
q0 -65 -16 -129l99 -111q79 121 79 233v37h79q36 0 36 -35q0 -72 -21 -150z" />
    <glyph glyph-name="uni3147" unicode="&#x3147;" 
d="M206 161q-67 62 -67 168q0 70 29.5 126.5t87.5 89.5t139 33t138.5 -33t87.5 -89.5t30 -126.5q0 -105 -67 -167.5t-189 -62.5t-189 62zM489 241.5q33 33.5 33 93.5q0 62 -33.5 100t-93.5 38t-94 -38t-34 -100q0 -60 33.5 -93.5t94.5 -33.5t94 33.5z" />
    <glyph glyph-name="uni3147" unicode="&#xffb7;" 
d="M206 161q-67 62 -67 168q0 70 29.5 126.5t87.5 89.5t139 33t138.5 -33t87.5 -89.5t30 -126.5q0 -105 -67 -167.5t-189 -62.5t-189 62zM489 241.5q33 33.5 33 93.5q0 62 -33.5 100t-93.5 38t-94 -38t-34 -100q0 -60 33.5 -93.5t94.5 -33.5t94 33.5z" />
    <glyph glyph-name="uni3148" unicode="&#x3148;" 
d="M649 240q17 -9 26 -24t9 -33q0 -45 -54 -68l-250 123q-61 -69 -141 -106q-41 -19 -68 -19q-19 0 -36 9q-18 10 -28 32t-10 50q70 26 125 67t86 88t33 89h-174q-34 0 -34 33v75h496q34 0 34 -33v-75h-193q-2 -53 -23 -105z" />
    <glyph glyph-name="uni3148" unicode="&#xffb8;" 
d="M649 240q17 -9 26 -24t9 -33q0 -45 -54 -68l-250 123q-61 -69 -141 -106q-41 -19 -68 -19q-19 0 -36 9q-18 10 -28 32t-10 50q70 26 125 67t86 88t33 89h-174q-34 0 -34 33v75h496q34 0 34 -33v-75h-193q-2 -53 -23 -105z" />
    <glyph glyph-name="uni3149" unicode="&#x3149;" 
d="M685 227q26 -23 26 -50q0 -10 -5 -20q-15 -31 -60 -38l-129 108q-26 -42 -61 -78q-34 -35 -71 -35q-27 0 -45 14.5t-26 41.5l18 17l-63 55q-25 -40 -52 -69q-20 -22 -37.5 -32t-36.5 -10q-24 0 -43 14t-28 40q68 64 106.5 133t38.5 121v5h-68q-34 0 -34 34v73h530
q35 0 35 -33v-74h-100v-5q0 -51 -15 -104zM403 271q32 46 47 89t15 79v5h-135v-5q0 -39 -13 -88z" />
    <glyph glyph-name="uni3149" unicode="&#xffb9;" 
d="M685 227q26 -23 26 -50q0 -10 -5 -20q-15 -31 -60 -38l-129 108q-26 -42 -61 -78q-34 -35 -71 -35q-27 0 -45 14.5t-26 41.5l18 17l-63 55q-25 -40 -52 -69q-20 -22 -37.5 -32t-36.5 -10q-24 0 -43 14t-28 40q68 64 106.5 133t38.5 121v5h-68q-34 0 -34 34v73h530
q35 0 35 -33v-74h-100v-5q0 -51 -15 -104zM403 271q32 46 47 89t15 79v5h-135v-5q0 -39 -13 -88z" />
    <glyph glyph-name="uni314A" unicode="&#x314a;" 
d="M640 241q21 -10 32 -25.5t11 -33.5q0 -8 -1 -12q-8 -42 -48 -62l-249 120q-56 -61 -137 -97q-37 -17 -69 -17q-19 0 -31 6q-41 20 -46 76q110 46 167 99.5t67 116.5h-190q-33 0 -33 32v76h229l-6 29l-11 59q16 12 37.5 19t42.5 7q34 0 53 -16.5t19 -44.5q0 -23 -14 -53
h185q33 0 33 -32v-76h-210q-4 -39 -20 -81z" />
    <glyph glyph-name="uni314A" unicode="&#xffba;" 
d="M640 241q21 -10 32 -25.5t11 -33.5q0 -8 -1 -12q-8 -42 -48 -62l-249 120q-56 -61 -137 -97q-37 -17 -69 -17q-19 0 -31 6q-41 20 -46 76q110 46 167 99.5t67 116.5h-190q-33 0 -33 32v76h229l-6 29l-11 59q16 12 37.5 19t42.5 7q34 0 53 -16.5t19 -44.5q0 -23 -14 -53
h185q33 0 33 -32v-76h-210q-4 -39 -20 -81z" />
    <glyph glyph-name="uni314B" unicode="&#x314b;" 
d="M630 566q13 0 20.5 -8.5t7.5 -24.5q0 -347 -4 -369q-5 -26 -24.5 -39t-55.5 -13q-16 0 -36 3v125h-401q-34 0 -34 33v82h435v93h-388q-34 0 -34 33v85h514z" />
    <glyph glyph-name="uni314B" unicode="&#xffbb;" 
d="M630 566q13 0 20.5 -8.5t7.5 -24.5q0 -347 -4 -369q-5 -26 -24.5 -39t-55.5 -13q-16 0 -36 3v125h-401q-34 0 -34 33v82h435v93h-388q-34 0 -34 33v85h514z" />
    <glyph glyph-name="uni314C" unicode="&#x314c;" 
d="M682 183v-63q-114 -12 -239 -12q-32 0 -76 2q-78 4 -125.5 21t-71.5 48.5t-33 82.5q-6 39 -6 95q0 111 18 217h477q34 0 34 -30v-77h-403q-2 -22 -4 -74h363q34 0 34 -30v-71h-394v-1q4 -34 30.5 -51.5t83.5 -21.5q37 -3 106 -3q77 0 159 5q47 3 47 -37z" />
    <glyph glyph-name="uni314C" unicode="&#xffbc;" 
d="M682 183v-63q-114 -12 -239 -12q-32 0 -76 2q-78 4 -125.5 21t-71.5 48.5t-33 82.5q-6 39 -6 95q0 111 18 217h477q34 0 34 -30v-77h-403q-2 -22 -4 -74h363q34 0 34 -30v-71h-394v-1q4 -34 30.5 -51.5t83.5 -21.5q37 -3 106 -3q77 0 159 5q47 3 47 -37z" />
    <glyph glyph-name="uni314D" unicode="&#x314d;" 
d="M157 455q-34 0 -34 33v76h511q34 0 34 -33v-76h-511zM643 215q34 0 34 -29v-78h-531q-34 0 -34 33v74h100v215h81q34 0 34 -31v-184h143q8 107 8 211h81q35 0 34 -32l-1 -38q-5 -113 -7 -141h58z" />
    <glyph glyph-name="uni314D" unicode="&#xffbd;" 
d="M157 455q-34 0 -34 33v76h511q34 0 34 -33v-76h-511zM643 215q34 0 34 -29v-78h-531q-34 0 -34 33v74h100v215h81q34 0 34 -31v-184h143q8 107 8 211h81q35 0 34 -32l-1 -38q-5 -113 -7 -141h58z" />
    <glyph glyph-name="uni314E" unicode="&#x314e;" 
d="M657 556q34 0 34 -33v-80h-557q-35 0 -35 33v80h237l-16 76q16 13 36 20.5t40 7.5q33 0 52.5 -17.5t19.5 -47.5q0 -20 -8 -39h197zM519 381.5q52 -23.5 79 -63t27 -85.5q0 -73 -59.5 -117.5t-170.5 -44.5t-170.5 44.5t-59.5 117.5q0 46 27 85.5t79 63t124 23.5t124 -23.5
zM477 194q29 16 29 45t-29.5 47.5t-81.5 18.5t-81.5 -18.5t-29.5 -47.5t29 -45t82 -16t82 16z" />
    <glyph glyph-name="uni314E" unicode="&#xffbe;" 
d="M657 556q34 0 34 -33v-80h-557q-35 0 -35 33v80h237l-16 76q16 13 36 20.5t40 7.5q33 0 52.5 -17.5t19.5 -47.5q0 -20 -8 -39h197zM519 381.5q52 -23.5 79 -63t27 -85.5q0 -73 -59.5 -117.5t-170.5 -44.5t-170.5 44.5t-59.5 117.5q0 46 27 85.5t79 63t124 23.5t124 -23.5
zM477 194q29 16 29 45t-29.5 47.5t-81.5 18.5t-81.5 -18.5t-29.5 -47.5t29 -45t82 -16t82 16z" />
    <glyph glyph-name="uni314F" unicode="&#x314f;" 
d="M437 65v-48q0 -39 -4 -55q-5 -26 -26 -38.5t-61 -12.5q-11 0 -37 2v829h94q34 0 34 -33v-266q35 6 57 6q26 0 40 -8t21 -25q5 -12 5 -33q0 -37 -18 -66h-105v-252z" />
    <glyph glyph-name="uni314F" unicode="&#xffc2;" 
d="M437 65v-48q0 -39 -4 -55q-5 -26 -26 -38.5t-61 -12.5q-11 0 -37 2v829h94q34 0 34 -33v-266q35 6 57 6q26 0 40 -8t21 -25q5 -12 5 -33q0 -37 -18 -66h-105v-252z" />
    <glyph glyph-name="uni3150" unicode="&#x3150;" 
d="M550 65v-48q0 -39 -4 -55q-5 -26 -25.5 -38.5t-58.5 -12.5q-9 0 -35 2v391h-65v-291q0 -27 -8.5 -41t-26.5 -19q-14 -5 -36 -5q-15 0 -47 4v770h84q34 0 34 -33v-260h65v313h89q34 0 34 -33v-644z" />
    <glyph glyph-name="uni3150" unicode="&#xffc3;" 
d="M550 65v-48q0 -39 -4 -55q-5 -26 -25.5 -38.5t-58.5 -12.5q-9 0 -35 2v391h-65v-291q0 -27 -8.5 -41t-26.5 -19q-14 -5 -36 -5q-15 0 -47 4v770h84q34 0 34 -33v-260h65v313h89q34 0 34 -33v-644z" />
    <glyph glyph-name="uni3151" unicode="&#x3151;" 
d="M437 280q29 5 57 5t42.5 -7.5t20.5 -23.5q5 -12 5 -33q0 -36 -18 -65h-107v-91v-48q0 -39 -4 -55q-5 -26 -26 -38.5t-61 -12.5q-11 0 -37 2v829h94q34 0 34 -33v-169q29 5 57 5t42.5 -7.5t20.5 -23.5q5 -12 5 -33q0 -36 -18 -65h-107v-136z" />
    <glyph glyph-name="uni3151" unicode="&#xffc4;" 
d="M437 280q29 5 57 5t42.5 -7.5t20.5 -23.5q5 -12 5 -33q0 -36 -18 -65h-107v-91v-48q0 -39 -4 -55q-5 -26 -26 -38.5t-61 -12.5q-11 0 -37 2v829h94q34 0 34 -33v-169q29 5 57 5t42.5 -7.5t20.5 -23.5q5 -12 5 -33q0 -36 -18 -65h-107v-136z" />
    <glyph glyph-name="uni3152" unicode="&#x3152;" 
d="M570 65v-48q0 -39 -4 -55q-5 -26 -25.5 -38.5t-58.5 -12.5q-9 0 -35 2v261h-65v-161q0 -27 -8.5 -41t-26.5 -19q-14 -5 -36 -5q-15 0 -47 4v770h84q34 0 34 -33v-120h65v173h89q34 0 34 -33v-644zM382 444v-145h65v145h-65z" />
    <glyph glyph-name="uni3152" unicode="&#xffc5;" 
d="M570 65v-48q0 -39 -4 -55q-5 -26 -25.5 -38.5t-58.5 -12.5q-9 0 -35 2v261h-65v-161q0 -27 -8.5 -41t-26.5 -19q-14 -5 -36 -5q-15 0 -47 4v770h84q34 0 34 -33v-120h65v173h89q34 0 34 -33v-644zM382 444v-145h65v145h-65z" />
    <glyph glyph-name="uni3153" unicode="&#x3153;" 
d="M497 65v-48q0 -39 -4 -55q-5 -26 -26 -38.5t-61 -12.5q-11 0 -37 2v412q-32 -2 -41 -2q-38 0 -55.5 7.5t-26.5 23.5q-8 13 -8 41q0 33 11 58h120v289h94q34 0 34 -33v-644z" />
    <glyph glyph-name="uni3153" unicode="&#xffc6;" 
d="M497 65v-48q0 -39 -4 -55q-5 -26 -26 -38.5t-61 -12.5q-11 0 -37 2v412q-32 -2 -41 -2q-38 0 -55.5 7.5t-26.5 23.5q-8 13 -8 41q0 33 11 58h120v289h94q34 0 34 -33v-644z" />
    <glyph glyph-name="uni3154" unicode="&#x3154;" 
d="M580 65v-48q0 -39 -4 -55q-5 -26 -25.5 -38.5t-59.5 -12.5q-10 0 -36 2v829h91q34 0 34 -33v-644zM361 722q34 0 34 -33v-676q0 -27 -8.5 -41t-26.5 -19q-14 -5 -38 -5q-15 0 -47 4v352q-32 -2 -42 -2q-36 0 -53 7.5t-26 23.5q-8 13 -8 42q0 35 11 60h118v287h86z" />
    <glyph glyph-name="uni3154" unicode="&#xffc7;" 
d="M580 65v-48q0 -39 -4 -55q-5 -26 -25.5 -38.5t-59.5 -12.5q-10 0 -36 2v829h91q34 0 34 -33v-644zM361 722q34 0 34 -33v-676q0 -27 -8.5 -41t-26.5 -19q-14 -5 -38 -5q-15 0 -47 4v352q-32 -2 -42 -2q-36 0 -53 7.5t-26 23.5q-8 13 -8 42q0 35 11 60h118v287h86z" />
    <glyph glyph-name="uni3155" unicode="&#x3155;" 
d="M507 65v-48q0 -39 -4 -55q-5 -26 -26 -38.5t-61 -12.5q-11 0 -37 2v272q-32 -2 -41 -2q-38 0 -55.5 7.5t-26.5 23.5q-8 13 -8 41q0 33 11 58h120v102q-32 -2 -41 -2q-38 0 -55.5 7.5t-26.5 23.5q-8 13 -8 41q0 33 11 58h120v199h94q34 0 34 -33v-644z" />
    <glyph glyph-name="uni3155" unicode="&#xffca;" 
d="M507 65v-48q0 -39 -4 -55q-5 -26 -26 -38.5t-61 -12.5q-11 0 -37 2v272q-32 -2 -41 -2q-38 0 -55.5 7.5t-26.5 23.5q-8 13 -8 41q0 33 11 58h120v102q-32 -2 -41 -2q-38 0 -55.5 7.5t-26.5 23.5q-8 13 -8 41q0 33 11 58h120v199h94q34 0 34 -33v-644z" />
    <glyph glyph-name="uni3156" unicode="&#x3156;" 
d="M590 65v-48q0 -39 -4 -55q-5 -26 -25.5 -38.5t-59.5 -12.5q-10 0 -36 2v829h91q34 0 34 -33v-644zM371 722q34 0 34 -33v-676q0 -27 -8.5 -41t-26.5 -19q-14 -5 -38 -5q-15 0 -47 4v252q-34 -2 -43 -2q-37 0 -54 7t-24 22q-8 14 -8 39q0 26 10 53h119v102q-34 -2 -43 -2
q-37 0 -54 7t-24 22q-8 14 -8 39q0 26 10 53h119v178h86z" />
    <glyph glyph-name="uni3156" unicode="&#xffcb;" 
d="M590 65v-48q0 -39 -4 -55q-5 -26 -25.5 -38.5t-59.5 -12.5q-10 0 -36 2v829h91q34 0 34 -33v-644zM371 722q34 0 34 -33v-676q0 -27 -8.5 -41t-26.5 -19q-14 -5 -38 -5q-15 0 -47 4v252q-34 -2 -43 -2q-37 0 -54 7t-24 22q-8 14 -8 39q0 26 10 53h119v102q-34 -2 -43 -2
q-37 0 -54 7t-24 22q-8 14 -8 39q0 26 10 53h119v178h86z" />
    <glyph glyph-name="uni3157" unicode="&#x3157;" 
d="M731 180q34 0 34 -33v-77h-706q-34 0 -34 33v77h300v220h105q34 0 34 -33v-187h267z" />
    <glyph glyph-name="uni3157" unicode="&#xffcc;" 
d="M731 180q34 0 34 -33v-77h-706q-34 0 -34 33v77h300v220h105q34 0 34 -33v-187h267z" />
    <glyph glyph-name="uni3158" unicode="&#x3158;" 
d="M648 65v-48q0 -39 -4 -55q-5 -26 -26 -38.5t-61 -12.5q-11 0 -37 2v829h94q34 0 34 -33v-268q36 6 58 6q27 0 41.5 -8.5t20.5 -24.5q5 -12 5 -33q0 -37 -18 -66h-107v-250zM474 209.5q11 -8.5 11 -25.5v-69q-146 -19 -341 -19q-58 0 -83 1q-22 1 -31.5 10.5t-9.5 30.5v66
q66 -2 100 -2l71 1v230h88q34 0 34 -33v-193q87 5 131 9q19 2 30 -6.5z" />
    <glyph glyph-name="uni3158" unicode="&#xffcd;" 
d="M648 65v-48q0 -39 -4 -55q-5 -26 -26 -38.5t-61 -12.5q-11 0 -37 2v829h94q34 0 34 -33v-268q36 6 58 6q27 0 41.5 -8.5t20.5 -24.5q5 -12 5 -33q0 -37 -18 -66h-107v-250zM474 209.5q11 -8.5 11 -25.5v-69q-146 -19 -341 -19q-58 0 -83 1q-22 1 -31.5 10.5t-9.5 30.5v66
q66 -2 100 -2l71 1v230h88q34 0 34 -33v-193q87 5 131 9q19 2 30 -6.5z" />
    <glyph glyph-name="uni3159" unicode="&#x3159;" 
d="M737 65v-48q0 -39 -4 -55q-5 -26 -25 -38.5t-58 -12.5q-9 0 -33 2v398h-60v-303q0 -27 -8 -41t-26 -19q-14 -5 -36 -5q-15 0 -45 4v785h81q34 0 34 -33v-258h60v301h86q34 0 34 -33v-644zM403 210q11 -8 11 -25v-74q-133 -18 -278 -18q-36 0 -51 1q-22 1 -31.5 10.5
t-9.5 30.5v70l63 -1l62 1v221h85q34 0 34 -33v-184q59 4 85 7q19 2 30 -6z" />
    <glyph glyph-name="uni3159" unicode="&#xffce;" 
d="M737 65v-48q0 -39 -4 -55q-5 -26 -25 -38.5t-58 -12.5q-9 0 -33 2v398h-60v-303q0 -27 -8 -41t-26 -19q-14 -5 -36 -5q-15 0 -45 4v785h81q34 0 34 -33v-258h60v301h86q34 0 34 -33v-644zM403 210q11 -8 11 -25v-74q-133 -18 -278 -18q-36 0 -51 1q-22 1 -31.5 10.5
t-9.5 30.5v70l63 -1l62 1v221h85q34 0 34 -33v-184q59 4 85 7q19 2 30 -6z" />
    <glyph glyph-name="uni315A" unicode="&#x315a;" 
d="M720 65v-48q0 -39 -4 -55q-5 -26 -26 -38.5t-61 -12.5q-11 0 -37 2v829h94q34 0 34 -33v-644zM539 210.5q11 -8.5 11 -25.5v-72q-74 -10 -171 -15t-190 -5q-56 0 -81 1q-22 1 -31.5 10.5t-9.5 30.5v70q70 -2 106 -2l74 1v229h88q34 0 34 -33v-192q57 2 140 9
q19 2 30 -6.5z" />
    <glyph glyph-name="uni315A" unicode="&#xffcf;" 
d="M720 65v-48q0 -39 -4 -55q-5 -26 -26 -38.5t-61 -12.5q-11 0 -37 2v829h94q34 0 34 -33v-644zM539 210.5q11 -8.5 11 -25.5v-72q-74 -10 -171 -15t-190 -5q-56 0 -81 1q-22 1 -31.5 10.5t-9.5 30.5v70q70 -2 106 -2l74 1v229h88q34 0 34 -33v-192q57 2 140 9
q19 2 30 -6.5z" />
    <glyph glyph-name="uni315B" unicode="&#x315b;" 
d="M731 180q34 0 34 -33v-77h-706q-34 0 -34 33v77h170v200h95q34 0 34 -33v-167h138v200h95q34 0 34 -33v-167h140z" />
    <glyph glyph-name="uni315B" unicode="&#xffd2;" 
d="M731 180q34 0 34 -33v-77h-706q-34 0 -34 33v77h170v200h95q34 0 34 -33v-167h138v200h95q34 0 34 -33v-167h140z" />
    <glyph glyph-name="uni315C" unicode="&#x315c;" 
d="M765 193h-302v-94v-42q0 -33 -3 -46q-10 -49 -92 -49q-26 0 -40 2v229h-269q-34 0 -34 33v75h706q34 0 34 -33v-75z" />
    <glyph glyph-name="uni315C" unicode="&#xffd3;" 
d="M765 193h-302v-94v-42q0 -33 -3 -46q-10 -49 -92 -49q-26 0 -40 2v229h-269q-34 0 -34 33v75h706q34 0 34 -33v-75z" />
    <glyph glyph-name="uni315D" unicode="&#x315d;" 
d="M717 65v-48q0 -39 -4 -55q-5 -26 -26 -38.5t-61 -12.5q-11 0 -37 2v154q-32 -2 -42 -2q-40 0 -58.5 7.5t-26.5 21.5q-7 13 -7 36q0 30 10 53h124v559h94q34 0 34 -33v-644zM370 76v-31q0 -40 -3 -55q-10 -49 -90 -49q-10 0 -36 2v304h-42q-66 0 -94 1q-22 1 -31.5 10.5
t-9.5 30.5v70q74 -2 112 -2q182 0 330 14q19 2 30 -6.5t11 -25.5v-72q-76 -10 -177 -15v-176z" />
    <glyph glyph-name="uni315D" unicode="&#xffd4;" 
d="M717 65v-48q0 -39 -4 -55q-5 -26 -26 -38.5t-61 -12.5q-11 0 -37 2v154q-32 -2 -42 -2q-40 0 -58.5 7.5t-26.5 21.5q-7 13 -7 36q0 30 10 53h124v559h94q34 0 34 -33v-644zM370 76v-31q0 -40 -3 -55q-10 -49 -90 -49q-10 0 -36 2v304h-42q-66 0 -94 1q-22 1 -31.5 10.5
t-9.5 30.5v70q74 -2 112 -2q182 0 330 14q19 2 30 -6.5t11 -25.5v-72q-76 -10 -177 -15v-176z" />
    <glyph glyph-name="uni315E" unicode="&#x315e;" 
d="M730 65v-48q0 -39 -4 -55q-5 -26 -25 -38.5t-58 -12.5q-9 0 -33 2v829h86q34 0 34 -33v-644zM526 723q34 0 34 -33v-691q0 -27 -8 -41t-26 -19q-14 -5 -36 -5q-15 0 -45 4v168q-16 -2 -41 -2q-30 0 -45.5 7t-22.5 21q-6 12 -6 35q0 27 9 51h106v505h81zM283 98v-42
q0 -39 -4 -54q-12 -51 -89 -51q-9 0 -31 2v305q-58 0 -82 1q-22 1 -31.5 10.5t-9.5 30.5v66q22 -1 66 -1q157 0 263 12q19 2 30 -6t11 -25v-70q-57 -7 -123 -12v-166z" />
    <glyph glyph-name="uni315E" unicode="&#xffd5;" 
d="M730 65v-48q0 -39 -4 -55q-5 -26 -25 -38.5t-58 -12.5q-9 0 -33 2v829h86q34 0 34 -33v-644zM526 723q34 0 34 -33v-691q0 -27 -8 -41t-26 -19q-14 -5 -36 -5q-15 0 -45 4v168q-16 -2 -41 -2q-30 0 -45.5 7t-22.5 21q-6 12 -6 35q0 27 9 51h106v505h81zM283 98v-42
q0 -39 -4 -54q-12 -51 -89 -51q-9 0 -31 2v305q-58 0 -82 1q-22 1 -31.5 10.5t-9.5 30.5v66q22 -1 66 -1q157 0 263 12q19 2 30 -6t11 -25v-70q-57 -7 -123 -12v-166z" />
    <glyph glyph-name="uni315F" unicode="&#x315f;" 
d="M712 65v-48q0 -39 -4 -55q-5 -26 -26 -38.5t-61 -12.5q-11 0 -37 2v829h94q34 0 34 -33v-644zM531 344.5q11 -8.5 11 -25.5v-76q-76 -10 -177 -15v-164v-31q0 -38 -3 -53q-6 -26 -28.5 -38t-63.5 -12q-10 0 -34 2v292l-60 -1q-30 0 -76 2q-22 1 -31.5 10.5t-9.5 29.5v74
q74 -2 112 -2q182 0 330 14q19 2 30 -6.5z" />
    <glyph glyph-name="uni315F" unicode="&#xffd6;" 
d="M712 65v-48q0 -39 -4 -55q-5 -26 -26 -38.5t-61 -12.5q-11 0 -37 2v829h94q34 0 34 -33v-644zM531 344.5q11 -8.5 11 -25.5v-76q-76 -10 -177 -15v-164v-31q0 -38 -3 -53q-6 -26 -28.5 -38t-63.5 -12q-10 0 -34 2v292l-60 -1q-30 0 -76 2q-22 1 -31.5 10.5t-9.5 29.5v74
q74 -2 112 -2q182 0 330 14q19 2 30 -6.5z" />
    <glyph glyph-name="uni3160" unicode="&#x3160;" 
d="M765 193h-171v-113v-38q0 -30 -3 -42q-10 -49 -93 -49q-10 0 -38 2v240h-130v-113v-34.5t-3 -45.5q-10 -49 -93 -49q-10 0 -38 2v240h-137q-34 0 -34 33v75h706q34 0 34 -33v-75z" />
    <glyph glyph-name="uni3160" unicode="&#xffd7;" 
d="M765 193h-171v-113v-38q0 -30 -3 -42q-10 -49 -93 -49q-10 0 -38 2v240h-130v-113v-34.5t-3 -45.5q-10 -49 -93 -49q-10 0 -38 2v240h-137q-34 0 -34 33v75h706q34 0 34 -33v-75z" />
    <glyph glyph-name="uni3161" unicode="&#x3161;" 
d="M59 70q-34 0 -34 33v82h706q34 0 34 -33v-82h-706z" />
    <glyph glyph-name="uni3161" unicode="&#xffda;" 
d="M59 70q-34 0 -34 33v82h706q34 0 34 -33v-82h-706z" />
    <glyph glyph-name="uni3162" unicode="&#x3162;" 
d="M686 742q34 0 34 -33v-644v-48q0 -39 -4 -55q-5 -26 -26 -38.5t-61 -12.5q-11 0 -37 2v829h94zM76.5 111.5q-9.5 9.5 -9.5 29.5v74q74 -2 112 -2q182 0 330 14q19 2 30 -6.5t11 -25.5v-76q-73 -10 -167 -15t-182 -5q-37 0 -93 2q-22 1 -31.5 10.5z" />
    <glyph glyph-name="uni3162" unicode="&#xffdb;" 
d="M686 742q34 0 34 -33v-644v-48q0 -39 -4 -55q-5 -26 -26 -38.5t-61 -12.5q-11 0 -37 2v829h94zM76.5 111.5q-9.5 9.5 -9.5 29.5v74q74 -2 112 -2q182 0 330 14q19 2 30 -6.5t11 -25.5v-76q-73 -10 -167 -15t-182 -5q-37 0 -93 2q-22 1 -31.5 10.5z" />
    <glyph glyph-name="uni3163" unicode="&#x3163;" 
d="M456 742q34 0 34 -33v-644v-48q0 -39 -4 -55q-5 -26 -26 -38.5t-61 -12.5q-11 0 -37 2v829h94z" />
    <glyph glyph-name="uni3163" unicode="&#xffdc;" 
d="M456 742q34 0 34 -33v-644v-48q0 -39 -4 -55q-5 -26 -26 -38.5t-61 -12.5q-11 0 -37 2v829h94z" />
    <glyph glyph-name="uniAC00" unicode="&#xac00;" 
d="M647 95v-48q0 -39 -4 -55q-5 -26 -26 -38.5t-61 -12.5q-11 0 -37 2v829h94q34 0 34 -33v-276q34 6 57 6q26 0 40 -8t21 -25q5 -12 5 -33q0 -37 -18 -66h-105v-242zM396 673q16 0 23.5 -6t7.5 -21v-48q0 -132 -69.5 -247t-177.5 -185q-38 -24 -68 -24q-17 0 -33 8
q-15 8 -27 24.5t-17 36.5q117 68 188 164.5t78 187.5h-207q-33 0 -33 32v78h335z" />
    <glyph glyph-name="uniAC01" unicode="&#xac01;" 
d="M770 521q0 -37 -18 -66h-105v-43q0 -36 -4 -51q-5 -26 -25.5 -38.5t-60.5 -12.5q-10 0 -36 2v460h92q34 0 34 -33v-158q34 6 57 6q26 0 40 -8t21 -25q5 -12 5 -33zM416 661q0 -65 -34.5 -127.5t-91 -113t-122.5 -83.5q-39 -19 -65 -19q-17 0 -31 9q-15 9 -24.5 27.5
t-11.5 37.5q100 47 169.5 112t82.5 118h-191q-33 0 -33 32v78h321q31 0 31 -31v-40zM640 162l1 -76q0 -70 -5 -99q-9 -51 -84 -51q-23 0 -36 2v209h-341q-34 0 -34 33v77h465q34 0 34 -33v-62z" />
    <glyph glyph-name="uniAC04" unicode="&#xac04;" 
d="M770 491q0 -37 -18 -66h-105v-95v-48q0 -39 -4 -55q-5 -26 -25.5 -38.5t-60.5 -12.5q-10 0 -36 2v594h92q34 0 34 -33v-188q34 6 57 6q26 0 40 -8t21 -25q5 -12 5 -33zM416 651q0 -69 -34 -135.5t-90 -120t-121 -88.5q-39 -20 -65 -20q-19 0 -32 9q-15 9 -25 26.5
t-13 36.5q103 52 172 123t80 131h-191q-33 0 -33 32v78h321q31 0 31 -30v-42zM626 83q33 0 33 -37v-70q-89 -17 -210 -17q-81 0 -144 9q-67 10 -102 37t-46 73q-9 35 -9 108q0 49 4 78h86q33 0 33 -34q0 -63 6 -95q6 -45 71 -56q48 -8 111 -8q83 0 157 11q3 1 10 1z" />
    <glyph glyph-name="uniAC07" unicode="&#xac07;" 
d="M770 521q0 -37 -18 -66h-105v-30q0 -42 -4 -59q-5 -26 -25.5 -38.5t-60.5 -12.5q-10 0 -36 2v455h92q34 0 34 -33v-158q34 6 57 6q26 0 40 -8t21 -25q5 -12 5 -33zM416 662q0 -66 -34.5 -129.5t-91 -114.5t-121.5 -84q-38 -19 -65 -19q-18 0 -32 9t-24 27t-12 37
q101 48 170.5 114.5t81.5 120.5h-191q-33 0 -33 32v78h321q31 0 31 -30v-41zM642 45.5q12 -9.5 12 -30.5v-66q-106 -16 -209 -16q-74 0 -130 7q-84 11 -124.5 41t-50.5 81q-6 27 -6 63q0 71 19 152h448q34 0 34 -30v-79h-372q-4 -22 -4 -36t4 -32q5 -21 26 -33t66 -18
q43 -5 90 -5q64 0 163 9q22 2 34 -7.5z" />
    <glyph glyph-name="uniAC08" unicode="&#xac08;" 
d="M770 541q0 -37 -18 -66h-105v-31.5t-4 -42.5q-5 -26 -25.5 -38.5t-60.5 -12.5q-10 0 -36 2v420h92q34 0 34 -33v-138q34 6 57 6q26 0 40 -8t21 -25q5 -12 5 -33zM416 667q0 -62 -35 -121.5t-92 -107.5t-123 -79q-37 -18 -64 -18q-20 0 -32 9q-15 10 -24 28.5t-11 37.5
q98 43 167.5 103t83.5 108h-189q-33 0 -33 32v78h321q31 0 31 -31v-39zM647 45.5q11 -7.5 11 -23.5v-67q-109 -15 -225 -15q-87 0 -152 9q-53 8 -83.5 27.5t-42.5 52.5q-10 26 -10 69q0 44 10 84h363v44h-320q-25 0 -38 12t-13 33v51h456q34 0 34 -33v-159q0 -38 -40 -38
h-331q0 -18 8 -27.5t31 -13.5q40 -8 131 -8t181 8q19 2 30 -5.5z" />
    <glyph glyph-name="uniAC09" unicode="&#xac09;" 
d="M770 561q0 -37 -18 -66h-105v-30q0 -42 -4 -59q-5 -26 -25.5 -38.5t-60.5 -12.5q-10 0 -36 2v415h92q34 0 34 -33v-118q34 6 57 6q26 0 40 -8t21 -25q5 -12 5 -33zM416 673q0 -63 -35 -123.5t-92 -109t-122 -79.5q-39 -18 -65 -18q-18 0 -32 9t-23 27.5t-11 37.5
q99 44 168.5 105.5t82.5 110.5h-190q-33 0 -33 32v78h321q31 0 31 -31v-39zM392.5 29.5q9.5 -7.5 9.5 -23.5v-57q-46 -9 -109 -9q-35 0 -62 3q-89 12 -107 73q-8 24 -8 70q0 45 8 85h159v51h-110q-23 0 -35.5 10.5t-12.5 30.5v54h224q34 0 34 -33v-162q0 -38 -40 -38h-118
q-2 -22 4.5 -32.5t25.5 -14.5q18 -3 51 -3q25 0 59 2q18 1 27.5 -6.5zM640 225v-71q0 -148 -4 -166q-10 -49 -80 -49q-20 0 -31 2v264h-91q-32 0 -32 31v80h206q32 0 32 -31v-60z" />
    <glyph glyph-name="uniAC0A" unicode="&#xac0a;" 
d="M770 546q0 -37 -18 -66h-105q0 -49 -4 -69q-5 -26 -25.5 -38.5t-60.5 -12.5q-10 0 -36 2v410h92q34 0 34 -33v-133q34 6 57 6q26 0 40 -8t21 -25q5 -12 5 -33zM416 673q0 -62 -35 -121.5t-92 -107.5t-123 -79q-37 -18 -64 -18q-20 0 -32 9q-15 10 -24 28.5t-11 37.5
q98 43 167.5 103t83.5 108h-189q-33 0 -33 32v78h321q31 0 31 -31v-39zM378 29q10 -8 10 -24v-57q-39 -8 -95 -8q-31 0 -57 3q-88 11 -107 73q-9 27 -9 70q0 40 9 87h143v53h-100q-20 0 -31.5 10t-11.5 29v56h205q35 0 35 -33v-165q0 -38 -41 -38h-99q-2 -23 4.5 -33.5
t25.5 -14.5q17 -3 42 -3q19 0 49 2q18 1 28 -7zM608 321q17 0 27.5 -8.5t10.5 -22.5v-325q-48 -33 -116 -33q-121 0 -136 99q-6 38 -6 97q0 97 13 193h207zM493 227q-4 -56 -4 -89q0 -50 5 -82q2 -12 11.5 -18t21.5 -6t18 3v192h-52z" />
    <glyph glyph-name="uniAC0B" unicode="&#xac0b;" 
d="M770 544q0 -37 -18 -66h-105v-30.5t-4 -41.5q-5 -26 -25.5 -38.5t-60.5 -12.5q-10 0 -36 2v415h92q34 0 34 -33v-135q34 6 57 6q26 0 40 -8t21 -25q5 -12 5 -33zM416 673q0 -62 -35 -121.5t-92 -107.5t-123 -79q-37 -18 -64 -18q-20 0 -32 9q-15 10 -24 28.5t-11 37.5
q98 43 167.5 103t83.5 108h-189q-33 0 -33 32v78h321q31 0 31 -31v-39zM361 29q10 -8 10 -24v-57q-45 -9 -92 -9q-26 0 -50 3q-87 11 -107 74q-9 27 -9 70q0 41 9 86h136v54h-95q-41 0 -41 37v58h195q35 0 35 -33v-165q0 -39 -41 -39h-90q-2 -22 4.5 -33t25.5 -14
q18 -3 46 -3q24 0 36 1q18 2 28 -6zM612 321q34 0 34 -33v-316q-19 -18 -52.5 -27.5t-69.5 -9.5q-131 0 -144 105q-7 42 -7 134q0 75 5 147h67q33 0 33 -32v-59h63v91h71zM517 33q20 0 24 9v89h-63l1 -34q1 -28 5 -41t13 -18q6 -5 20 -5z" />
    <glyph glyph-name="uniAC10" unicode="&#xac10;" 
d="M770 530q0 -37 -18 -66h-105v-45q0 -37 -4 -53q-5 -26 -25.5 -38.5t-60.5 -12.5q-10 0 -36 2v455h92q34 0 34 -33v-149q34 6 57 6q26 0 40 -8t21 -25q5 -12 5 -33zM416 652q0 -66 -34.5 -129.5t-91 -114.5t-121.5 -84q-38 -19 -65 -19q-18 0 -32 9t-24 27t-12 37
q101 48 170.5 114.5t81.5 120.5h-191q-33 0 -33 32v78h321q31 0 31 -30v-41zM607 277q32 0 32 -31v-239q-39 -35 -107 -55t-148 -20q-23 0 -35 1q-84 5 -135 35.5t-67 85.5q-9 35 -9 78q0 74 19 145h450zM260 172q-2 -22 -2 -31q0 -39 15.5 -60t51.5 -30q29 -7 69 -7
q36 0 68.5 6t53.5 18v104h-256z" />
    <glyph glyph-name="uniAC11" unicode="&#xac11;" 
d="M770 521q0 -37 -18 -66h-105v-31.5t-4 -42.5q-5 -26 -25.5 -38.5t-60.5 -12.5q-10 0 -36 2v440h92q34 0 34 -33v-158q34 6 57 6q26 0 40 -8t21 -25q5 -12 5 -33zM416 662q0 -65 -34.5 -126.5t-91 -111.5t-122.5 -82q-37 -18 -65 -18q-19 0 -32 9q-14 9 -23.5 27.5
t-11.5 37.5q100 46 169.5 110t81.5 115h-190q-33 0 -33 32v78h321q31 0 31 -31v-40zM607 288q33 0 33 -32v-256q-36 -30 -103.5 -47.5t-146.5 -17.5q-32 0 -64 3q-149 15 -181 117q-10 36 -10 99q0 64 10 134h87q15 0 21 -6.5t6 -19.5q0 -16 -1 -24l-1 -24h262v74h88z
M396 39q33 0 66 5t57 14v58h-259l1 -8q3 -28 21.5 -43t56.5 -22q23 -4 57 -4z" />
    <glyph glyph-name="uniAC12" unicode="&#xac12;" 
d="M770 521q0 -37 -18 -66h-105v-31.5t-4 -42.5q-5 -26 -25.5 -38.5t-60.5 -12.5q-10 0 -36 2v440h92q34 0 34 -33v-158q34 6 57 6q26 0 40 -8t21 -25q5 -12 5 -33zM416 662q0 -66 -34.5 -129.5t-91 -114.5t-121.5 -84q-38 -19 -65 -19q-18 0 -32 9t-24 27t-12 37
q101 48 170.5 114.5t81.5 120.5h-191q-33 0 -33 32v78h321q31 0 31 -30v-41zM663 56q22 -29 22 -51q0 -11 -4 -19q-6 -16 -26 -27t-41 -13l-73 93q-17 -37 -40 -66q-22 -28 -53 -28q-33 0 -56 23q-20 -15 -50 -22.5t-62 -7.5q-71 0 -107.5 26.5t-43.5 82.5q-6 48 -6 121
q0 70 4 123h68q33 0 33 -32l-1 -45h74v77h71q34 0 34 -33v-234q41 57 63.5 123.5t22.5 112.5v27h70q29 0 29 -27v-16q0 -37 -9 -81zM272 35q9 0 17 2.5t12 6.5v75h-73q0 -16 1 -22q1 -29 6.5 -41.5t19.5 -17.5q8 -3 17 -3z" />
    <glyph glyph-name="uniAC13" unicode="&#xac13;" 
d="M770 491q0 -37 -18 -66h-105v-45v-48q0 -39 -4 -55q-5 -26 -25.5 -38.5t-58.5 -12.5q-24 0 -38 2v544h92q34 0 34 -33v-188q34 6 57 6q26 0 40 -8t21 -25q5 -12 5 -33zM107 273q-16 0 -32 9q-15 9 -25.5 27t-12.5 36q104 54 172.5 129t78.5 139h-191q-33 0 -33 32v78h321
q31 0 31 -30v-42q0 -72 -33.5 -140.5t-89 -124t-121.5 -92.5q-38 -21 -65 -21zM629 81q47 -21 47 -59q0 -49 -48 -71l-246 109q-53 -50 -134 -88q-40 -17 -66 -17q-14 0 -32 7q-41 20 -44 73q120 50 184 103.5t65 105.5v33h82q18 0 25.5 -8.5t7.5 -27.5q0 -43 -17 -82z" />
    <glyph glyph-name="uniAC14" unicode="&#xac14;" 
d="M770 521q0 -37 -18 -66h-105v-30q0 -42 -4 -59q-5 -26 -25.5 -38.5t-60.5 -12.5q-10 0 -36 2v455h92q34 0 34 -33v-158q34 6 57 6q26 0 40 -8t21 -25q5 -12 5 -33zM105 301q-19 0 -31 9q-15 9 -25.5 27t-12.5 37q102 50 171 120t81 129h-191q-33 0 -33 32v78h321
q31 0 31 -30v-42q0 -68 -34 -133.5t-90 -118.5t-122 -88q-40 -20 -65 -20zM682 71q24 -18 24 -44q0 -14 -5 -24q-7 -16 -22.5 -27t-36.5 -14l-122 87q-28 -41 -58 -67q-31 -30 -67 -30q-5 0 -17 2q-19 4 -34 17.5t-22 31.5l20 17l-63 50q-28 -46 -65 -75q-32 -26 -64 -26
q-25 0 -44.5 14t-27.5 38q68 56 106 114t38 121v28h75q34 0 34 -33q0 -35 -8 -72l94 -79q59 79 59 158v23h75q33 0 33 -32q0 -45 -14 -93z" />
    <glyph glyph-name="uniAC15" unicode="&#xac15;" 
d="M770 506q0 -37 -18 -66h-105v-6v-48q0 -39 -4 -55q-5 -26 -25.5 -38.5t-60.5 -12.5q-10 0 -36 2v490h92q34 0 34 -33v-173q34 6 57 6q26 0 40 -8t21 -25q5 -12 5 -33zM416 647q0 -69 -34 -135.5t-90 -120t-121 -88.5q-39 -20 -65 -20q-19 0 -32 9q-15 9 -25 26.5
t-13 36.5q103 52 172 123t80 131h-191q-33 0 -33 32v78h321q31 0 31 -30v-42zM548.5 252.5q59.5 -24.5 89 -65.5t29.5 -91q0 -76 -67 -120t-198 -44q-132 0 -199 44t-67 120q0 50 29.5 91t89.5 65.5t147 24.5t146.5 -24.5zM537 104q0 30 -34.5 50t-100.5 20t-101 -20
t-35 -50q0 -64 136 -64q135 0 135 64z" />
    <glyph glyph-name="uniAC16" unicode="&#xac16;" 
d="M770 531q0 -37 -18 -66h-105v-43q0 -36 -4 -51q-5 -26 -25.5 -38.5t-60.5 -12.5q-10 0 -36 2v450h92q34 0 34 -33v-148q34 6 57 6q26 0 40 -8t21 -25q5 -12 5 -33zM416 662q0 -66 -34.5 -129.5t-91 -114.5t-121.5 -84q-38 -19 -65 -19q-18 0 -32 9t-24 27t-12 37
q101 48 170.5 114.5t81.5 120.5h-191q-33 0 -33 32v78h321q31 0 31 -30v-41zM616 65q27 -9 39 -23t12 -34t-11 -38.5t-28 -27.5l-246 83q-53 -46 -141 -78q-25 -9 -47 -9q-23 0 -40 11q-15 8 -24.5 28t-10.5 46q92 28 152 67t67 72h-167q-32 0 -32 31v80h484q32 0 32 -31
v-80h-194q-2 -22 -9 -41z" />
    <glyph glyph-name="uniAC17" unicode="&#xac17;" 
d="M770 541q0 -37 -18 -66h-105v-26v-48q0 -39 -4 -55q-5 -26 -25.5 -38.5t-60.5 -12.5q-10 0 -36 2v475h92q34 0 34 -33v-138q34 6 57 6q26 0 40 -8t21 -25q5 -12 5 -33zM416 662q0 -66 -34.5 -129.5t-91 -114.5t-121.5 -84q-38 -19 -65 -19q-18 0 -32 9t-24 27t-12 37
q101 48 170.5 114.5t81.5 120.5h-191q-33 0 -33 32v78h321q31 0 31 -30v-41zM626 62q46 -15 46 -55q0 -42 -38 -64l-259 83q-60 -46 -137 -71q-31 -9 -53 -9t-40 9q-16 8 -25.5 28.5t-8.5 45.5q56 13 107.5 34.5t83.5 45t32 41.5v5h-170q-34 0 -34 33v65h208q-5 22 -16 63
q33 24 77 24q22 0 34 -5q16 -5 24.5 -17t8.5 -28t-9 -37h169q34 0 34 -33v-65h-202v-7q0 -16 -6 -31z" />
    <glyph glyph-name="uniAC19" unicode="&#xac19;" 
d="M770 550q0 -37 -18 -66h-105v-31t-4 -42q-5 -26 -25.5 -38.5t-60.5 -12.5q-10 0 -36 2v410h92q34 0 34 -33v-129q34 6 57 6q26 0 40 -8t21 -25q5 -12 5 -33zM416 672q0 -65 -34.5 -126.5t-91 -111.5t-122.5 -82q-37 -18 -65 -18q-19 0 -32 9q-14 9 -23.5 27.5t-11.5 37.5
q100 46 169.5 110t81.5 115h-190q-33 0 -33 32v78h321q31 0 31 -31v-40zM645.5 33.5q10.5 -7.5 10.5 -22.5v-65q-84 -12 -194 -12q-67 0 -107 4q-92 8 -142 39.5t-63 89.5q-8 37 -8 79q0 81 22 166h440q17 0 25 -7.5t8 -24.5v-67h-382q-2 -11 -4 -39h338q33 0 33 -33v-60
h-360q10 -17 32 -26.5t60 -14.5t120 -5q88 0 141 4q20 2 30.5 -5.5z" />
    <glyph glyph-name="uniAC1A" unicode="&#xac1a;" 
d="M770 521q0 -37 -18 -66h-105q0 -49 -4 -69q-5 -26 -25.5 -38.5t-60.5 -12.5q-10 0 -36 2v435h92q34 0 34 -33v-158q34 6 57 6q26 0 40 -8t21 -25q5 -12 5 -33zM416 663q0 -61 -35 -120t-92 -106.5t-123 -77.5q-40 -17 -65 -17q-18 0 -32 9q-14 10 -23 28.5t-11 37.5
q97 42 166.5 100.5t84.5 105.5h-189q-33 0 -33 32v78h321q31 0 31 -31v-39zM613 309q34 0 34 -33v-77h-486q-34 0 -34 33v77h486zM620 51q34 0 34 -33v-75h-500q-34 0 -34 33v75h93v125h84q34 0 34 -31v-94h113q6 76 7 123h84q34 0 34 -31q0 -34 -7 -92h58z" />
    <glyph glyph-name="uniAC1B" unicode="&#xac1b;" 
d="M770 541q0 -37 -18 -66h-105v-30q0 -42 -4 -59q-5 -26 -25.5 -38.5t-60.5 -12.5q-10 0 -36 2v435h92q34 0 34 -33v-138q34 6 57 6q26 0 40 -8t21 -25q5 -12 5 -33zM416 672q0 -65 -34.5 -126.5t-91 -111.5t-122.5 -82q-37 -18 -65 -18q-19 0 -32 9q-14 9 -23.5 27.5
t-11.5 37.5q100 46 169.5 110t81.5 115h-190q-33 0 -33 32v78h321q31 0 31 -31v-40zM620 281q34 0 34 -33v-62l-499 2q-34 0 -34 33v60h213l-14 54q31 25 75 25q22 0 38 -6q32 -11 32 -45q0 -15 -5 -28h160zM523 149q52 -17 77 -44.5t25 -60.5q0 -112 -231 -112
q-232 0 -232 112q0 33 25 60.5t77 44.5t130 17q77 0 129 -17zM485.5 36.5q24.5 4.5 24.5 15.5q0 25 -116 25q-117 0 -117 -25q0 -11 24.5 -15.5t92.5 -4.5q67 0 91.5 4.5z" />
    <glyph glyph-name="uniAC1C" unicode="&#xac1c;" 
d="M720 95v-48q0 -39 -4 -55q-5 -26 -25.5 -38.5t-58.5 -12.5q-9 0 -35 2v388h-65v-288q0 -27 -8.5 -41t-26.5 -19q-14 -5 -36 -5q-15 0 -47 4v770h84q34 0 34 -33v-263h65v316h89q34 0 34 -33v-644zM330 673q16 0 23.5 -7t7.5 -22v-46q0 -88 -26 -174t-70 -158t-98 -120
q-34 -31 -63 -31q-13 0 -26 6q-17 6 -31 20t-20 31q96 82 151 188.5t60 202.5h-153q-33 0 -33 32v78h278z" />
    <glyph glyph-name="uniAC1D" unicode="&#xac1d;" 
d="M465 288q-15 0 -45 4v470h81q34 0 34 -33v-138h65v181h86q34 0 34 -33v-305v-48q0 -39 -4 -55q-5 -26 -25 -38.5t-58 -12.5q-9 0 -33 2v184h-65v-113q0 -27 -8 -41t-26 -19q-14 -5 -36 -5zM371 654q0 -63 -26 -129t-68 -122t-88 -92q-38 -26 -61 -26q-9 0 -21 5
q-17 8 -29 23t-15 31q75 64 125 139t58 131h-122q-33 0 -33 32v78h249q31 0 31 -33v-37zM721 147l1 -69q0 -62 -5 -91q-9 -51 -84 -51q-23 0 -36 2v194h-381q-34 0 -34 33v77h505q34 0 34 -33v-62z" />
    <glyph glyph-name="uniAC20" unicode="&#xac20;" 
d="M465 193q-15 0 -45 4v565h81q34 0 34 -33v-178h65v221h86q34 0 34 -33v-419v-48q0 -39 -4 -55q-5 -26 -25 -38.5t-57 -12.5q-8 0 -34 2v258h-65v-168q0 -27 -8 -41t-26 -19q-14 -5 -36 -5zM361 647q0 -68 -26.5 -138t-70 -129t-91.5 -97q-36 -27 -61 -27q-11 0 -23 5
q-16 7 -28.5 22.5t-16.5 31.5q81 67 133 148t60 145h-133q-33 0 -33 32v78h259q31 0 31 -32v-39zM690 83q33 0 33 -36v-71q-102 -18 -226 -18q-86 0 -154 9q-65 9 -99 36t-45 71q-8 35 -8 96q0 31 4 75h86q33 0 33 -34q0 -50 5 -82q7 -41 68 -51q51 -8 119 -8q87 0 174 12
q4 1 10 1z" />
    <glyph glyph-name="uniAC23" unicode="&#xac23;" 
d="M720 459v-48q0 -39 -4 -55q-5 -26 -25 -38.5t-58 -12.5q-9 0 -33 2v192h-53v-116q0 -27 -8 -41t-26 -19q-14 -5 -36 -5q-15 0 -45 4v440h81q34 0 34 -33v-105h53v148h86q34 0 34 -33v-280zM361 661q0 -64 -27.5 -130.5t-71 -122.5t-92.5 -91q-35 -25 -60 -25q-11 0 -23 5
q-16 8 -28 23.5t-16 31.5q79 62 131.5 137t61.5 132h-132q-33 0 -33 32v78h259q31 0 31 -32v-38zM698 45.5q12 -9.5 12 -30.5v-66q-108 -16 -215 -16q-76 0 -131 7q-85 11 -125 40.5t-50 79.5q-6 26 -6 61q0 67 19 146h455q34 0 34 -30v-79h-379q-3 -16 -3 -33q0 -15 3 -27
q5 -20 25.5 -31.5t66.5 -17.5q43 -5 96 -5q82 0 164 9q22 2 34 -7.5z" />
    <glyph glyph-name="uniAC24" unicode="&#xac24;" 
d="M465 342q-15 0 -45 4v415h81q34 0 34 -33v-107h65v151h86q34 0 34 -33v-245v-48q0 -39 -4 -55q-5 -26 -25 -38.5t-58 -12.5q-9 0 -33 2v154h-65v-89q0 -27 -8 -41t-26 -19q-14 -5 -36 -5zM361 658q0 -57 -28.5 -116.5t-73.5 -109.5t-93 -81q-35 -23 -61 -23q-10 0 -22 5
q-16 9 -27.5 25.5t-13.5 32.5q75 53 128 116.5t64 109.5h-130q-33 0 -33 32v78h259q31 0 31 -33v-36zM711 43.5q11 -7.5 11 -23.5v-66q-114 -14 -227 -14q-98 0 -164 10q-53 8 -83 26.5t-42 50.5q-9 27 -9 68q0 40 9 80h377v41h-333q-25 0 -38 12t-13 33v50h468q34 0 34 -33
v-153q0 -38 -40 -38h-344q0 -16 8 -25t31 -13q48 -8 139 -8q93 0 186 8q19 2 30 -5.5z" />
    <glyph glyph-name="uniAC2C" unicode="&#xac2c;" 
d="M720 459v-48q0 -39 -4 -55q-5 -26 -25 -38.5t-58 -12.5q-9 0 -33 2v159h-65v-93q0 -27 -8 -41t-26 -19q-14 -5 -36 -5q-15 0 -45 4v450h81q34 0 34 -33v-138h65v181h86q34 0 34 -33v-280zM361 656q0 -63 -27.5 -127.5t-71.5 -119t-93 -89.5q-35 -25 -60 -25q-13 0 -23 6
q-16 8 -28 23.5t-15 31.5q78 60 131 132.5t62 127.5h-132q-33 0 -33 32v78h259q31 0 31 -32v-38zM667 267q32 0 32 -31v-234q-41 -33 -112 -51.5t-153 -18.5q-27 0 -40 1q-84 5 -135 35t-66 84q-9 33 -9 76q0 67 18 139h465zM306 163q-2 -20 -2 -28q0 -37 16 -57t53 -28
q32 -7 75 -7q38 0 72 6t57 17v97h-271z" />
    <glyph glyph-name="uniAC2D" unicode="&#xac2d;" 
d="M720 459v-48q0 -39 -4 -55q-5 -26 -25 -38.5t-58 -12.5q-9 0 -33 2v169h-65v-95q0 -27 -8 -41t-26 -19q-14 -5 -36 -5q-15 0 -45 4v442h81q34 0 34 -33v-128h65v171h86q34 0 34 -33v-280zM361 648q0 -61 -28 -124t-72 -116.5t-93 -86.5q-36 -25 -60 -25q-13 0 -23 6
q-16 8 -27.5 24t-14.5 32q77 58 130 128t62 122h-131q-33 0 -33 32v78h259q31 0 31 -33v-37zM668 278q33 0 33 -32v-247q-36 -30 -104 -47t-148 -17q-32 0 -65 3q-78 7 -122.5 36t-59.5 80q-11 39 -11 100q0 59 10 124h86q15 0 21 -6t6 -18q0 -14 -2 -46h268v70h88zM455 38
q74 0 125 19v55h-264q1 -2 1 -6q3 -27 20.5 -41.5t55.5 -21.5q32 -5 62 -5z" />
    <glyph glyph-name="uniAC2F" unicode="&#xac2f;" 
d="M720 355v-48q0 -39 -4 -55q-5 -26 -25 -38.5t-57 -12.5q-8 0 -34 2v258h-65v-99q0 -27 -8 -41t-26 -19q-14 -5 -36 -5q-15 0 -45 4v460h81q34 0 34 -33v-142h65v186h86q34 0 34 -33v-384zM361 647q0 -66 -27 -135t-70.5 -126.5t-91.5 -94.5q-36 -26 -61 -26q-11 0 -23 5
q-16 8 -28 23t-16 32q80 65 132 143.5t61 139.5h-133q-33 0 -33 32v78h259q31 0 31 -32v-39zM668 80q47 -21 47 -60q0 -23 -12.5 -40.5t-35.5 -28.5l-247 107q-54 -50 -133 -86q-42 -17 -68 -17q-18 0 -31 7q-41 20 -44 73q120 49 184 101.5t65 103.5v31h82q18 0 25.5 -8.5
t7.5 -26.5q0 -40 -16 -80z" />
    <glyph glyph-name="uniAC30" unicode="&#xac30;" 
d="M465 292q-15 0 -45 4v465h81q34 0 34 -33v-118h65v162h86q34 0 34 -33v-309v-48q0 -39 -4 -55q-5 -26 -25 -38.5t-57 -12.5q-8 0 -34 2v207h-65v-128q0 -27 -8 -41t-26 -19q-14 -5 -36 -5zM107 283q-10 0 -22 5q-15 8 -27 24t-15 32q78 59 130.5 130t61.5 125h-131
q-33 0 -33 32v78h259q31 0 31 -32v-38q0 -62 -27.5 -126t-71.5 -117.5t-93 -87.5q-37 -25 -62 -25zM714 69q26 -15 26 -43q0 -10 -5 -23q-6 -16 -21 -27t-35 -15l-130 80q-28 -37 -59 -63q-34 -28 -68 -28q-25 0 -45 15t-28 38l17 13l-63 47q-28 -41 -68 -72
q-31 -24 -60 -24q-26 0 -45.5 15.5t-27.5 39.5q69 52 107 105t38 111v26h74q33 0 33 -32q0 -35 -7 -63l100 -77q61 72 61 149v20h74q33 0 33 -32q0 -41 -14 -85z" />
    <glyph glyph-name="uniAC31" unicode="&#xac31;" 
d="M465 298q-15 0 -45 4v460h81q34 0 34 -33v-138h65v181h86q34 0 34 -33v-305v-48q0 -39 -4 -55q-5 -26 -25 -38.5t-58 -12.5q-9 0 -33 2v184h-65v-103q0 -27 -8 -41t-26 -19q-14 -5 -36 -5zM361 647q0 -65 -27 -132t-70.5 -123.5t-92.5 -92.5q-36 -26 -61 -26q-11 0 -23 5
q-16 8 -28 23.5t-15 31.5q79 63 131.5 139t61.5 135h-133q-33 0 -33 32v78h259q31 0 31 -32v-38zM609.5 252.5q60.5 -24.5 90 -65.5t29.5 -91q0 -76 -67.5 -120t-200.5 -44t-200.5 44t-67.5 120q0 50 29.5 91t90 65.5t148.5 24.5t148.5 -24.5zM599 104q0 30 -35 50t-103 20
q-67 0 -102.5 -20t-35.5 -50q0 -64 138 -64t138 64z" />
    <glyph glyph-name="uniAC38" unicode="&#xac38;" 
d="M632 333q37 5 54 5q28 0 43 -8t21 -24q5 -12 5 -33q0 -36 -18 -65h-105v-113v-48q0 -39 -4 -55q-5 -26 -25.5 -38.5t-58.5 -12.5q-10 0 -36 2v829h90q34 0 34 -33v-148q37 5 54 5q28 0 43 -8t21 -24q5 -12 5 -33q0 -36 -18 -65h-105v-133zM381 673q16 0 23.5 -6t7.5 -21
v-48q0 -132 -69.5 -247t-177.5 -185q-38 -24 -68 -24q-17 0 -33 8q-15 8 -27 24.5t-17 36.5q117 68 188 164.5t78 187.5h-207q-33 0 -33 32v78h335z" />
    <glyph glyph-name="uniAC39" unicode="&#xac39;" 
d="M632 483q38 5 56 5q28 0 42 -7t19 -22q6 -13 6 -32q0 -33 -18 -57h-106q0 -12 -3 -24q-6 -27 -26.5 -39t-59.5 -12q-10 0 -34 2v475h90q34 0 34 -33v-56q38 5 56 5q28 0 42 -7t19 -22q6 -13 6 -32q0 -33 -18 -57h-105v-87zM401 653q0 -65 -34 -127.5t-90 -113t-120 -82.5
q-40 -20 -65 -20q-18 0 -30 9q-15 10 -24.5 28t-11.5 37q98 47 166.5 112t80.5 118h-186q-33 0 -33 32v78h316q31 0 31 -31v-40zM625 162l1 -76q0 -70 -5 -99q-9 -51 -84 -51q-23 0 -36 2v209h-341q-34 0 -34 33v77h465q34 0 34 -33v-62z" />
    <glyph glyph-name="uniAC3C" unicode="&#xac3c;" 
d="M632 433q38 5 56 5q28 0 42 -7t19 -22q6 -13 6 -32q0 -33 -18 -57h-105v-43q0 -35 -4 -50q-5 -26 -25.5 -38.5t-58.5 -12.5q-10 0 -36 2v594h90q34 0 34 -33v-86q38 5 56 5q28 0 42 -7t19 -22q6 -13 6 -32q0 -33 -18 -57h-105v-107zM401 651q0 -69 -33.5 -135
t-88.5 -119.5t-119 -88.5q-38 -21 -65 -21q-15 0 -31 9q-15 9 -25.5 26.5t-12.5 36.5q101 52 168.5 123t78.5 131h-186q-33 0 -33 32v78h316q31 0 31 -30v-42zM606 83q33 0 33 -37v-70q-89 -17 -210 -17q-81 0 -144 9q-67 10 -102 37t-46 73q-9 35 -9 108q0 49 4 78h86
q33 0 33 -34q0 -63 6 -95q6 -45 71 -56q48 -8 111 -8q83 0 157 11q3 1 10 1z" />
    <glyph glyph-name="uniAC40" unicode="&#xac40;" 
d="M632 513q38 5 56 5q28 0 42 -7t19 -22q6 -13 6 -32q0 -33 -18 -57h-109q-6 -26 -26.5 -38t-58.5 -12q-9 0 -35 2v420h90q34 0 34 -33v-36q38 5 56 5q28 0 42 -7t19 -22q6 -13 6 -32q0 -33 -18 -57h-105v-77zM401 667q0 -62 -34.5 -121.5t-91 -107.5t-120.5 -78
q-41 -19 -65 -19q-18 0 -30 9q-15 10 -24 28.5t-11 37.5q96 43 164.5 103.5t82.5 107.5h-185q-33 0 -33 32v78h316q31 0 31 -31v-39zM632 45.5q11 -7.5 11 -23.5v-67q-109 -15 -225 -15q-87 0 -152 9q-53 8 -83.5 27.5t-42.5 52.5q-10 26 -10 69q0 44 10 84h363v44h-320
q-25 0 -38 12t-13 33v51h456q34 0 34 -33v-159q0 -38 -40 -38h-331q0 -18 8 -27.5t31 -13.5q40 -8 131 -8t181 8q19 2 30 -5.5z" />
    <glyph glyph-name="uniAC4B" unicode="&#xac4b;" 
d="M632 475q38 5 56 5q28 0 42 -7t19 -22q6 -13 6 -32q0 -33 -18 -57h-105q0 -14 -4 -36q-6 -27 -26.5 -39t-59.5 -12q-10 0 -34 2v495h90q34 0 34 -33v-74q38 5 56 5q28 0 42 -7t19 -22q6 -13 6 -32q0 -33 -18 -57h-105v-77zM96 274q-16 0 -30 8q-15 9 -26 26.5t-13 36.5
q102 55 169.5 130t77.5 138h-187q-33 0 -33 32v78h316q31 0 31 -30v-42q0 -71 -33 -140t-87.5 -124.5t-119.5 -91.5q-38 -21 -65 -21zM613 81q47 -21 47 -59q0 -49 -48 -71l-246 109q-53 -50 -134 -88q-40 -17 -66 -17q-14 0 -32 7q-41 20 -44 73q120 50 184 103.5t65 105.5
v33h82q18 0 25.5 -8.5t7.5 -27.5q0 -43 -17 -82z" />
    <glyph glyph-name="uniAC4D" unicode="&#xac4d;" 
d="M632 480q38 5 56 5q28 0 42 -7t19 -22q6 -13 6 -32q0 -33 -18 -57h-105q0 -14 -4 -36q-6 -27 -26.5 -39t-59.5 -12q-10 0 -34 2v490h90q34 0 34 -33v-69q38 5 56 5q28 0 42 -7t19 -22q6 -13 6 -32q0 -33 -18 -57h-105v-77zM401 651q0 -70 -33 -138t-88 -123t-119 -91
q-38 -21 -65 -21q-15 0 -31 9q-15 9 -25.5 26t-13.5 36q103 54 170.5 128t77.5 136h-187q-33 0 -33 32v78h316q31 0 31 -30v-42zM539.5 243.5q59.5 -23.5 88.5 -63.5t29 -89q0 -73 -66 -116t-197 -43t-197 43t-66 116q0 49 29 89t88.5 63.5t145.5 23.5t145.5 -23.5z
M496.5 55q31.5 15 31.5 44t-34 47.5t-100 18.5t-100 -18.5t-34 -47.5t31.5 -44t102.5 -15t102.5 15z" />
    <glyph glyph-name="uniAC54" unicode="&#xac54;" 
d="M720 95v-48q0 -39 -4 -55q-5 -26 -25.5 -38.5t-58.5 -12.5q-9 0 -35 2v269h-65v-169q0 -27 -8.5 -41t-26.5 -19q-14 -5 -36 -5q-15 0 -47 4v770h84q34 0 34 -33v-122h65v175h89q34 0 34 -33v-644zM330 673q16 0 23.5 -7t7.5 -22v-46q0 -88 -26 -174t-70 -158t-98 -120
q-34 -31 -63 -31q-13 0 -26 6q-17 6 -31 20t-20 31q96 82 151 188.5t60 202.5h-153q-33 0 -33 32v78h278zM532 482v-155h65v155h-65z" />
    <glyph glyph-name="uniAC58" unicode="&#xac58;" 
d="M465 193q-15 0 -45 4v565h79q34 0 34 -33v-98h69v141h84q34 0 34 -33v-419v-48q0 -39 -4 -55q-5 -26 -24 -38.5t-56 -12.5q-10 0 -34 2v138h-69v-48q0 -27 -8 -41t-25 -19q-14 -5 -35 -5zM361 647q0 -68 -26.5 -138t-70 -129t-91.5 -97q-36 -27 -61 -27q-11 0 -23 5
q-16 7 -28.5 22.5t-16.5 31.5q81 67 133 148t60 145h-133q-33 0 -33 32v78h259q31 0 31 -32v-39zM602 421v95h-69v-95h69zM690 83q33 0 33 -36v-71q-102 -18 -226 -18q-86 0 -154 9q-65 9 -99 36t-45 71q-8 35 -8 96q0 31 4 75h86q33 0 33 -34q0 -50 5 -82q7 -41 68 -51
q51 -8 119 -8q87 0 174 12q4 1 10 1z" />
    <glyph glyph-name="uniAC5C" unicode="&#xac5c;" 
d="M465 342q-15 0 -45 4v415h79q34 0 34 -33v-42h69v86h84q34 0 34 -33v-245v-48q0 -39 -4 -55q-5 -26 -25 -38.5t-57 -12.5q-8 0 -32 2v59h-69q-1 -24 -9 -36.5t-24 -17.5q-14 -5 -35 -5zM361 658q0 -57 -28.5 -116.5t-73.5 -109.5t-93 -81q-35 -23 -61 -23q-10 0 -22 5
q-16 9 -27.5 25.5t-13.5 32.5q75 53 128 116.5t64 109.5h-130q-33 0 -33 32v78h259q31 0 31 -33v-36zM602 511v65h-69v-65h69zM711 43.5q11 -7.5 11 -23.5v-66q-114 -14 -227 -14q-98 0 -164 10q-53 8 -83 26.5t-42 50.5q-9 27 -9 68q0 40 9 80h377v41h-333q-25 0 -38 12
t-13 33v50h468q34 0 34 -33v-153q0 -38 -40 -38h-344q0 -16 8 -25t31 -13q48 -8 139 -8q93 0 186 8q19 2 30 -5.5z" />
    <glyph glyph-name="uniAC65" unicode="&#xac65;" 
d="M720 459v-48q0 -39 -4 -55q-5 -26 -25 -38.5t-57 -12.5q-8 0 -32 2v71h-69q-1 -25 -9 -38.5t-24 -18.5q-14 -5 -35 -5q-15 0 -45 4v442h79q34 0 34 -33v-56h69v99h84q34 0 34 -33v-280zM361 648q0 -61 -28 -124t-72 -116.5t-93 -86.5q-36 -25 -60 -25q-13 0 -23 6
q-16 8 -27.5 24t-14.5 32q77 58 130 128t62 122h-131q-33 0 -33 32v78h259q31 0 31 -33v-37zM533 558v-65h69v65h-69zM668 278q33 0 33 -32v-247q-36 -30 -104 -47t-148 -17q-32 0 -65 3q-78 7 -122.5 36t-59.5 80q-11 39 -11 100q0 59 10 124h86q15 0 21 -6t6 -18
q0 -14 -2 -46h268v70h88zM455 38q74 0 125 19v55h-264q1 -2 1 -6q3 -27 20.5 -41.5t55.5 -21.5q32 -5 62 -5z" />
    <glyph glyph-name="uniAC70" unicode="&#xac70;" 
d="M690 95v-48q0 -39 -4 -55q-5 -26 -26 -38.5t-61 -12.5q-11 0 -37 2v400h-203q-32 -55 -75 -102.5t-93 -81.5q-37 -25 -67 -25q-18 0 -32 7q-16 8 -28 24t-17 35q114 71 182 170.5t75 192.5h-198q-33 0 -33 32v78h325q16 0 23.5 -6t7.5 -21v-48q0 -68 -18 -131h151v305h94
q34 0 34 -33v-644z" />
    <glyph glyph-name="uniAC71" unicode="&#xac71;" horiz-adv-x="791" 
d="M564 570v202h92q34 0 34 -33v-285v-48q0 -39 -4 -55q-5 -26 -25.5 -38.5t-60.5 -12.5q-10 0 -36 2v152q-38 -5 -58 -5q-30 0 -45.5 7.5t-22.5 21.5t-7 39q0 28 9 53h124zM443 653q0 -67 -34.5 -131t-90.5 -116t-122 -85q-40 -20 -65 -20q-19 0 -31 9q-15 9 -25 27t-12 38
q101 49 170.5 116t81.5 123h-191q-33 0 -33 32v78h321q31 0 31 -30v-41zM690 162l1 -76q0 -70 -5 -99q-9 -51 -84 -51q-23 0 -36 2v209h-356q-34 0 -34 33v77h480q34 0 34 -33v-62z" />
    <glyph glyph-name="uniAC74" unicode="&#xac74;" 
d="M441 503q0 28 9 52h114v217h92q34 0 34 -33v-409v-48q0 -39 -4 -55q-5 -26 -25.5 -38.5t-60.5 -12.5q-10 0 -36 2v259q-27 -3 -46 -3q-32 0 -47.5 7t-22.5 22q-7 14 -7 40zM443 651q0 -69 -34 -135.5t-90 -120t-121 -88.5q-39 -20 -65 -20q-19 0 -32 9q-15 9 -25 26.5
t-13 36.5q103 52 172 123t80 131h-191q-33 0 -33 32v78h321q31 0 31 -30v-42zM668 83q33 0 33 -37v-70q-89 -17 -210 -17q-81 0 -144 9q-67 10 -102 37t-46 73q-9 35 -9 108q0 49 4 78h86q33 0 33 -34q0 -63 6 -95q6 -45 71 -56q48 -8 111 -8q83 0 157 11q3 1 10 1z" />
    <glyph glyph-name="uniAC77" unicode="&#xac77;" 
d="M435 528q0 28 9 52h120v192h92q34 0 34 -33v-260v-48q0 -39 -4 -55q-5 -26 -25.5 -38.5t-60.5 -12.5q-10 0 -36 2v136q-42 -4 -52 -4q-32 0 -47.5 7.5t-22.5 21.5t-7 40zM442 662q0 -68 -34 -133t-90.5 -117t-121.5 -86q-39 -20 -65 -20q-18 0 -32 9q-15 9 -25 26.5
t-12 37.5q102 50 171 118.5t81 125.5h-191q-33 0 -33 32v78h321q31 0 31 -30v-41zM682 45.5q12 -9.5 12 -30.5v-66q-106 -16 -209 -16q-74 0 -130 7q-84 11 -124.5 41t-50.5 81q-6 27 -6 63q0 71 19 152h448q34 0 34 -30v-79h-372q-4 -22 -4 -36t4 -32q5 -21 26 -33t66 -18
q43 -5 90 -5q64 0 163 9q22 2 34 -7.5z" />
    <glyph glyph-name="uniAC78" unicode="&#xac78;" 
d="M320 439.5q-58 -49.5 -125 -80.5q-37 -18 -64 -18q-20 0 -32 9q-15 10 -24 28.5t-11 37.5q98 43 167.5 103t83.5 108h-189q-33 0 -33 32v78h321q31 0 31 -31v-39q0 -39 -16 -81h135v186h92q34 0 34 -33v-240v-48q0 -39 -4 -55q-5 -26 -25.5 -38.5t-60.5 -12.5
q-10 0 -36 2v125q-43 -7 -75 -7t-48 7.5t-23 21.5q-10 20 -7 54q-33 -59 -91 -108.5zM689 45.5q11 -7.5 11 -23.5v-67q-109 -15 -225 -15q-87 0 -152 9q-53 8 -83.5 27.5t-42.5 52.5q-10 26 -10 69q0 44 10 84h363v44h-320q-25 0 -38 12t-13 33v51h456q34 0 34 -33v-159
q0 -38 -40 -38h-331q0 -18 8 -27.5t31 -13.5q40 -8 131 -8t181 8q19 2 30 -5.5z" />
    <glyph glyph-name="uniAC7A" unicode="&#xac7a;" 
d="M690 504v-48q0 -39 -4 -55q-5 -26 -25.5 -38.5t-60.5 -12.5q-10 0 -36 2v133q-40 -6 -66 -6q-31 0 -46.5 7.5t-23.5 21.5q-7 14 -7 40q0 28 9 52h134v172h92q34 0 34 -33v-235zM440 673q0 -62 -35 -121.5t-92 -107.5t-123 -79q-37 -18 -64 -18q-20 0 -32 9
q-15 10 -24 28.5t-11 37.5q98 43 167.5 103t83.5 108h-189q-33 0 -33 32v78h321q31 0 31 -31v-39zM415 27q10 -8 10 -23v-58q-40 -8 -98 -8q-32 0 -59 3q-87 10 -107 73q-9 27 -9 69q0 40 9 87h147v52h-102q-44 0 -44 39v56h209q35 0 35 -33v-163q0 -39 -41 -39h-104
q-2 -22 4.5 -32.5t25.5 -14.5q18 -3 48 -3q20 0 48 2q18 1 28 -7zM645 316q17 0 27.5 -8.5t10.5 -22.5v-320q-48 -33 -116 -33q-121 0 -136 99q-6 36 -6 95q0 94 13 190h207zM530 222q-3 -37 -3 -82q0 -59 4 -84q2 -12 11.5 -18t21.5 -6t18 3v187h-52z" />
    <glyph glyph-name="uniAC80" unicode="&#xac80;" 
d="M690 469v-48q0 -39 -4 -55q-5 -26 -25.5 -38.5t-60.5 -12.5q-10 0 -36 2v143q-40 -5 -58 -5q-31 0 -46.5 7.5t-21.5 21.5q-7 14 -7 40q0 28 9 52h124v196h92q34 0 34 -33v-270zM440 662q0 -66 -34.5 -129.5t-91 -114.5t-121.5 -84q-38 -19 -65 -19q-18 0 -32 9t-24 27
t-12 37q101 48 170.5 114.5t81.5 120.5h-191q-33 0 -33 32v78h321q31 0 31 -30v-41zM649 277q32 0 32 -31v-239q-39 -35 -107 -55t-148 -20q-23 0 -35 1q-84 5 -135 35.5t-67 85.5q-9 35 -9 78q0 74 19 145h450zM302 172q-2 -22 -2 -31q0 -39 15.5 -60t51.5 -30q29 -7 69 -7
q36 0 68.5 6t53.5 18v104h-256z" />
    <glyph glyph-name="uniAC81" unicode="&#xac81;" 
d="M690 489v-48q0 -39 -4 -55q-5 -26 -25.5 -38.5t-60.5 -12.5q-10 0 -36 2v123q-40 -5 -58 -5q-31 0 -46.5 7.5t-21.5 21.5q-7 14 -7 40q0 28 9 52h124v196h92q34 0 34 -33v-250zM440 662q0 -65 -34.5 -126.5t-91 -111.5t-122.5 -82q-37 -18 -65 -18q-19 0 -32 9
q-14 9 -23.5 27.5t-11.5 37.5q100 46 169.5 110t81.5 115h-190q-33 0 -33 32v78h321q31 0 31 -31v-40zM649 288q33 0 33 -32v-256q-36 -30 -103.5 -47.5t-146.5 -17.5q-32 0 -64 3q-149 15 -181 117q-10 36 -10 99q0 64 10 134h87q15 0 21 -6.5t6 -19.5q0 -16 -1 -24l-1 -24
h262v74h88zM438 39q33 0 66 5t57 14v58h-259l1 -8q3 -28 21.5 -43t56.5 -22q23 -4 57 -4z" />
    <glyph glyph-name="uniAC82" unicode="&#xac82;" 
d="M564 585v187h92q34 0 34 -33v-260v-48q0 -39 -4 -55q-5 -26 -25.5 -38.5t-60.5 -12.5q-10 0 -36 2v143q-40 -6 -66 -6q-31 0 -46.5 7.5t-23.5 21.5q-7 14 -7 40q0 28 9 52h134zM439 662q0 -66 -34.5 -129.5t-91 -114.5t-121.5 -84q-38 -19 -65 -19q-19 0 -32 9
q-14 9 -24 27t-12 37q101 48 170.5 114.5t81.5 120.5h-191q-33 0 -33 32v78h321q31 0 31 -30v-41zM697 56q22 -29 22 -51q0 -11 -4 -19q-6 -16 -26 -27t-41 -13l-73 93q-17 -37 -40 -66q-22 -28 -53 -28q-16 0 -31 6.5t-26 17.5q-21 -16 -51.5 -23.5t-63.5 -7.5
q-71 0 -107.5 26.5t-43.5 82.5q-6 48 -6 121q0 70 4 123h68q33 0 33 -32l-1 -45h74v77h71q34 0 34 -33v-239q43 58 66.5 126t23.5 115v27h70q29 0 29 -27v-16q0 -37 -9 -81zM302 35q9 0 17 2.5t12 6.5v75h-73q0 -16 1 -22q1 -29 6.5 -41.5t19.5 -17.5q8 -3 17 -3z" />
    <glyph glyph-name="uniAC83" unicode="&#xac83;" 
d="M431 495q0 28 9 52h124v225h92q34 0 34 -33v-359v-48q0 -39 -4 -55q-5 -26 -25.5 -38.5t-58.5 -12.5q-24 0 -38 2v203q-40 -5 -58 -5q-31 0 -46.5 7.5t-21.5 21.5q-7 14 -7 40zM437 651q0 -72 -33.5 -140.5t-89 -124t-121.5 -92.5q-38 -21 -65 -21q-16 0 -32 9
q-15 9 -25.5 27t-12.5 36q104 54 172.5 129t78.5 139h-191q-33 0 -33 32v78h321q31 0 31 -30v-42zM656 81q47 -21 47 -59q0 -49 -48 -71l-246 109q-53 -50 -134 -88q-40 -17 -66 -17q-15 0 -32 7q-41 20 -44 73q120 50 184 103.5t65 105.5v33h82q18 0 25.5 -8.5t7.5 -27.5
q0 -43 -17 -82z" />
    <glyph glyph-name="uniAC84" unicode="&#xac84;" 
d="M564 585v187h92q34 0 34 -33v-255v-48q0 -39 -4 -55q-5 -26 -25.5 -38.5t-60.5 -12.5q-10 0 -36 2v136q-46 -4 -58 -4q-34 0 -50.5 7.5t-24.5 21.5q-7 14 -7 40q0 28 9 52h131zM129 301q-19 0 -31 9q-15 9 -25.5 27t-12.5 37q102 50 171 120t81 129h-191q-33 0 -33 32v78
h321q31 0 31 -30v-42q0 -68 -34 -133.5t-90 -118.5t-122 -88q-40 -20 -65 -20zM709 70q24 -18 24 -44q0 -14 -5 -24q-7 -16 -22.5 -27t-36.5 -14l-122 87q-28 -41 -58 -67q-31 -30 -67 -30q-5 0 -17 2q-19 4 -34 17.5t-22 31.5l20 17l-63 50q-28 -46 -65 -75
q-32 -26 -64 -26q-25 0 -44.5 14t-27.5 38q68 56 106 114t38 121v28h75q34 0 34 -33q0 -35 -8 -72l94 -79q59 79 59 158v23h75q33 0 33 -32q0 -45 -14 -93z" />
    <glyph glyph-name="uniAC85" unicode="&#xac85;" 
d="M431 513q0 28 9 52h124v207h92q34 0 34 -33v-300v-48q0 -39 -4 -55q-5 -26 -25.5 -38.5t-60.5 -12.5q-10 0 -36 2v162q-40 -5 -58 -5q-31 0 -46.5 7.5t-21.5 21.5q-7 14 -7 40zM438 648q0 -68 -34 -133t-90.5 -117t-121.5 -86q-39 -20 -65 -20q-19 0 -32 9
q-15 9 -25 26.5t-12 37.5q102 50 171 118.5t81 125.5h-191q-33 0 -33 32v78h321q31 0 31 -30v-41zM584.5 252.5q59.5 -24.5 89 -65.5t29.5 -91q0 -76 -67 -120t-198 -44q-132 0 -199 44t-67 120q0 50 29.5 91t89.5 65.5t147 24.5t146.5 -24.5zM573 104q0 30 -34.5 50
t-100.5 20t-101 -20t-35 -50q0 -64 136 -64q135 0 135 64z" />
    <glyph glyph-name="uniAC86" unicode="&#xac86;" 
d="M564 580v192h92q34 0 34 -33v-270v-48q0 -39 -4 -55q-5 -26 -25.5 -38.5t-60.5 -12.5q-10 0 -36 2v146q-48 -4 -59 -4q-36 0 -52.5 7.5t-24.5 21.5q-7 14 -7 40q0 28 9 52h134zM440 662q0 -66 -34.5 -129.5t-91 -114.5t-121.5 -84q-38 -19 -65 -19q-18 0 -32 9t-24 27
t-12 37q101 48 170.5 114.5t81.5 120.5h-191q-33 0 -33 32v78h321q31 0 31 -30v-41zM651 65q27 -9 39 -23t12 -34t-11 -38.5t-28 -27.5l-246 83q-53 -46 -141 -78q-25 -9 -47 -9q-23 0 -40 11q-15 8 -24.5 28t-10.5 46q92 28 152 67t67 72h-167q-32 0 -32 31v80h484
q32 0 32 -31v-80h-194q-2 -22 -9 -41z" />
    <glyph glyph-name="uniAC89" unicode="&#xac89;" 
d="M321 442.5q-60 -55.5 -131 -90.5q-37 -18 -65 -18q-18 0 -32 9t-23.5 27.5t-11.5 37.5q100 46 169.5 110t81.5 115h-190q-33 0 -33 32v78h321q31 0 31 -31v-40q0 -38 -12 -74h138v174h92q34 0 34 -33v-230v-48q0 -39 -4 -55q-5 -26 -25.5 -38.5t-60.5 -12.5q-10 0 -36 2
v127q-43 -7 -75 -7t-48 7.5t-23 21.5q-7 18 -7 39q0 11 1 17q-31 -64 -91 -119.5zM687.5 33.5q10.5 -7.5 10.5 -22.5v-65q-84 -12 -194 -12q-67 0 -107 4q-92 8 -142 39.5t-63 89.5q-8 37 -8 79q0 81 22 166h440q17 0 25 -7.5t8 -24.5v-67h-382q-2 -11 -4 -39h338
q33 0 33 -33v-60h-360q10 -17 32 -26.5t60 -14.5t120 -5q88 0 141 4q20 2 30.5 -5.5z" />
    <glyph glyph-name="uniAC8A" unicode="&#xac8a;" 
d="M564 487q-27 -3 -46 -3q-32 0 -47.5 7t-22.5 22q-7 14 -7 40q0 28 9 52h114v167h92q34 0 34 -33v-270v-48q0 -39 -4 -55q-5 -26 -25.5 -38.5t-60.5 -12.5q-10 0 -36 2v170zM440 662q0 -65 -34.5 -126.5t-91 -111.5t-122.5 -82q-37 -18 -65 -18q-19 0 -32 9
q-14 9 -23.5 27.5t-11.5 37.5q100 46 169.5 110t81.5 115h-190q-33 0 -33 32v78h321q31 0 31 -31v-40zM656 299q34 0 34 -33v-77h-486q-34 0 -34 33v77h486zM663 51q34 0 34 -33v-75h-500q-34 0 -34 33v75h93v115h84q34 0 34 -31v-84h113q6 68 7 113h84q34 0 34 -31
q-2 -41 -6 -82h57z" />
    <glyph glyph-name="uniAC8B" unicode="&#xac8b;" 
d="M690 479v-48q0 -39 -4 -55q-5 -26 -25.5 -38.5t-60.5 -12.5q-10 0 -36 2v145q-40 -5 -58 -5q-31 0 -46.5 7.5t-21.5 21.5q-7 14 -7 40q0 28 9 52h124v184h92q34 0 34 -33v-260zM445 667q0 -62 -35 -121.5t-92 -107.5t-123 -79q-37 -18 -64 -18q-20 0 -32 9
q-15 10 -24 28.5t-11 37.5q98 43 167.5 103t83.5 108h-189q-33 0 -33 32v78h321q31 0 31 -31v-39zM652 265q34 0 34 -33v-59l-499 2q-34 0 -34 33v57h212q-3 15 -13 52q15 12 35.5 18.5t40.5 6.5q21 0 37 -6q16 -5 24.5 -16.5t8.5 -27.5q0 -10 -5 -27h159zM599 122
q58 -33 58 -83q0 -107 -231 -107q-232 0 -232 107q0 50 58.5 83t173.5 33t173 -33zM518 33q24 4 24 14q0 22 -116 22q-117 0 -117 -22q0 -10 24 -14t93 -4q68 0 92 4z" />
    <glyph glyph-name="uniAC8C" unicode="&#xac8c;" 
d="M715 95v-48q0 -39 -4 -55q-5 -26 -25.5 -38.5t-58.5 -12.5q-9 0 -35 2v829h89q34 0 34 -33v-644zM501 752q34 0 34 -33v-676q0 -27 -8.5 -41t-26.5 -19q-14 -5 -36 -5q-15 0 -47 4v350h-115q-56 -120 -135 -190q-34 -31 -62 -31q-11 0 -26 5q-17 6 -31 20t-21 31
q96 82 151 190t60 206h-153q-33 0 -33 32v78h278q16 0 23.5 -7t7.5 -22v-46q0 -71 -17 -142h73v296h84z" />
    <glyph glyph-name="uniAC8D" unicode="&#xac8d;" 
d="M686 292.5q-20 -12.5 -58 -12.5q-9 0 -33 2v490h86q34 0 34 -33v-305v-48q0 -39 -4 -55q-5 -26 -25 -38.5zM306 453q-28 -47 -64 -87t-74 -66q-36 -25 -62 -25q-11 0 -24 5q-16 8 -27.5 23.5t-15.5 32.5q84 62 139 139.5t64 138.5h-142q-33 0 -33 32v78h268q31 0 31 -32
v-39q0 -43 -13 -92h77v201h81q34 0 34 -33v-376q0 -27 -8 -41t-26 -19q-14 -5 -36 -5q-15 0 -45 4v161h-124zM715 147l1 -69q0 -62 -5 -91q-9 -51 -84 -51q-23 0 -36 2v194h-381q-34 0 -34 33v77h505q34 0 34 -33v-62z" />
    <glyph glyph-name="uniAC90" unicode="&#xac90;" 
d="M686 178.5q-20 -12.5 -57 -12.5q-8 0 -34 2v604h86q34 0 34 -33v-419v-48q0 -39 -4 -55q-5 -26 -25 -38.5zM299 427q-54 -90 -129 -146q-36 -25 -62 -25q-11 0 -24 5q-16 7 -28.5 22.5t-16.5 32.5q85 65 139.5 145.5t63.5 146.5h-142q-33 0 -33 32v78h268q31 0 31 -31
v-40q0 -51 -18 -112h82v227h81q34 0 34 -33v-471q0 -27 -8 -41t-26 -19q-14 -5 -36 -5q-15 0 -45 4v230h-131zM685 83q33 0 33 -36v-71q-102 -18 -226 -18q-86 0 -154 9q-65 9 -99 36t-45 71q-8 35 -8 96q0 31 4 75h86q33 0 33 -34q0 -50 5 -82q7 -41 68 -51q51 -8 119 -8
q87 0 174 12q4 1 10 1z" />
    <glyph glyph-name="uniAC94" unicode="&#xac94;" 
d="M686 362.5q-20 -12.5 -58 -12.5q-9 0 -33 2v420h86q34 0 34 -33v-235v-48q0 -39 -4 -55q-5 -26 -25 -38.5zM303 483q-29 -42 -65.5 -76.5t-74.5 -57.5q-37 -22 -62 -22q-13 0 -24 6q-15 9 -26 25.5t-13 33.5q80 53 135 116t66 109h-139q-33 0 -33 32v78h268q31 0 31 -33
v-36q0 -30 -10 -67h74v170h81q34 0 34 -33v-306q0 -27 -8 -41t-26 -19q-14 -5 -36 -5q-15 0 -45 4v122h-127zM706 43.5q11 -7.5 11 -23.5v-66q-114 -14 -227 -14q-98 0 -164 10q-53 8 -83 26.5t-42 50.5q-9 27 -9 68q0 40 9 80h377v41h-333q-25 0 -38 12t-13 33v50h468
q34 0 34 -33v-153q0 -38 -40 -38h-344q0 -16 8 -25t31 -13q48 -8 139 -8q93 0 186 8q19 2 30 -5.5z" />
    <glyph glyph-name="uniAC9C" unicode="&#xac9c;" 
d="M715 454v-48q0 -39 -4 -55q-5 -26 -25 -38.5t-58 -12.5q-9 0 -33 2v470h86q34 0 34 -33v-285zM297 453q-58 -86 -131 -134q-37 -25 -62 -25q-13 0 -23 6q-16 9 -27.5 25t-14.5 32q81 58 136.5 131t64.5 128h-140q-33 0 -33 32v78h268q31 0 31 -32v-38q0 -45 -16 -95h80
v201h81q34 0 34 -33v-356q0 -27 -8 -41t-26 -19q-14 -5 -36 -5q-15 0 -45 4v141h-133zM662 267q32 0 32 -31v-234q-41 -33 -112 -51.5t-153 -18.5q-27 0 -40 1q-84 5 -135 35t-66 84q-9 33 -9 76q0 67 18 139h465zM301 163q-2 -20 -2 -28q0 -37 16 -57t53 -28q32 -7 75 -7
q38 0 72 6t57 17v97h-271z" />
    <glyph glyph-name="uniAC9D" unicode="&#xac9d;" 
d="M715 464v-48q0 -39 -4 -55q-5 -26 -25 -38.5t-58 -12.5q-9 0 -33 2v460h86q34 0 34 -33v-275zM305 463q-28 -43 -65 -81t-75 -63q-37 -23 -61 -23q-13 0 -24 6q-16 8 -27.5 24t-14.5 33q81 57 136.5 126.5t65.5 122.5h-140q-18 0 -25.5 8t-7.5 24v78h268q31 0 31 -32v-38
q0 -36 -11 -77h75v191h81q34 0 34 -33v-348q0 -27 -8 -41t-26 -19q-14 -5 -36 -5q-15 0 -45 4v143h-125zM663 278q33 0 33 -32v-247q-36 -30 -104 -47t-148 -17q-32 0 -65 3q-78 7 -122.5 36t-59.5 80q-11 39 -11 100q0 59 10 124h86q15 0 21 -6t6 -18q0 -14 -2 -46h268v70
h88zM450 38q74 0 125 19v55h-264q1 -2 1 -6q3 -27 20.5 -41.5t55.5 -21.5q32 -5 62 -5z" />
    <glyph glyph-name="uniAC9F" unicode="&#xac9f;" 
d="M686 213.5q-20 -12.5 -57 -12.5q-8 0 -34 2v569h86q34 0 34 -33v-384v-48q0 -39 -4 -55q-5 -26 -25 -38.5zM305 443q-27 -47 -62.5 -86.5t-73.5 -66.5q-36 -25 -62 -25q-11 0 -24 5q-16 8 -28 23.5t-16 31.5q85 64 139.5 142.5t63.5 140.5h-142q-33 0 -33 32v78h268
q31 0 31 -31v-40q0 -46 -14 -96h78v210h81q34 0 34 -33v-366q0 -27 -8 -41t-26 -19q-14 -5 -36 -5q-15 0 -45 4v142h-125zM664 80q47 -21 47 -60q0 -23 -12.5 -40.5t-35.5 -28.5l-247 107q-54 -50 -133 -86q-42 -17 -68 -17q-18 0 -31 7q-41 20 -44 73q120 49 184 101.5
t65 103.5v31h82q18 0 25.5 -8.5t7.5 -26.5q0 -40 -16 -80z" />
    <glyph glyph-name="uniACA0" unicode="&#xaca0;" 
d="M686 292.5q-20 -12.5 -58 -12.5q-9 0 -33 2v490h86q34 0 34 -33v-305v-48q0 -39 -4 -55q-5 -26 -25 -38.5zM104 282q-13 0 -24 6q-16 8 -27.5 24t-13.5 33q81 57 136 128.5t65 125.5h-140q-33 0 -33 32v78h268q31 0 31 -32v-38q0 -37 -11 -78h75v200h81q34 0 34 -33v-371
q0 -27 -8 -41t-26 -19q-14 -5 -36 -5q-15 0 -45 4v157h-124q-28 -45 -64.5 -83.5t-75.5 -63.5q-37 -24 -62 -24zM715 69q26 -15 26 -43q0 -10 -5 -23q-6 -16 -21 -27t-35 -15l-130 80q-28 -37 -59 -63q-34 -28 -68 -28q-25 0 -45 15t-28 38l17 13l-63 47q-28 -41 -68 -72
q-31 -24 -60 -24q-26 0 -45.5 15.5t-27.5 39.5q69 52 107 105t38 111v26h74q33 0 33 -32q0 -35 -7 -63l100 -77q61 72 61 149v20h74q33 0 33 -32q0 -41 -14 -85z" />
    <glyph glyph-name="uniACA1" unicode="&#xaca1;" 
d="M686 292.5q-20 -12.5 -58 -12.5q-9 0 -33 2v490h86q34 0 34 -33v-305v-48q0 -39 -4 -55q-5 -26 -25 -38.5zM308 453q-27 -47 -64 -87.5t-76 -68.5q-36 -25 -62 -25q-14 0 -24 6q-16 8 -28 23.5t-15 32.5q83 62 138 137.5t64 135.5h-141q-33 0 -33 32v78h268q31 0 31 -32
v-39q0 -43 -12 -85h76v201h81q34 0 34 -33v-366q0 -27 -8 -41t-26 -19q-14 -5 -36 -5q-15 0 -45 4v151h-122zM599.5 252.5q60.5 -24.5 90 -65.5t29.5 -91q0 -76 -67.5 -120t-200.5 -44t-200.5 44t-67.5 120q0 50 29.5 91t90 65.5t148.5 24.5t148.5 -24.5zM589 104
q0 30 -35 50t-103 20q-67 0 -102.5 -20t-35.5 -50q0 -64 138 -64t138 64z" />
    <glyph glyph-name="uniACA8" unicode="&#xaca8;" 
d="M690 95v-48q0 -39 -4 -55q-5 -26 -26 -38.5t-61 -12.5q-11 0 -37 2v290q-74 -8 -107 -8q-39 0 -56.5 7t-24.5 22q-8 14 -8 39q0 26 10 53h186v104h-156q-29 -90 -87 -166t-132 -125q-39 -26 -68 -26q-16 0 -32 8t-28 24t-17 36q116 70 185.5 169.5t76.5 192.5h-203
q-33 0 -33 32v78h330q16 0 23.5 -6t7.5 -21v-48q0 -23 -1 -35h134v209h94q34 0 34 -33v-644z" />
    <glyph glyph-name="uniACA9" unicode="&#xaca9;" 
d="M423 553q-28 -72 -90 -133t-137 -99q-40 -20 -65 -20q-19 0 -31 9q-15 9 -25 27t-12 38q101 49 170.5 116t81.5 123h-191q-33 0 -33 32v78h321q31 0 31 -30v-33h121v111h92q34 0 34 -33v-285v-48q0 -39 -4 -55q-5 -26 -25.5 -38.5t-60.5 -12.5q-10 0 -36 2v51
q-60 -6 -94 -6q-38 0 -55 6.5t-23 20.5q-6 12 -6 34q0 28 9 50h169v95h-141zM690 162l1 -76q0 -70 -5 -99q-9 -51 -84 -51q-23 0 -36 2v209h-356q-34 0 -34 33v77h480q34 0 34 -33v-62z" />
    <glyph glyph-name="uniACAA" unicode="&#xacaa;" 
d="M690 459v-48q0 -39 -4 -55q-5 -26 -25.5 -38.5t-60.5 -12.5q-10 0 -36 2v56q-60 -6 -94 -6q-38 0 -55 6.5t-23 20.5q-6 12 -6 34q0 28 9 50h169v95h-138q-27 -71 -90.5 -133t-140.5 -101q-39 -19 -65 -19q-17 0 -31 9q-15 9 -24.5 27.5t-11.5 37.5q100 47 169.5 112
t82.5 118h-191q-33 0 -33 32v78h321q31 0 31 -31v-22h121v101h92q34 0 34 -33v-280zM376 258q33 0 33 -32v-60q0 -156 -4 -181q-10 -50 -83 -50q-22 0 -35 2v213h-89q-33 0 -33 32v76h211zM683 166v-53q0 -110 -4 -128q-10 -50 -82 -50q-22 0 -35 2v213h-89q-33 0 -33 32v76
h210q33 0 33 -32v-60z" />
    <glyph glyph-name="uniACAC" unicode="&#xacac;" 
d="M417 533q-30 -70 -89.5 -129t-129.5 -97q-39 -20 -65 -20q-19 0 -32 9q-15 9 -25 26.5t-13 36.5q103 52 172 123t80 131h-191q-33 0 -33 32v78h321q31 0 31 -30v-52h121v131h92q34 0 34 -33v-409v-48q0 -39 -4 -55q-5 -26 -25.5 -38.5t-60.5 -12.5q-10 0 -36 2v153
q-60 -6 -94 -6q-38 0 -55 6.5t-23 20.5q-6 12 -6 34q0 28 9 50h169v97h-147zM668 83q33 0 33 -37v-70q-89 -17 -210 -17q-81 0 -144 9q-67 10 -102 37t-46 73q-9 35 -9 108q0 49 4 78h86q33 0 33 -34q0 -63 6 -95q6 -45 71 -56q48 -8 111 -8q83 0 157 11q3 1 10 1z" />
    <glyph glyph-name="uniACAF" unicode="&#xacaf;" 
d="M422 561q-28 -72 -89.5 -134t-136.5 -101q-39 -20 -65 -20q-18 0 -32 9q-15 9 -25 26.5t-12 37.5q102 50 171 118.5t81 125.5h-191q-33 0 -33 32v78h321q31 0 31 -30v-34h122v103h92q34 0 34 -33v-260v-48q0 -39 -4 -55q-5 -26 -25.5 -38.5t-60.5 -12.5q-10 0 -36 2v49
q-45 -3 -74 -3q-44 0 -62.5 6.5t-25.5 20.5q-7 13 -7 35q0 28 10 49h159v77h-142zM682 45.5q12 -9.5 12 -30.5v-66q-106 -16 -209 -16q-74 0 -130 7q-84 11 -124.5 41t-50.5 81q-6 27 -6 63q0 71 19 152h448q34 0 34 -30v-79h-372q-4 -22 -4 -36t4 -32q5 -21 26 -33t66 -18
q43 -5 90 -5q64 0 163 9q22 2 34 -7.5z" />
    <glyph glyph-name="uniACB0" unicode="&#xacb0;" 
d="M419 563q-31 -63 -91.5 -116.5t-132.5 -87.5q-37 -18 -64 -18q-20 0 -32 9q-15 10 -24 28.5t-11 37.5q98 43 167.5 103t83.5 108h-189q-33 0 -33 32v78h321q31 0 31 -31v-35h119v101h92q34 0 34 -33v-240v-48q0 -39 -4 -55q-5 -26 -25.5 -38.5t-60.5 -12.5q-10 0 -36 2
v50q-60 -6 -94 -6q-38 0 -55 6.5t-23 20.5q-6 12 -6 34q0 28 9 50h169v61h-145zM689 45.5q11 -7.5 11 -23.5v-67q-109 -15 -225 -15q-87 0 -152 9q-53 8 -83.5 27.5t-42.5 52.5q-10 26 -10 69q0 44 10 84h363v44h-320q-25 0 -38 12t-13 33v51h456q34 0 34 -33v-159
q0 -38 -40 -38h-331q0 -18 8 -27.5t31 -13.5q40 -8 131 -8t181 8q19 2 30 -5.5z" />
    <glyph glyph-name="uniACB7" unicode="&#xacb7;" 
d="M419 569q-31 -63 -91.5 -116.5t-132.5 -87.5q-37 -18 -64 -18q-20 0 -32 9q-15 10 -24 28.5t-11 37.5q98 43 167.5 103t83.5 108h-189q-33 0 -33 32v78h321q31 0 31 -31v-35h119v95h92q34 0 34 -33v-240v-48q0 -39 -4 -55q-5 -26 -25.5 -38.5t-60.5 -12.5q-10 0 -36 2v52
q-60 -6 -94 -6q-38 0 -55 6.5t-23 20.5q-6 12 -6 34q0 28 9 50h169v65h-145zM669 248q35 0 35 -34v-58h-290q-17 0 -24.5 8t-7.5 26v58h114l-14 56q13 11 30.5 16.5t34.5 5.5q28 0 42 -13t14 -35q0 -16 -5 -30h71zM378.5 29q9.5 -8 9.5 -23v-57q-42 -9 -87 -9q-25 0 -49 3
q-89 11 -107 74q-8 24 -8 69q0 44 8 84h132v53h-93q-38 0 -38 36v58h189q34 0 34 -33v-162q0 -39 -40 -39h-86q-1 -22 5.5 -32.5t25.5 -13.5q11 -2 40 -2q25 0 37 1q18 1 27.5 -7zM642.5 112.5q38.5 -30.5 38.5 -79.5q0 -47 -37.5 -74.5t-100.5 -27.5q-64 0 -101 27.5
t-37 74.5q0 49 38.5 79.5t99.5 30.5t99.5 -30.5zM582 42q0 10 -11 16.5t-28 6.5q-18 0 -28.5 -6.5t-10.5 -16.5q0 -21 39 -21t39 21z" />
    <glyph glyph-name="uniACB8" unicode="&#xacb8;" 
d="M690 469v-48q0 -39 -4 -55q-5 -26 -25.5 -38.5t-60.5 -12.5q-10 0 -36 2v61q-60 -6 -94 -6q-38 0 -55 6.5t-23 20.5q-6 12 -6 34q0 28 9 50h169v72h-148q-30 -68 -90.5 -126.5t-132.5 -94.5q-38 -19 -65 -19q-18 0 -32 9t-24 27t-12 37q101 48 170.5 114.5t81.5 120.5
h-191q-33 0 -33 32v78h321q31 0 31 -30v-40h124v109h92q34 0 34 -33v-270zM649 277q32 0 32 -31v-239q-39 -35 -107 -55t-148 -20q-23 0 -35 1q-84 5 -135 35.5t-67 85.5q-9 35 -9 78q0 74 19 145h450zM302 172q-2 -22 -2 -31q0 -39 15.5 -60t51.5 -30q29 -7 69 -7
q36 0 68.5 6t53.5 18v104h-256z" />
    <glyph glyph-name="uniACB9" unicode="&#xacb9;" 
d="M690 489v-48q0 -39 -4 -55q-5 -26 -25.5 -38.5t-60.5 -12.5q-10 0 -36 2v40q-60 -6 -94 -6q-38 0 -55 6.5t-23 20.5q-6 12 -6 34q0 28 9 50h169v74h-148q-30 -66 -91 -122.5t-133 -91.5q-37 -18 -65 -18q-19 0 -32 9q-14 9 -23.5 27.5t-11.5 37.5q100 46 169.5 110
t81.5 115h-190q-33 0 -33 32v78h321q31 0 31 -31v-38h124v108h92q34 0 34 -33v-250zM649 288q33 0 33 -32v-256q-36 -30 -103.5 -47.5t-146.5 -17.5q-32 0 -64 3q-149 15 -181 117q-10 36 -10 99q0 64 10 134h87q15 0 21 -6.5t6 -19.5q0 -16 -1 -24l-1 -24h262v74h88z
M438 39q33 0 66 5t57 14v58h-259l1 -8q3 -28 21.5 -43t56.5 -22q23 -4 57 -4z" />
    <glyph glyph-name="uniACBB" unicode="&#xacbb;" 
d="M414 535q-29 -74 -88.5 -137t-132.5 -104q-38 -21 -65 -21q-16 0 -32 9q-15 9 -25.5 27t-12.5 36q104 54 172.5 129t78.5 139h-191q-33 0 -33 32v78h321q31 0 31 -30v-50h127v129h92q34 0 34 -33v-359v-48q0 -39 -4 -55q-5 -26 -25.5 -38.5t-58.5 -12.5q-24 0 -38 2v127
q-60 -6 -94 -6q-38 0 -55 6.5t-23 20.5q-6 12 -6 34q0 28 9 50h169v75h-150zM657 81q47 -21 47 -59q0 -49 -48 -71l-246 109q-53 -50 -134 -88q-40 -17 -66 -17q-14 0 -32 7q-41 20 -44 73q120 50 184 103.5t65 105.5v33h82q18 0 25.5 -8.5t7.5 -27.5q0 -43 -17 -82z" />
    <glyph glyph-name="uniACBC" unicode="&#xacbc;" 
d="M129 301q-19 0 -31 9q-15 9 -25.5 27t-12.5 37q102 50 171 120t81 129h-191q-33 0 -33 32v78h321q31 0 31 -30v-47h124v116h92q34 0 34 -33v-260v-48q0 -39 -4 -55q-5 -26 -25.5 -38.5t-60.5 -12.5q-10 0 -36 2v41q-60 -6 -94 -6q-38 0 -55 6.5t-23 20.5q-6 12 -6 34
q0 28 9 50h169v75h-148q-30 -69 -90 -128.5t-132 -98.5q-40 -20 -65 -20zM709 70q24 -18 24 -44q0 -14 -5 -24q-7 -16 -22.5 -27t-36.5 -14l-122 87q-28 -41 -58 -67q-31 -30 -67 -30q-5 0 -17 2q-19 4 -34 17.5t-22 31.5l20 17l-63 50q-28 -46 -65 -75q-32 -26 -64 -26
q-25 0 -44.5 14t-27.5 38q68 56 106 114t38 121v28h75q34 0 34 -33q0 -35 -8 -72l94 -79q59 79 59 158v23h75q33 0 33 -32q0 -45 -14 -93z" />
    <glyph glyph-name="uniACBD" unicode="&#xacbd;" 
d="M419 548q-28 -73 -90 -135t-137 -101q-39 -20 -65 -20q-19 0 -32 9q-15 9 -25 26.5t-12 37.5q102 50 171 118.5t81 125.5h-191q-33 0 -33 32v78h321q31 0 31 -30v-33h126v116h92q34 0 34 -33v-306v-48q0 -39 -4 -55q-5 -26 -25.5 -38.5t-60.5 -12.5q-10 0 -36 2v83
q-60 -6 -94 -6q-38 0 -55 6.5t-23 20.5q-6 12 -6 34q0 28 9 50h169v79h-145zM580.5 252.5q59.5 -24.5 89 -65.5t29.5 -91q0 -76 -67 -120t-198 -44q-132 0 -199 44t-67 120q0 50 29.5 91t89.5 65.5t147 24.5t146.5 -24.5zM569 104q0 30 -34.5 50t-100.5 20t-101 -20t-35 -50
q0 -64 136 -64q135 0 135 64z" />
    <glyph glyph-name="uniACBF" unicode="&#xacbf;" 
d="M424 573q-30 -66 -92.5 -123t-136.5 -91q-37 -18 -64 -18q-20 0 -32 9q-15 10 -24 28.5t-11 37.5q98 43 167.5 103t83.5 108h-189q-33 0 -33 32v78h321q31 0 31 -31v-25h120v91h92q34 0 34 -33v-280v-48q0 -39 -4 -55q-5 -26 -25.5 -38.5t-60.5 -12.5q-10 0 -36 2v82
q-58 -6 -92 -6q-38 0 -55 6.5t-23 20.5q-6 12 -6 34q0 28 9 50h167v79h-141zM658 62q46 -15 46 -55q0 -42 -38 -64l-259 83q-60 -46 -137 -71q-31 -9 -53 -9t-40 9q-16 8 -25.5 28.5t-8.5 45.5q56 13 107.5 34.5t83.5 45t32 41.5v5h-170q-34 0 -34 33v65h208q-4 22 -16 63
q33 24 77 24q22 0 34 -5q16 -5 24.5 -17t8.5 -28t-9 -37h169q34 0 34 -33v-65h-202v-7q0 -16 -6 -31z" />
    <glyph glyph-name="uniACC1" unicode="&#xacc1;" 
d="M412 563q-30 -65 -90 -120t-132 -91q-37 -18 -65 -18q-18 0 -32 9t-23.5 27.5t-11.5 37.5q100 46 169.5 110t81.5 115h-190q-33 0 -33 32v78h321q31 0 31 -31v-41h126v101h92q34 0 34 -33v-230v-48q0 -39 -4 -55q-5 -26 -25.5 -38.5t-60.5 -12.5q-10 0 -36 2v40
q-60 -6 -94 -6q-38 0 -55 6.5t-23 20.5q-6 12 -6 34q0 28 9 50h169v61h-152zM687.5 33.5q10.5 -7.5 10.5 -22.5v-65q-84 -12 -194 -12q-67 0 -107 4q-92 8 -142 39.5t-63 89.5q-8 37 -8 79q0 81 22 166h440q17 0 25 -7.5t8 -24.5v-67h-382q-2 -11 -4 -39h338q33 0 33 -33
v-60h-360q10 -17 32 -26.5t60 -14.5t120 -5q88 0 141 4q20 2 30.5 -5.5z" />
    <glyph glyph-name="uniACC4" unicode="&#xacc4;" 
d="M715 95v-48q0 -39 -4 -55q-5 -26 -25.5 -38.5t-58.5 -12.5q-9 0 -35 2v829h89q34 0 34 -33v-644zM514 752q34 0 34 -33v-676q0 -27 -8.5 -41t-26.5 -19q-14 -5 -36 -5q-15 0 -47 4v248q-14 -1 -36 -1q-39 0 -56 6.5t-24 21.5q-6 12 -6 36q0 28 9 50h113v117h-85
q-22 -96 -69.5 -179.5t-108.5 -138.5q-34 -31 -62 -31q-11 0 -26 5q-17 6 -31 20t-21 31q96 82 151 190t60 206h-153q-33 0 -33 32v78h278q16 0 23.5 -7t7.5 -22v-46q0 -17 -1 -25h70v179h84z" />
    <glyph glyph-name="uniACC8" unicode="&#xacc8;" 
d="M686 178.5q-20 -12.5 -57 -12.5q-8 0 -34 2v604h86q34 0 34 -33v-419v-48q0 -39 -4 -55q-5 -26 -25 -38.5zM337 528q-24 -73 -69.5 -138.5t-98.5 -106.5q-36 -27 -61 -27q-11 0 -23 5q-16 7 -28.5 22.5t-16.5 31.5q81 67 133 148t60 145h-133q-33 0 -33 32v78h259
q31 0 31 -32v-50h73v126h81q34 0 34 -33v-471q0 -27 -8 -41t-26 -19q-14 -5 -36 -5q-15 0 -45 4v127q-14 -1 -37 -1q-39 0 -55.5 6.5t-23.5 20.5q-6 12 -6 32q0 27 9 49h113v97h-93zM685 83q33 0 33 -36v-71q-102 -18 -226 -18q-86 0 -154 9q-65 9 -99 36t-45 71
q-8 35 -8 96q0 31 4 75h86q33 0 33 -34q0 -50 5 -82q7 -41 68 -51q51 -8 119 -8q87 0 174 12q4 1 10 1z" />
    <glyph glyph-name="uniACCC" unicode="&#xaccc;" 
d="M686 362.5q-20 -12.5 -58 -12.5q-9 0 -33 2v420h86q34 0 34 -33v-235v-48q0 -39 -4 -55q-5 -26 -25 -38.5zM340 568q-25 -65 -74.5 -124t-103.5 -93q-35 -23 -61 -23q-10 0 -22 5q-16 9 -27.5 25.5t-13.5 32.5q75 53 128 116.5t64 109.5h-130q-33 0 -33 32v78h259
q31 0 31 -33v-18h73v85h81q34 0 34 -33v-311q0 -27 -8 -41t-26 -19q-14 -5 -36 -5q-15 0 -45 4v31q-14 -1 -37 -1q-39 0 -55.5 6.5t-23.5 20.5q-6 12 -6 32q0 27 9 49h113v74h-90zM706 43.5q11 -7.5 11 -23.5v-66q-114 -14 -227 -14q-98 0 -164 10q-53 8 -83 26.5t-42 50.5
q-9 27 -9 68q0 40 9 80h377v41h-333q-25 0 -38 12t-13 33v50h468q34 0 34 -33v-153q0 -38 -40 -38h-344q0 -16 8 -25t31 -13q48 -8 139 -8q93 0 186 8q19 2 30 -5.5z" />
    <glyph glyph-name="uniACD5" unicode="&#xacd5;" 
d="M715 464v-48q0 -39 -4 -55q-5 -26 -25 -38.5t-58 -12.5q-9 0 -33 2v460h86q34 0 34 -33v-275zM339 548q-24 -67 -72.5 -128.5t-102.5 -98.5q-36 -25 -60 -25q-13 0 -23 6q-16 8 -27.5 24t-14.5 32q77 58 130 128t62 122h-131q-33 0 -33 32v78h259q31 0 31 -33v-29h73v106
h81q34 0 34 -33v-356q0 -27 -8 -41t-26 -19q-14 -5 -36 -5q-15 0 -45 4v50q-14 -1 -37 -1q-39 0 -55.5 6.5t-23.5 20.5q-6 12 -6 32q0 27 9 49h113v79h-91zM663 278q33 0 33 -32v-247q-36 -30 -104 -47t-148 -17q-32 0 -65 3q-78 7 -122.5 36t-59.5 80q-11 39 -11 100
q0 59 10 124h86q15 0 21 -6t6 -18q0 -14 -2 -46h268v70h88zM450 38q74 0 125 19v55h-264q1 -2 1 -6q3 -27 20.5 -41.5t55.5 -21.5q32 -5 62 -5z" />
    <glyph glyph-name="uniACD7" unicode="&#xacd7;" 
d="M686 213.5q-20 -12.5 -57 -12.5q-8 0 -34 2v569h86q34 0 34 -33v-384v-48q0 -39 -4 -55q-5 -26 -25 -38.5zM345 558q-20 -79 -69.5 -151t-107.5 -116q-36 -26 -61 -26q-11 0 -23 5q-16 8 -28 23t-16 32q80 65 132 143.5t61 139.5h-133q-33 0 -33 32v78h259q31 0 31 -32
v-20h73v95h81q34 0 34 -33v-366q0 -27 -8 -41t-26 -19q-14 -5 -36 -5q-15 0 -45 4v46q-14 -1 -37 -1q-39 0 -55.5 6.5t-23.5 20.5q-6 12 -6 32q0 27 9 49h113v104h-85zM664 80q47 -21 47 -60q0 -23 -12.5 -40.5t-35.5 -28.5l-247 107q-54 -50 -133 -86q-42 -17 -68 -17
q-18 0 -31 7q-41 20 -44 73q120 49 184 101.5t65 103.5v31h82q18 0 25.5 -8.5t7.5 -26.5q0 -40 -16 -80z" />
    <glyph glyph-name="uniACD8" unicode="&#xacd8;" 
d="M686 292.5q-20 -12.5 -58 -12.5q-9 0 -33 2v490h86q34 0 34 -33v-305v-48q0 -39 -4 -55q-5 -26 -25 -38.5zM103 283q-10 0 -22 5q-15 8 -27 24t-15 32q78 59 130.5 130t61.5 125h-131q-33 0 -33 32v78h259q31 0 31 -32v-32h73v117h81q34 0 34 -33v-371q0 -27 -8 -41
t-26 -19q-14 -5 -36 -5q-15 0 -45 4v62q-13 -1 -35 -1q-40 0 -57 6.5t-24 19.5q-6 12 -6 32q0 26 9 47h113v74h-91q-24 -68 -72 -129.5t-102 -99.5q-37 -25 -62 -25zM715 69q26 -15 26 -43q0 -10 -5 -23q-6 -16 -21 -27t-35 -15l-130 80q-28 -37 -59 -63q-34 -28 -68 -28
q-25 0 -45 15t-28 38l17 13l-63 47q-28 -41 -68 -72q-31 -24 -60 -24q-26 0 -45.5 15.5t-27.5 39.5q69 52 107 105t38 111v26h74q33 0 33 -32q0 -35 -7 -63l100 -77q61 72 61 149v20h74q33 0 33 -32q0 -41 -14 -85z" />
    <glyph glyph-name="uniACE0" unicode="&#xace0;" 
d="M171 562q-30 0 -30 29v81h479q28 -1 28 -29v-57v-104q0 -159 -4 -178q-9 -48 -79 -48q-16 0 -37 3v303h-357zM731 180q34 0 34 -33v-77h-706q-34 0 -34 33v77h257v220h105q34 0 34 -33v-187h310z" />
    <glyph glyph-name="uniACE1" unicode="&#xace1;" 
d="M174 631q-30 0 -30 29v81h479q28 -1 28 -29v-57v-39q0 -109 -4 -128q-4 -25 -23 -36t-56 -11q-9 0 -37 2v188h-357zM731 405q34 0 34 -33v-75h-706q-34 0 -34 33v75h258v140h100q34 0 34 -33v-107h314zM657 132v-66q0 -63 -4 -79q-10 -51 -88 -51q-23 0 -36 2v179h-363
q-34 0 -34 33v77h491q34 0 34 -33v-62z" />
    <glyph glyph-name="uniACE4" unicode="&#xace4;" 
d="M174 631q-30 0 -30 29v81h479q28 -1 28 -29v-57v-43q0 -125 -4 -144q-4 -25 -23 -36t-56 -11q-9 0 -37 2v208h-357zM731 387q34 0 34 -33v-75h-706q-34 0 -34 33v75h258v152h100q34 0 34 -33v-119h314zM649.5 61.5q14.5 -9.5 14.5 -28.5v-68q-95 -16 -214 -16
q-72 0 -129 6q-80 8 -122 33t-55 68q-10 33 -10 95q0 40 5 77h90q16 0 23.5 -7.5t7.5 -25.5q0 -53 4 -78q5 -21 20.5 -32.5t47.5 -16.5q46 -7 117 -7q82 0 164 8q22 2 36.5 -7.5z" />
    <glyph glyph-name="uniACE7" unicode="&#xace7;" 
d="M174 632q-30 0 -30 29v81h479q28 -1 28 -29v-57v-35q0 -99 -4 -117q-4 -25 -23 -36t-56 -11q-9 0 -37 2v173h-357zM731 418q34 0 34 -33v-75h-706q-34 0 -34 33v75h258v131h100q34 0 34 -33v-98h314zM655 47.5q12 -9.5 12 -30.5v-66q-109 -16 -221 -16q-80 0 -139 7
q-144 17 -166 103q-7 24 -7 61q0 65 20 143h460q34 0 34 -30v-76h-386q-3 -16 -3 -32q0 -14 3 -25q5 -13 19.5 -20.5t49.5 -11.5q55 -7 128 -7q79 0 162 8q22 2 34 -7.5z" />
    <glyph glyph-name="uniACE8" unicode="&#xace8;" 
d="M174 636q-30 0 -30 29v81h479q28 -1 28 -29v-57q0 -103 -4 -122q-5 -25 -23.5 -36t-54.5 -11q-10 0 -38 2v143h-357zM731 460q34 0 34 -33v-72h-706q-34 0 -34 33v72h258v97h100q34 0 34 -33v-64h314zM664 19v-66q-117 -16 -238 -16q-89 0 -157 11q-50 9 -80 27t-41 47
q-11 28 -11 72q0 38 9 77h381v42h-340q-23 0 -35.5 11t-12.5 31v54h473q31 0 31 -30v-159q0 -35 -37 -35h-351q-1 -18 7.5 -26.5t30.5 -13.5q45 -8 139 -8q104 0 194 8q38 3 38 -26z" />
    <glyph glyph-name="uniACEA" unicode="&#xacea;" 
d="M174 632q-30 0 -30 29v81h479q28 -1 28 -29v-57v-32q0 -87 -4 -105q-5 -25 -23.5 -36t-54.5 -11q-10 0 -38 2v158h-357zM731 443q34 0 34 -33v-72h-706q-34 0 -34 33v72h258v123h100q34 0 34 -33v-90h314zM383.5 23.5q9.5 -7.5 9.5 -21.5v-55q-48 -9 -105 -9q-18 0 -50 2
q-92 11 -108 73q-5 18 -5 52q0 40 8 85h147v41h-104q-43 0 -43 37v54h208q33 0 33 -32v-146q0 -17 -10 -27t-29 -10h-106q-1 -19 6 -27t26 -10q20 -2 40 -2q22 0 56 2q17 1 26.5 -6.5zM617 279q17 0 27.5 -8.5t10.5 -22.5v-286q-47 -32 -113 -32q-55 0 -91.5 22t-44.5 71
q-5 37 -5 84q0 85 12 172h204zM504 185q-3 -31 -3 -68q0 -43 4 -62q2 -13 11.5 -19t21.5 -6q11 0 17 3v152h-51z" />
    <glyph glyph-name="uniACEC" unicode="&#xacec;" 
d="M174 631q-30 0 -30 29v81h479q28 -1 28 -29v-57v-32q0 -87 -4 -105q-5 -25 -23.5 -36t-54.5 -11q-10 0 -38 2v158h-357zM731 443q34 0 34 -33v-72h-706q-34 0 -34 33v72h259v123h100q34 0 34 -33v-90h313zM663 54q24 -30 24 -51q0 -10 -5 -20q-6 -16 -26 -27t-40 -13
l-84 101q-23 -48 -47 -76q-25 -26 -56 -26q-25 0 -49 17v-13q-43 -8 -89 -8q-34 0 -51 2q-92 10 -108 72q-5 18 -5 51q0 41 8 84h159v42h-112q-22 0 -34.5 10.5t-12.5 29.5v52h223q33 0 33 -32v-147q0 -18 -10 -27.5t-29 -9.5h-120q-1 -19 5.5 -26t27.5 -10q9 -1 33 -1l52 1
q24 0 29 -20q49 58 77 126.5t28 119.5v27h70q29 0 29 -27v-16q0 -34 -9 -75z" />
    <glyph glyph-name="uniACEF" unicode="&#xacef;" 
d="M174 631q-30 0 -30 29v81h479q28 -1 28 -29v-57v-31q0 -84 -4 -101q-5 -25 -23.5 -36t-54.5 -11q-10 0 -38 2v153h-357zM731 443q34 0 34 -33v-72h-706q-34 0 -34 33v72h258v115h100q34 0 34 -33v-82h314zM649 217q36 0 36 -35v-50h-278q-34 0 -34 35v50h108q-2 8 -13 54
q28 24 64 24q28 0 43 -13t15 -36q0 -11 -5 -29h64zM364.5 22.5q9.5 -7.5 9.5 -21.5v-56q-51 -8 -94 -8q-16 0 -46 2q-91 9 -108 73q-5 18 -5 51q0 40 8 85h143v42h-101q-42 0 -42 36v55h203q33 0 33 -32v-147q0 -17 -10 -26.5t-29 -9.5h-101q-1 -20 5.5 -27.5t26.5 -9.5
q10 -1 37 -1q29 0 44 1q17 1 26.5 -6.5zM626 92q37 -27 37 -74q0 -43 -36.5 -66.5t-97.5 -23.5t-97.5 23.5t-36.5 66.5q0 47 36.5 74t97.5 27q60 0 97 -27zM556 15q9 6 9 15t-10.5 16t-25.5 7t-25.5 -7t-10.5 -16t9.5 -15t26.5 -6q18 0 27 6z" />
    <glyph glyph-name="uniACF0" unicode="&#xacf0;" 
d="M174 642q-30 0 -30 29v81h479q28 -1 28 -29v-57v-37q0 -106 -4 -125q-4 -25 -23 -36t-56 -11q-9 0 -37 2v183h-357zM731 425q34 0 34 -33v-75h-706q-34 0 -34 33v75h258v132h100q34 0 34 -33v-99h314zM622 253q34 0 34 -33v-227q-42 -29 -115 -44t-148 -15q-18 0 -50 2
q-90 7 -139.5 34.5t-64.5 80.5q-9 32 -9 72q0 65 19 130h473zM260 148q-1 -9 -1 -25q0 -31 13 -48t46 -25q35 -8 84 -8q76 0 127 17v89h-269z" />
    <glyph glyph-name="uniACF1" unicode="&#xacf1;" 
d="M174 632q-30 0 -30 29v81h479q28 -1 28 -29v-57v-37q0 -106 -4 -125q-4 -25 -23 -36t-56 -11q-9 0 -37 2v183h-357zM732 416q34 0 34 -33v-75h-706q-34 0 -34 33v75h257v142h100q34 0 34 -33v-109h315zM622 255q32 0 32 -31v-248q-41 -24 -109 -36t-142 -12q-38 0 -73 3
q-83 8 -128 37t-56 82q-9 41 -9 102q0 41 5 103h87q14 0 20.5 -6t6.5 -20l-1 -37h280v63h87zM410 32q81 0 125 11v55h-276q5 -27 25 -42.5t58 -20.5q30 -3 68 -3z" />
    <glyph glyph-name="uniACF3" unicode="&#xacf3;" 
d="M174 633q-30 0 -30 29v81h479q28 -1 28 -29v-57v-39q0 -114 -4 -133q-4 -25 -23 -36t-56 -11q-9 0 -37 2v193h-357zM732 399q34 0 34 -33v-75h-706q-34 0 -34 33v75h257v145h100q34 0 34 -33v-112h315zM629 67q49 -17 49 -59q0 -23 -12 -41t-34 -28l-248 91
q-53 -43 -134 -76q-39 -15 -66 -15q-19 0 -33 7q-20 9 -31 29t-12 48q243 92 244 177l1 32h83q35 0 35 -37q0 -35 -12 -65z" />
    <glyph glyph-name="uniACF5" unicode="&#xacf5;" 
d="M174 632q-30 0 -30 29v81h479q28 -1 28 -29v-57v-36q0 -102 -4 -121q-4 -25 -23 -36t-56 -11q-9 0 -37 2v178h-357zM732 412q34 0 34 -33v-75h-706q-34 0 -34 33v75h257v137h100q34 0 34 -33v-104h315zM537.5 232q59.5 -22 90.5 -60.5t31 -86.5q0 -76 -67 -116.5
t-196 -40.5t-197 41t-68 116q0 48 31.5 86.5t91.5 60.5t142 22t141.5 -22zM522 90q0 27 -31 44t-95 17t-96 -17t-32 -44t31 -42.5t97 -15.5q126 0 126 58z" />
    <glyph glyph-name="uniACF6" unicode="&#xacf6;" 
d="M174 632q-30 0 -30 29v81h479q28 -1 28 -29v-57v-36q0 -102 -4 -121q-4 -25 -23 -36t-56 -11q-9 0 -37 2v178h-357zM732 415q34 0 34 -33v-72h-706q-34 0 -34 33v72h257v132h100q34 0 34 -33v-99h315zM621 60q28 -7 40.5 -20.5t12.5 -33.5q0 -18 -10 -35.5t-26 -26.5
l-263 68q-56 -38 -136 -64q-24 -8 -47 -8q-25 0 -42 10q-16 9 -24.5 28.5t-9.5 45.5q93 23 153.5 52.5t69.5 55.5h-172q-32 0 -32 31v80h494q32 0 32 -31v-80h-199q-1 -13 -8 -30z" />
    <glyph glyph-name="uniACF9" unicode="&#xacf9;" 
d="M174 636q-30 0 -30 29v81h479q28 -1 28 -29v-57v-31q0 -84 -4 -101q-5 -25 -23.5 -36t-54.5 -11q-10 0 -38 2v153h-357zM732 447q34 0 34 -33v-72h-706q-34 0 -34 33v72h257v112h100q34 0 34 -33v-79h315zM659.5 34.5q10.5 -7.5 10.5 -22.5v-64q-109 -15 -222 -15
q-68 0 -122 6q-83 10 -129.5 41.5t-58.5 82.5q-8 35 -8 80q0 78 21 151h464q17 0 25 -7.5t8 -24.5v-66h-407q-3 -15 -3 -33h362q33 0 33 -32v-58h-379q21 -25 79 -34q45 -6 122 -6q85 0 176 7q18 2 28.5 -5.5z" />
    <glyph glyph-name="uniACFC" unicode="&#xacfc;" 
d="M665 95v-48q0 -39 -4 -55q-5 -26 -26 -38.5t-61 -12.5q-11 0 -37 2v829h94q34 0 34 -33v-268q36 6 58 6q27 0 41.5 -8.5t20.5 -24.5q5 -12 5 -33q0 -37 -18 -66h-107v-250zM112 572q-37 0 -37 36v73h352q37 0 37 -36v-61q0 -145 -7 -219q-3 -31 -19 -46t-49 -15
q-27 0 -52 11q13 126 13 251v6h-238zM491 239.5q11 -8.5 11 -25.5v-69q-146 -19 -341 -19q-58 0 -83 1q-22 1 -31.5 10.5t-9.5 30.5v66q28 -1 86 -1h36v230h88q34 0 34 -33v-195q107 5 180 11q19 2 30 -6.5z" />
    <glyph glyph-name="uniACFD" unicode="&#xacfd;" 
d="M790 482q0 -36 -18 -63h-107v-45q0 -37 -4 -53q-5 -26 -26 -38.5t-61 -12.5q-11 0 -37 2v500h94q34 0 34 -33v-199q36 6 58 6q27 0 41.5 -8t20.5 -24q5 -11 5 -32zM126 632q-37 0 -37 36v72h346q37 0 37 -36v-61q0 -94 -4 -145q-3 -29 -18.5 -43.5t-47.5 -14.5
q-24 0 -51 11q8 99 8 174v7h-233zM502 311q-146 -19 -341 -19q-58 0 -83 1q-22 1 -31.5 10.5t-9.5 30.5v59q28 -1 86 -1h36v155h88q34 0 34 -33v-120q107 5 180 11q19 2 30 -6.5t11 -25.5v-62zM665 135l1 -63q0 -56 -5 -85q-9 -51 -84 -51q-23 0 -36 2v182h-351
q-34 0 -34 33v77h475q34 0 34 -33v-62z" />
    <glyph glyph-name="uniAD00" unicode="&#xad00;" 
d="M790 470q0 -36 -18 -63h-107v-97v-48q0 -39 -4 -55q-10 -51 -86 -51q-24 0 -38 2v614h94q34 0 34 -33v-211q36 6 58 6q27 0 41.5 -8t20.5 -24q5 -11 5 -32zM114 615q-37 0 -37 36v72h346q37 0 37 -36v-61q0 -105 -5 -159q-3 -30 -18 -44.5t-48 -14.5q-26 0 -51 11
q9 104 9 189v7h-233zM502 271q-149 -19 -347 -19q-53 0 -77 1q-22 1 -31.5 10.5t-9.5 30.5v63q30 -1 90 -1h37v176h88q34 0 34 -33v-141q104 5 175 11q19 2 30 -6.5t11 -25.5v-66zM649 80q33 0 33 -37v-69q-92 -19 -222 -19q-93 0 -164 10q-60 8 -92 33t-41 66q-7 27 -7 69
q0 34 5 71h85q33 0 33 -37q-2 -30 2 -50q3 -16 19 -27.5t44 -16.5q42 -6 103 -6q103 0 192 12q3 1 10 1z" />
    <glyph glyph-name="uniAD04" unicode="&#xad04;" 
d="M790 520q0 -36 -18 -63h-107v-34.5t-4 -46.5q-5 -26 -26 -38.5t-61 -12.5q-11 0 -37 2v445h94q34 0 34 -33v-161q36 6 58 6q27 0 41.5 -8t20.5 -24q5 -11 5 -32zM124 645q-37 0 -37 36v72h346q37 0 37 -36v-61q0 -91 -3 -121q-3 -28 -18 -42t-48 -14q-23 0 -50 11
q6 75 6 148v7h-233zM508 355q-146 -19 -341 -19q-58 0 -83 1q-22 1 -31.5 10.5t-9.5 30.5v59q28 -1 86 -1h36v136h88q34 0 34 -33v-101q107 5 180 11q19 2 30 -6.5t11 -25.5v-62zM662 38q11 -8 11 -24v-60q-117 -14 -231 -14q-93 0 -162 9q-53 8 -83 26t-42 50q-9 26 -9 64
q0 34 8 74h381v40h-336q-25 0 -38 12t-13 33v46h470q34 0 34 -33v-143q0 -38 -40 -38h-346q0 -16 8 -24.5t32 -12.5q51 -7 138 -7q97 0 188 8q19 2 30 -6z" />
    <glyph glyph-name="uniAD06" unicode="&#xad06;" 
d="M790 530q0 -36 -18 -63h-107v-31q0 -42 -4 -60q-5 -26 -26 -38.5t-61 -12.5q-11 0 -37 2v445h94q34 0 34 -33v-151q36 6 58 6q27 0 41.5 -8t20.5 -24q5 -11 5 -32zM124 645q-37 0 -37 36v72h346q37 0 37 -36v-61q0 -91 -3 -121q-3 -28 -18 -42t-48 -14q-23 0 -50 11
q6 75 6 148v7h-233zM508 345q-146 -19 -341 -19q-58 0 -83 1q-22 1 -31.5 10.5t-9.5 30.5v59q28 -1 86 -1h36v145h88q34 0 34 -33v-110q107 5 180 11q19 2 30 -6.5t11 -25.5v-62zM396 3v-55q-47 -9 -103 -9q-29 0 -56 3q-93 9 -108 72q-5 23 -5 51q0 40 8 83h151v39h-107
q-21 0 -32 10t-11 28v53h212q32 0 32 -32v-143q0 -36 -38 -36h-111q0 -20 6.5 -27.5t26.5 -9.5q8 -1 34 -1t66 2q35 2 35 -28zM626 271q17 0 27.5 -8.5t10.5 -22.5v-274q-49 -33 -119 -33q-126 0 -142 91q-5 35 -5 80q0 80 12 167h216zM504 177q-2 -38 -2 -62q0 -38 3 -58
q2 -13 11.5 -19t22.5 -6t23 5v140h-58z" />
    <glyph glyph-name="uniAD0C" unicode="&#xad0c;" 
d="M665 434v-48q0 -39 -4 -55q-5 -26 -26 -38.5t-61 -12.5q-11 0 -37 2v490h94q34 0 34 -33v-171q36 6 58 6q27 0 41.5 -8t20.5 -24q5 -11 5 -32q0 -36 -18 -63h-107v-13zM114 615q-37 0 -37 36v72h346q37 0 37 -36v-61q0 -102 -4 -138q-3 -29 -18 -43.5t-47 -14.5
q-25 0 -52 11q8 79 8 167v7h-233zM501 306q-149 -19 -347 -19q-53 0 -77 1q-22 1 -31.5 10.5t-9.5 30.5v63q30 -1 90 -1h38v141h88q34 0 34 -33v-106q102 4 174 11q19 2 30 -6.5t11 -25.5v-66zM623 242q32 0 32 -31v-212q-46 -32 -115 -49.5t-150 -17.5q-24 0 -36 1
q-84 5 -134 33t-63 79q-8 28 -8 75q0 64 13 122h461zM268 142q-1 -6 -1 -18q0 -36 16.5 -54t54.5 -25q32 -5 65 -5q39 0 75 6t56 17v79h-266z" />
    <glyph glyph-name="uniAD0D" unicode="&#xad0d;" 
d="M790 510q0 -36 -18 -63h-107v-31q0 -42 -4 -60q-5 -26 -26 -38.5t-61 -12.5q-11 0 -37 2v465h94q34 0 34 -33v-171q36 6 58 6q27 0 41.5 -8t20.5 -24q5 -11 5 -32zM114 635q-37 0 -37 36v72h346q37 0 37 -36v-61q0 -98 -4 -131q-3 -29 -18 -43t-47 -14q-24 0 -51 11
q7 77 7 159v7h-233zM502 326q-149 -19 -347 -19q-53 0 -77 1q-22 1 -31.5 10.5t-9.5 30.5v63q30 -1 90 -1h37v131h88q34 0 34 -33v-96q104 5 175 11q19 2 30 -6.5t11 -25.5v-66zM621 263q33 0 33 -32v-232q-35 -30 -104 -47t-151 -17q-33 0 -68 3q-80 7 -125 35.5t-61 79.5
q-10 33 -10 92q0 61 9 118h86q15 0 21 -6t6 -20q0 -12 -2 -38h278v64h88zM400 37q37 0 73 5t60 14v50h-274v-3q3 -27 20.5 -40.5t55.5 -20.5q32 -5 65 -5z" />
    <glyph glyph-name="uniAD0F" unicode="&#xad0f;" 
d="M790 470q0 -36 -18 -63h-107v-67v-48q0 -39 -4 -55q-10 -51 -86 -51q-24 0 -38 2v584h94q34 0 34 -33v-211q36 6 58 6q27 0 41.5 -8t20.5 -24q5 -11 5 -32zM114 615q-37 0 -37 36v72h346q37 0 37 -36v-61q0 -94 -4 -145q-3 -29 -18.5 -43.5t-47.5 -14.5q-24 0 -51 11
q8 99 8 174v7h-233zM502 290q-149 -19 -347 -19q-53 0 -77 1q-22 1 -31.5 10.5t-9.5 30.5v63q30 -1 90 -1h37v147h88q34 0 34 -33v-112q104 5 175 11q19 2 30 -6.5t11 -25.5v-66zM642 76q47 -18 47 -56q0 -22 -11.5 -40t-31.5 -28l-250 90q-54 -44 -132 -75q-43 -15 -71 -15
q-19 0 -35 8q-18 10 -28 29.5t-10 45.5q248 84 248 170v25h81q17 0 24.5 -8t7.5 -26q0 -28 -10 -56z" />
    <glyph glyph-name="uniAD10" unicode="&#xad10;" 
d="M790 470q0 -36 -18 -63h-107v-34.5t-4 -46.5q-5 -26 -26 -38.5t-61 -12.5q-11 0 -37 2v495h94q34 0 34 -33v-211q36 6 58 6q27 0 41.5 -8t20.5 -24q5 -11 5 -32zM114 632q-37 0 -37 36v72h346q37 0 37 -36v-61q0 -94 -4 -145q-3 -29 -18.5 -43.5t-47.5 -14.5
q-24 0 -51 11q8 99 8 174v7h-233zM502 309q-149 -19 -347 -19q-53 0 -77 1q-22 1 -31.5 10.5t-9.5 30.5v63q30 -1 90 -1h37v155h88q34 0 34 -33v-120q104 4 175 11q19 2 30 -6.5t11 -25.5v-66zM683 71q28 -17 28 -45q0 -24 -15.5 -41.5t-41.5 -23.5l-131 76q-23 -30 -56 -57
q-34 -27 -70 -27q-24 0 -44 15t-27 39l16 11l-57 39q-26 -37 -64 -64q-32 -23 -61 -23q-27 0 -47 16t-26 41q143 97 143 189v25h74q33 0 33 -32q0 -25 -6 -51l95 -67q55 62 55 130v20h73q33 0 33 -32q0 -34 -11 -72z" />
    <glyph glyph-name="uniAD11" unicode="&#xad11;" 
d="M790 490q0 -36 -18 -63h-107v-18v-48q0 -39 -4 -55q-5 -26 -26 -38.5t-61 -12.5q-11 0 -37 2v515h94q34 0 34 -33v-191q36 6 58 6q27 0 41.5 -8t20.5 -24q5 -11 5 -32zM114 618q-37 0 -37 36v72h346q37 0 37 -36v-61q0 -94 -4 -145q-3 -29 -18.5 -43.5t-47.5 -14.5
q-24 0 -51 11q8 99 8 174v7h-233zM502 293q-149 -19 -347 -19q-53 0 -77 1q-22 1 -31.5 10.5t-9.5 30.5v63q30 -1 90 -1h37v150h88q34 0 34 -33v-115q104 5 175 11q19 2 30 -6.5t11 -25.5v-66zM559.5 220q59.5 -22 88.5 -59t29 -82q0 -69 -65.5 -108t-197.5 -39t-197.5 39
t-65.5 108q0 45 29 82t88.5 59t145.5 22t145.5 -22zM517.5 50.5q30.5 12.5 30.5 36.5t-33 39t-101 15t-101 -15t-33 -39t30.5 -36.5t103.5 -12.5t103.5 12.5z" />
    <glyph glyph-name="uniAD12" unicode="&#xad12;" 
d="M790 530q0 -36 -18 -63h-107v-13v-48q0 -39 -4 -55q-5 -26 -26 -38.5t-61 -12.5q-11 0 -37 2v470h94q34 0 34 -33v-151q36 6 58 6q27 0 41.5 -8t20.5 -24q5 -11 5 -32zM124 645q-37 0 -37 36v72h346q37 0 37 -36v-61q0 -91 -3 -121q-3 -28 -18 -42t-48 -14q-23 0 -50 11
q6 75 6 148v7h-233zM508 329q-146 -19 -341 -19q-58 0 -83 1q-22 1 -31.5 10.5t-9.5 30.5v59q30 -1 92 -1h38v146h88q34 0 34 -33v-111q102 5 172 11q19 2 30 -6.5t11 -25.5v-62zM621 62q52 -16 52 -56q0 -19 -10.5 -37t-27.5 -27l-251 76q-57 -45 -137 -71q-27 -9 -48 -9
q-24 0 -40 10q-15 9 -24.5 28.5t-9.5 45.5q90 26 149.5 61t68.5 64h-167q-32 0 -32 31v80h484q32 0 32 -31v-80h-194q-1 -16 -8 -36z" />
    <glyph glyph-name="uniAD18" unicode="&#xad18;" 
d="M720 95v-48q0 -39 -4 -55q-5 -26 -25 -38.5t-58 -12.5q-9 0 -33 2v398h-60v-303q0 -27 -8 -41t-26 -19q-14 -5 -36 -5q-15 0 -45 4v785h81q34 0 34 -33v-258h60v301h86q34 0 34 -33v-644zM94 598q-37 0 -37 36v72h291q37 0 37 -36v-61q0 -149 -9 -236q-3 -32 -18 -47
t-48 -15q-26 0 -50 11q13 137 13 269v7h-179zM386 240q11 -8 11 -25v-74q-133 -18 -278 -18q-36 0 -51 1q-22 1 -31.5 10.5t-9.5 30.5v70q30 -1 90 -1v222h85q34 0 34 -33v-186q75 5 120 9q19 2 30 -6z" />
    <glyph glyph-name="uniAD1C" unicode="&#xad1c;" 
d="M470 178q-15 0 -45 4v580h81q34 0 34 -33v-188h60v231h86q34 0 34 -33v-429v-48q0 -39 -4 -55q-5 -26 -25 -38.5t-57 -12.5q-8 0 -34 2v259h-60v-174q0 -27 -8 -41t-26 -19q-14 -5 -36 -5zM111 619q-37 0 -37 36v71h275q37 0 37 -36v-61q0 -117 -6 -173q-5 -48 -39 -56
q-13 -3 -26 -3q-25 0 -49 11q9 96 9 203v8h-164zM397 266q-133 -18 -278 -18q-36 0 -51 1q-22 1 -31.5 10.5t-9.5 30.5v66q30 -1 90 -1v171h85q34 0 34 -33v-135q75 5 120 9q19 2 30 -6t11 -25v-70zM693 81q33 0 33 -36v-71q-104 -19 -241 -19q-101 0 -175 10q-62 8 -95 33
t-42 67q-7 27 -7 71q0 36 5 73h85q33 0 33 -37q-2 -33 3 -54q3 -16 19 -28t44 -16q46 -7 125 -7q109 0 203 13q4 1 10 1z" />
    <glyph glyph-name="uniAD20" unicode="&#xad20;" 
d="M470 318q-15 0 -45 4v440h81q34 0 34 -33v-148h60v191h86q34 0 34 -33v-280v-48q0 -39 -4 -55q-5 -26 -25 -38.5t-58 -12.5q-9 0 -33 2v150h-60v-74q0 -27 -8 -41t-26 -19q-14 -5 -36 -5zM110 639q-37 0 -37 36v71h277q37 0 37 -36v-61q0 -102 -4 -138
q-3 -29 -17.5 -43.5t-47.5 -14.5q-23 0 -48 11q7 83 7 167v8h-167zM397 327q-133 -18 -278 -18q-36 0 -51 1q-22 1 -31.5 10.5t-9.5 30.5v63q32 -1 96 -1v153h80q34 0 34 -33v-116q66 3 119 8q19 2 30 -6t11 -25v-67zM715 33.5q11 -7.5 11 -24.5v-55q-106 -14 -235 -14
q-106 0 -179 10q-53 7 -82.5 24t-41.5 49q-8 23 -8 61q0 37 7 68h402v38h-356q-25 0 -38 12t-13 33v42h489q34 0 34 -33v-133q0 -38 -40 -38h-366q1 -16 8.5 -23t32.5 -11q44 -6 155 -6q109 0 190 7q19 1 30 -6.5z" />
    <glyph glyph-name="uniAD22" unicode="&#xad22;" 
d="M720 449v-48q0 -39 -4 -55q-5 -26 -25 -38.5t-58 -12.5q-9 0 -33 2v140h-60v-64q0 -27 -8 -41t-26 -19q-14 -5 -36 -5q-15 0 -45 4v450h81q34 0 34 -33v-168h60v211h86q34 0 34 -33v-290zM110 639q-37 0 -37 36v71h272q37 0 37 -36v-61q0 -105 -4 -142q-3 -29 -17.5 -43
t-47.5 -14q-23 0 -48 11q7 84 7 170v8h-162zM397 329q-133 -18 -278 -18q-36 0 -51 1q-22 1 -31.5 10.5t-9.5 30.5v63q30 -1 90 -1v141h85q34 0 34 -33v-105q75 5 120 9q19 2 30 -6t11 -25v-67zM430 3v-55q-48 -9 -109 -9q-33 0 -60 3q-95 9 -108 72q-4 17 -4 47q0 43 7 81
h160v35h-113q-22 0 -34 10.5t-12 28.5v52h222q32 0 32 -31v-138q0 -36 -38 -36h-121q0 -18 6.5 -25t26.5 -9q9 -1 37 -1q29 0 73 2q35 2 35 -27zM670 261q17 0 27.5 -8.5t10.5 -22.5v-262q-51 -34 -128 -34q-124 0 -141 88q-6 30 -6 76q0 67 13 163h224zM542 167
q-2 -32 -2 -52q0 -38 3 -58q2 -13 12.5 -19t23.5 -6t25 6v129h-62z" />
    <glyph glyph-name="uniAD29" unicode="&#xad29;" 
d="M720 439v-48q0 -39 -4 -55q-5 -26 -25 -38.5t-58 -12.5q-9 0 -33 2v170h-60v-104q0 -27 -8 -41t-26 -19q-14 -5 -36 -5q-15 0 -45 4v470h81q34 0 34 -33v-148h60v191h86q34 0 34 -33v-300zM110 631q-37 0 -37 36v71h272q37 0 37 -36v-61q0 -102 -4 -138
q-3 -29 -17.5 -43.5t-47.5 -14.5q-23 0 -48 11q7 83 7 167v8h-162zM397 309q-133 -18 -278 -18q-36 0 -51 1q-22 1 -31.5 10.5t-9.5 30.5v63q30 -1 90 -1v153h85q34 0 34 -33v-117q75 5 120 9q19 2 30 -6t11 -25v-67zM669 253q33 0 33 -32v-222q-35 -30 -105.5 -47
t-154.5 -17q-33 0 -66 3q-82 7 -127 35t-60 79q-10 33 -10 92q0 51 8 109h85q15 0 21 -6t6 -20l-1 -34h283v60h88zM444 36q38 0 75 5t62 14v47h-279v-1q3 -26 19.5 -39t55.5 -21q33 -5 67 -5z" />
    <glyph glyph-name="uniAD2C" unicode="&#xad2c;" 
d="M470 268q-15 0 -45 4v490h81q34 0 34 -33v-158h60v201h86q34 0 34 -33v-319v-48q0 -39 -4 -55q-5 -26 -25 -38.5t-57 -12.5q-8 0 -34 2v179h-60v-114q0 -27 -8 -41t-26 -19q-14 -5 -36 -5zM110 629q-37 0 -37 36v71h272q37 0 37 -36v-61q0 -102 -4 -138
q-3 -29 -17.5 -43.5t-47.5 -14.5q-23 0 -48 11q7 83 7 167v8h-162zM397 302q-133 -18 -278 -18q-36 0 -51 1q-22 1 -31.5 10.5t-9.5 30.5v63q31 -1 93 -1v158h85q34 0 34 -33v-121q62 3 117 8q19 2 30 -6t11 -25v-67zM712 70q27 -13 27 -43q0 -24 -15.5 -41.5t-40.5 -23.5
l-137 72q-28 -33 -58 -56q-36 -27 -70 -27q-25 0 -44 15.5t-28 39.5l14 9l-60 41q-31 -40 -68 -65q-31 -22 -59 -22q-13 0 -24 4q-18 5 -31 20t-17 34q67 45 105.5 91t38.5 97v23h73q33 0 33 -31q0 -23 -5 -50l100 -71q60 63 60 133v18h74q32 0 32 -32q0 -35 -12 -73z" />
    <glyph glyph-name="uniAD2D" unicode="&#xad2d;" 
d="M470 288q-15 0 -45 4v470h81q34 0 34 -33v-158h60v201h86q34 0 34 -33v-314v-48q0 -39 -4 -55q-5 -26 -25 -38.5t-57 -12.5q-8 0 -34 2v174h-60v-94q0 -27 -8 -41t-26 -19q-14 -5 -36 -5zM103 629q-37 0 -37 36v71h272q37 0 37 -36v-61q0 -107 -4 -145q-5 -47 -39 -55
q-13 -3 -26 -3q-24 0 -49 11q8 83 8 174v8h-162zM397 294q-133 -18 -278 -18q-36 0 -51 1q-22 1 -31.5 10.5t-9.5 30.5v63q31 -1 93 -1v159h85q34 0 34 -33v-122q62 3 117 8q19 2 30 -6t11 -25v-67zM598.5 224.5q61.5 -22.5 91.5 -59.5t30 -83q0 -70 -68 -110t-206 -40
t-206 40t-68 110q0 46 30 83t91.5 59.5t152.5 22.5t152.5 -22.5zM558.5 52.5q32.5 13.5 32.5 37.5t-35 40t-110 16q-74 0 -109.5 -16t-35.5 -40t32.5 -37.5t112.5 -13.5t112.5 13.5z" />
    <glyph glyph-name="uniAD34" unicode="&#xad34;" 
d="M690 95v-48q0 -39 -4 -55q-5 -26 -26 -38.5t-61 -12.5q-11 0 -37 2v829h94q34 0 34 -33v-644zM122 572q-37 0 -37 36v73h352q37 0 37 -36v-61q0 -145 -7 -219q-3 -31 -19 -46t-49 -15q-27 0 -52 11q13 126 13 251v6h-238zM509 240.5q11 -8.5 11 -25.5v-72
q-74 -10 -171 -15t-190 -5q-56 0 -81 1q-22 1 -31.5 10.5t-9.5 30.5v70q43 -2 132 -2v230h88q34 0 34 -33v-194q89 2 188 11q19 2 30 -6.5z" />
    <glyph glyph-name="uniAD35" unicode="&#xad35;" 
d="M660 277.5q-21 -12.5 -61 -12.5q-11 0 -37 2v505h94q34 0 34 -33v-320v-48q0 -39 -4 -55q-5 -26 -26 -38.5zM119 619q-37 0 -37 36v72h358q37 0 37 -36v-61q0 -116 -5 -159q-3 -30 -18 -44.5t-48 -14.5q-26 0 -51 11q8 92 8 189v7h-244zM520 293q-73 -10 -167 -15
t-182 -5q-37 0 -93 2q-22 1 -31.5 10.5t-9.5 30.5v66q43 -2 132 -2v162h88q34 0 34 -33v-126q89 2 188 11q19 2 30 -6.5t11 -25.5v-69zM690 130l1 -60q0 -54 -5 -83q-9 -51 -84 -51q-23 0 -36 2v177h-361q-34 0 -34 33v77h485q34 0 34 -33v-62z" />
    <glyph glyph-name="uniAD38" unicode="&#xad38;" 
d="M600 156q-24 0 -38 2v614h94q34 0 34 -33v-429v-48q0 -39 -4 -55q-10 -51 -86 -51zM119 615q-37 0 -37 36v72h358q37 0 37 -36v-61q0 -116 -5 -159q-3 -30 -18 -44.5t-48 -14.5q-26 0 -51 11q8 92 8 189v7h-244zM520 270q-73 -10 -167 -15t-182 -5q-37 0 -93 2
q-22 1 -31.5 10.5t-9.5 30.5v66q43 -2 132 -2v175h88q34 0 34 -33v-139q89 2 188 11q19 2 30 -6.5t11 -25.5v-69zM668 82q33 0 33 -37v-69q-92 -19 -222 -19q-93 0 -164 10q-60 8 -92 33t-41 66q-7 27 -7 69q0 34 5 71h85q33 0 33 -37q-2 -30 2 -50q3 -16 19 -27.5t44 -16.5
q42 -6 103 -6q103 0 192 12q3 1 10 1z" />
    <glyph glyph-name="uniAD3C" unicode="&#xad3c;" 
d="M660 327.5q-21 -12.5 -61 -12.5q-11 0 -37 2v455h94q34 0 34 -33v-270v-48q0 -39 -4 -55q-5 -26 -26 -38.5zM119 642q-37 0 -37 36v72h358q37 0 37 -36v-61q0 -93 -3 -124q-3 -29 -18 -43t-48 -14q-24 0 -51 11q7 73 7 152v7h-245zM520 345q-73 -10 -167 -15t-182 -5
q-37 0 -93 2q-22 1 -31.5 10.5t-9.5 30.5v66q43 -2 132 -2v147h88q34 0 34 -33v-111q89 2 188 11q19 2 30 -6.5t11 -25.5v-69zM690 34.5q11 -7.5 11 -24.5v-57q-115 -14 -227 -14q-94 0 -166 9q-54 7 -84 24.5t-41 49.5q-9 26 -9 62q0 33 8 71h382v38h-337q-25 0 -38 12
t-13 33v44h470q34 0 34 -33v-137q0 -38 -40 -38h-346q0 -16 8 -23.5t33 -11.5q50 -5 143 -5q98 0 182 6q19 2 30 -5.5z" />
    <glyph glyph-name="uniAD44" unicode="&#xad44;" 
d="M690 424v-48q0 -39 -4 -55q-5 -26 -26 -38.5t-61 -12.5q-11 0 -37 2v500h94q34 0 34 -33v-315zM119 635q-37 0 -37 36v72h358q37 0 37 -36v-61q0 -109 -4 -149q-3 -29 -18.5 -43.5t-47.5 -14.5q-25 0 -52 11q8 85 8 178v7h-244zM520 317q-74 -10 -171 -15t-190 -5
q-56 0 -81 1q-22 1 -31.5 10.5t-9.5 30.5v63q43 -2 132 -2v152h88q34 0 34 -33v-116q89 2 188 11q19 2 30 -6.5t11 -25.5v-65zM649 242q32 0 32 -31v-212q-46 -32 -115 -49.5t-150 -17.5q-24 0 -36 1q-84 5 -134 33t-63 79q-8 28 -8 75q0 64 13 122h461zM294 142
q-1 -6 -1 -18q0 -36 16.5 -54t54.5 -25q32 -5 65 -5q39 0 75 6t56 17v79h-266z" />
    <glyph glyph-name="uniAD45" unicode="&#xad45;" 
d="M690 464v-48q0 -39 -4 -55q-5 -26 -26 -38.5t-61 -12.5q-11 0 -37 2v460h94q34 0 34 -33v-275zM119 635q-37 0 -37 36v72h358q37 0 37 -36v-61q0 -105 -4 -142q-3 -29 -18 -43t-47 -14q-25 0 -52 11q8 96 8 170v7h-245zM520 324q-73 -10 -167 -15t-182 -5q-37 0 -93 2
q-22 1 -31.5 10.5t-9.5 30.5v66q43 -2 132 -2v151h88q34 0 34 -33v-115q89 2 188 11q19 2 30 -6.5t11 -25.5v-69zM639 263q33 0 33 -32v-232q-35 -30 -104 -47t-151 -17q-34 0 -68 3q-80 7 -125 35.5t-61 79.5q-10 33 -10 92q0 61 9 118h86q15 0 21 -6t6 -20q0 -12 -2 -38
h278v64h88zM418 37q37 0 73 5t60 14v50h-274v-3q3 -27 20.5 -40.5t55.5 -20.5q32 -5 65 -5z" />
    <glyph glyph-name="uniAD47" unicode="&#xad47;" 
d="M600 196q-24 0 -38 2v574h94q34 0 34 -33v-389v-48q0 -39 -4 -55q-10 -51 -86 -51zM119 635q-37 0 -37 36v72h358q37 0 37 -36v-61q0 -109 -4 -149q-3 -29 -18.5 -43.5t-47.5 -14.5q-25 0 -52 11q8 85 8 178v7h-244zM520 295q-73 -10 -167 -15t-182 -5q-37 0 -93 2
q-22 1 -31.5 10.5t-9.5 30.5v66q43 -2 132 -2v170h88q34 0 34 -33v-134q89 2 188 11q19 2 30 -6.5t11 -25.5v-69zM656 74q47 -16 47 -55q0 -22 -11.5 -40t-31.5 -28l-250 88q-54 -44 -132 -73q-45 -15 -72 -15q-19 0 -35 8q-18 10 -27.5 29t-9.5 46q125 41 186.5 81.5
t61.5 84.5v24h81q32 0 32 -34q0 -30 -10 -54z" />
    <glyph glyph-name="uniAD49" unicode="&#xad49;" 
d="M660 272.5q-21 -12.5 -61 -12.5q-11 0 -37 2v510h94q34 0 34 -33v-325v-48q0 -39 -4 -55q-5 -26 -26 -38.5zM119 630q-37 0 -37 36v72h358q37 0 37 -36v-61q0 -109 -4 -149q-3 -29 -18.5 -43.5t-47.5 -14.5q-25 0 -52 11q8 85 8 178v7h-244zM520 303q-73 -10 -167 -15
t-182 -5q-37 0 -93 2q-22 1 -31.5 10.5t-9.5 30.5v66q43 -2 132 -2v162h88q34 0 34 -33v-126q89 2 188 11q19 2 30 -6.5t11 -25.5v-69zM576.5 229.5q59.5 -22.5 89 -60.5t29.5 -85q0 -70 -66 -111t-199 -41t-199 41t-66 111q0 47 29.5 85t89 60.5t146.5 22.5t146.5 -22.5z
M535 52.5q31 13.5 31 39.5q0 25 -34 42t-102 17t-102 -17t-34 -42q0 -26 31 -39.5t105 -13.5t105 13.5z" />
    <glyph glyph-name="uniAD50" unicode="&#xad50;" 
d="M177 564q-30 0 -30 29v81h479q28 -1 28 -29v-57v-102q0 -156 -4 -175q-9 -48 -79 -48q-16 0 -37 3v298h-357zM731 168q34 0 34 -33v-75h-706q-34 0 -34 33v75h153v227h95q34 0 34 -33v-194h60v227h95q34 0 34 -33v-194h235z" />
    <glyph glyph-name="uniAD54" unicode="&#xad54;" 
d="M174 641q-30 0 -30 29v81h479q28 -1 28 -29v-57v-47q0 -135 -4 -155q-4 -25 -23 -36t-56 -11q-9 0 -37 2v223h-357zM731 381q34 0 34 -33v-72h-706q-34 0 -34 33v72h153v139h90q34 0 34 -33v-106h71v139h90q34 0 34 -33v-106h234zM623 70q18 0 29.5 -10t11.5 -27v-68
q-95 -16 -216 -16q-72 0 -128 6q-80 8 -122 33t-55 67q-9 33 -9 90q0 40 5 78h90q16 0 23.5 -7.5t7.5 -25.5q0 -56 4 -74q5 -21 20.5 -32t47.5 -16q45 -7 115 -7q83 0 166 8z" />
    <glyph glyph-name="uniAD58" unicode="&#xad58;" 
d="M174 636q-30 0 -30 29v81h479q28 -1 28 -29v-57v-31q0 -84 -4 -101q-5 -25 -23.5 -36t-54.5 -11q-10 0 -38 2v153h-357zM731 450q34 0 34 -33v-70h-706q-34 0 -34 33v70h153v115h90q34 0 34 -33v-82h71v115h90q34 0 34 -33v-82h234zM664 20v-66q-111 -17 -233 -17
q-96 0 -162 12q-99 16 -121 73q-11 30 -11 74q0 39 9 78h381v43h-340q-23 0 -35.5 11t-12.5 31v55h473q31 0 31 -30v-162q0 -35 -37 -35h-350q-1 -18 7.5 -27t29.5 -14q43 -8 139 -8q104 0 194 8q38 3 38 -26z" />
    <glyph glyph-name="uniAD60" unicode="&#xad60;" 
d="M174 622q-30 0 -30 29v81h479q28 -1 28 -29v-57v-35q0 -99 -4 -117q-4 -25 -23 -36t-56 -11q-9 0 -37 2v173h-357zM731 402q34 0 34 -33v-72h-706q-34 0 -34 33v72h153v138h90q34 0 34 -33v-105h71v138h90q34 0 34 -33v-105h234zM622 243q34 0 34 -33v-217
q-42 -29 -115.5 -44t-148.5 -15q-18 0 -50 2q-88 7 -137.5 34t-64.5 80q-9 32 -9 69q0 59 19 124h472zM261 139q-1 -8 -1 -22q0 -29 13 -45t46 -23q29 -7 80 -7q77 0 130 17v80h-268z" />
    <glyph glyph-name="uniAD61" unicode="&#xad61;" 
d="M174 622q-30 0 -30 29v81h479q28 -1 28 -29v-57v-35q0 -99 -4 -117q-4 -25 -23 -36t-56 -11q-9 0 -37 2v173h-357zM732 404q34 0 34 -33v-72h-706q-34 0 -34 33v72h152v134h90q34 0 34 -33v-101h71v134h90q34 0 34 -33v-101h235zM622 250q32 0 32 -31v-243
q-41 -24 -109 -36t-143 -12q-38 0 -73 3q-82 8 -127 37t-56 81q-8 35 -8 97q0 55 4 104h87q14 0 20.5 -6t6.5 -20l-1 -35h280v61h87zM410 32q81 0 125 11v52h-275q4 -26 24 -40.5t58 -19.5q30 -3 68 -3z" />
    <glyph glyph-name="uniAD63" unicode="&#xad63;" 
d="M174 622q-30 0 -30 29v81h479q28 -1 28 -29v-57v-43q0 -125 -4 -144q-4 -25 -23 -36t-56 -11q-9 0 -37 2v208h-357zM732 378q34 0 34 -33v-72h-706q-34 0 -34 33v72h152v141h90q34 0 34 -33v-108h71v141h90q34 0 34 -33v-108h235zM629 67q50 -18 50 -61q0 -22 -12.5 -40
t-33.5 -26l-249 88q-52 -43 -134 -74q-39 -15 -66 -15q-19 0 -33 7q-41 18 -43 78q118 43 180.5 84.5t63.5 84.5l1 31h83q18 0 26 -8.5t8 -27.5q0 -31 -11 -61z" />
    <glyph glyph-name="uniAD65" unicode="&#xad65;" 
d="M174 622q-30 0 -30 29v81h479q28 -1 28 -29v-57v-39q0 -109 -4 -128q-4 -25 -23 -36t-56 -11q-9 0 -37 2v188h-357zM732 381q34 0 34 -33v-72h-706q-34 0 -34 33v72h152v144h90q34 0 34 -33v-111h71v144h90q34 0 34 -33v-111h235zM537.5 227q59.5 -22 90.5 -59.5
t31 -85.5q0 -74 -67 -114t-196 -40q-130 0 -197.5 40t-67.5 114q0 47 31.5 85t91.5 60t142 22t141.5 -22zM522 87q0 27 -31 43.5t-95 16.5t-96 -16.5t-32 -43.5q0 -25 31 -40t97 -15q126 0 126 55z" />
    <glyph glyph-name="uniAD6C" unicode="&#xad6c;" 
d="M174 619q-30 0 -30 29v81h479q28 -1 28 -29v-57v-48q0 -139 -4 -159q-4 -25 -23 -36t-56 -11q-9 0 -37 2v228h-357zM765 233h-303v-147v-31q0 -38 -3 -53q-10 -50 -94 -50q-10 0 -38 2v279h-268q-34 0 -34 33v75h706q34 0 34 -33v-75z" />
    <glyph glyph-name="uniAD6D" unicode="&#xad6d;" 
d="M765 350h-305v-113h163q34 0 34 -33v-62v-70q0 -69 -4 -85q-10 -51 -88 -51q-23 0 -36 2v189h-363q-34 0 -34 33v77h199v113h-272q-34 0 -34 33v75h506v173h-357q-30 0 -30 29v81h479q28 -1 28 -29v-57v-62q0 -100 -2 -135h82q34 0 34 -33v-75z" />
    <glyph glyph-name="uniAD70" unicode="&#xad70;" 
d="M731 462q34 0 34 -33v-75h-275v-72v-27t-3 -36q-9 -47 -88 -47q-10 0 -38 2v180h-302q-34 0 -34 33v75h506v169h-357q-30 0 -30 29v81h479q28 -1 28 -29v-57v-62q0 -98 -2 -131h82zM649.5 60q14.5 -10 14.5 -29v-67q-96 -16 -216 -16q-67 0 -124 6q-78 8 -120.5 34.5
t-56.5 70.5q-12 39 -12 109q0 43 5 80h90q16 0 23.5 -7.5t7.5 -25.5q0 -64 5 -92q5 -23 20.5 -36t45.5 -19q45 -8 121 -8q80 0 160 8q22 2 36.5 -8z" />
    <glyph glyph-name="uniAD73" unicode="&#xad73;" 
d="M460 356v-87h154q34 0 34 -30v-76h-386q-3 -19 -3 -39t4 -33q4 -15 19.5 -23.5t49.5 -12.5q55 -7 129 -7q77 0 160 8q22 2 34 -7.5t12 -30.5v-67q-106 -16 -218 -16q-74 0 -143 8q-148 18 -168 114q-5 20 -5 58q0 76 21 154h177v87h-272q-34 0 -34 33v75h506v168h-357
q-30 0 -30 29v81h479q28 -1 28 -29v-57v-62q0 -99 -2 -130h82q34 0 34 -33v-75h-305z" />
    <glyph glyph-name="uniAD74" unicode="&#xad74;" 
d="M460 377v-64h152q31 0 31 -30v-162q0 -35 -37 -35h-350q-1 -18 7.5 -27t29.5 -14q43 -8 139 -8q104 0 194 8q38 3 38 -26v-66q-111 -17 -233 -17q-96 0 -162 12q-99 16 -121 73q-11 30 -11 74q0 39 9 78h381v43h-340q-23 0 -35.5 11t-12.5 31v55h192v64h-272
q-34 0 -34 33v75h506v136h-357q-30 0 -30 29v81h479q28 -1 28 -29v-57v-67q0 -66 -1 -93h81q34 0 34 -33v-75h-305z" />
    <glyph glyph-name="uniAD75" unicode="&#xad75;" 
d="M460 356q0 -31 -1 -45h160q32 0 32 -31v-60v-70q0 -142 -4 -160q-10 -49 -80 -49q-20 0 -31 2v257h-101q-32 0 -32 31v25q-12 -3 -28 -3v-136q0 -38 -40 -38h-104q-2 -22 4.5 -32.5t25.5 -14.5q12 -2 50 -2l51 1q32 0 32 -30v-56q-43 -9 -99 -9q-31 0 -57 3
q-89 11 -107 73q-8 24 -8 69t8 85h148v51h-103q-44 0 -44 39v56h199v64h-272q-34 0 -34 33v80h506v142h-357q-30 0 -30 29v81h479q28 -1 28 -29v-57q0 -105 -1 -166h81q34 0 34 -33v-80h-305v-20z" />
    <glyph glyph-name="uniAD76" unicode="&#xad76;" 
d="M460 376v-67h157q17 0 27.5 -8.5t10.5 -22.5v-316q-47 -32 -111 -32q-124 0 -138 98q-5 40 -5 96q0 53 5 120q-13 -3 -31 -3v-123q0 -38 -40 -38h-104q-2 -22 4.5 -32.5t25.5 -14.5q12 -2 50 -2l51 1q32 0 32 -30v-56q-43 -9 -99 -9q-31 0 -57 3q-89 11 -107 73
q-8 24 -8 69t8 85h148v51h-103q-44 0 -44 39v56h199v63h-272q-34 0 -34 33v80h506v144h-357q-30 0 -30 29v81h479q28 -1 28 -29v-57q0 -106 -1 -168h81q34 0 34 -33v-80h-305zM504 215q-3 -39 -3 -83q0 -54 4 -78t33 -24q11 0 17 3v182h-51z" />
    <glyph glyph-name="uniAD7B" unicode="&#xad7b;" 
d="M731 489q34 0 34 -33v-80h-305q0 -36 -2 -49q-10 -47 -90 -47q3 -7 3 -16v-155q0 -37 -40 -37h-100q-1 -21 5.5 -30t25.5 -12q10 -1 37 -1l47 1q34 0 34 -29v-56q-46 -9 -92 -9q-25 0 -49 3q-90 9 -107 73q-7 22 -7 60q0 42 8 84h144v48h-101q-42 0 -42 37v56h197v79
h-272q-34 0 -34 33v80h506v144h-357q-30 0 -30 29v81h479q28 -1 28 -29v-57q0 -106 -1 -168h81zM654 246q35 0 35 -34v-57h-277q-33 0 -33 34v57h109l-14 56q26 22 64 22q28 0 42 -13t14 -35q0 -16 -5 -30h65zM629.5 110q37.5 -31 37.5 -80q0 -48 -36 -74.5t-97 -26.5
t-97 26.5t-36 74.5q0 49 37 80t96 31q58 0 95.5 -31zM561.5 21.5q9.5 7.5 9.5 19.5t-10.5 20.5t-26.5 8.5t-26.5 -8.5t-10.5 -20.5t10 -19.5t27 -7.5q18 0 27.5 7.5z" />
    <glyph glyph-name="uniAD7C" unicode="&#xad7c;" 
d="M460 304q0 -28 -1 -41h164q34 0 34 -33v-237q-42 -29 -114.5 -44t-147.5 -15q-19 0 -51 2q-90 7 -139.5 35t-65.5 81q-9 33 -9 75q0 66 20 136h181v89h-272q-34 0 -34 33v75h506v172h-357q-30 0 -30 29v81h479q28 -1 28 -29v-57v-65q0 -101 -2 -131h82q34 0 34 -33v-75
h-305v-48zM260 158q-1 -9 -1 -26q0 -35 13.5 -54t45.5 -27q29 -8 83 -8q35 0 70 4.5t59 12.5v98h-270z" />
    <glyph glyph-name="uniAD7D" unicode="&#xad7d;" 
d="M731 483q34 0 34 -33v-75h-305v-19q0 -41 -2 -56q-10 -47 -89 -47q-10 0 -38 2v120h-272q-34 0 -34 33v75h506v158h-357q-30 0 -30 29v81h479q28 -1 28 -29v-57v-57q0 -91 -2 -125h82zM622 275q32 0 32 -31v-268q-41 -24 -109 -36t-141 -12q-35 0 -68 3
q-84 8 -131.5 37.5t-59.5 84.5q-9 41 -9 105q0 56 6 117h87q14 0 20.5 -6t6.5 -20l-1 -29q-1 -9 -1 -26h281v81h87zM411 32q81 0 124 12v55h-276q6 -28 26.5 -43.5t58.5 -20.5q30 -3 67 -3z" />
    <glyph glyph-name="uniAD7F" unicode="&#xad7f;" 
d="M731 460q34 0 34 -33v-75h-295v-17q0 -38 -2 -53q-10 -46 -89 -46q-10 0 -38 2v114h-282q-34 0 -34 33v75h506v161h-357q-30 0 -30 29v81h479q28 -1 28 -29v-57v-58q0 -94 -2 -127h82zM632 65q50 -17 50 -60q0 -21 -12 -39t-33 -26l-254 81q-52 -38 -136 -68
q-40 -14 -66 -14q-19 0 -33 7q-21 8 -31.5 28.5t-10.5 49.5q121 41 183 78.5t63 77.5l1 29h83q34 0 34 -36q0 -29 -9 -53z" />
    <glyph glyph-name="uniAD81" unicode="&#xad81;" 
d="M460 335v-85q94 -12 146.5 -56.5t52.5 -108.5q0 -76 -67 -116.5t-196 -40.5t-197 41t-68 116q0 63 53 108t147 57v85h-272q-34 0 -34 33v75h506v177h-357q-30 0 -30 29v81h479q28 -1 28 -29v-57v-64q0 -103 -2 -137h82q34 0 34 -33v-75h-305zM491 134q-31 17 -95 17
t-96 -17t-32 -44t31 -42.5t97 -15.5q126 0 126 58q0 27 -31 44z" />
    <glyph glyph-name="uniAD82" unicode="&#xad82;" 
d="M731 475q34 0 34 -33v-75h-305v-4q0 -39 -2 -53q-10 -47 -89 -47q-10 0 -38 2v102h-272q-34 0 -34 33v75h506v148h-357q-30 0 -30 29v81h479q28 -1 28 -29v-57v-72q0 -71 -1 -100h81zM621 60q28 -7 40.5 -20.5t12.5 -33.5q0 -18 -10 -35.5t-26 -26.5l-263 68
q-56 -38 -136 -64q-24 -8 -47 -8q-25 0 -42 10q-16 9 -24.5 28.5t-9.5 45.5q93 23 153.5 52.5t69.5 55.5h-172q-32 0 -32 31v80h494q32 0 32 -31v-80h-199q-1 -13 -8 -30z" />
    <glyph glyph-name="uniAD83" unicode="&#xad83;" 
d="M462 362q0 -17 -4.5 -24.5t-15.5 -8.5q30 -13 30 -44q0 -16 -9 -37h167q34 0 34 -33v-74h-198q0 -15 -8 -33l179 -49q24 -7 36 -21.5t12 -35.5q0 -43 -39 -62l-273 75q-62 -43 -140 -65q-29 -8 -55 -8q-29 0 -45 13q-13 8 -20.5 28.5t-6.5 45.5q59 11 111 30.5t84 41.5
t37 40h-178q-34 0 -34 33v74h218q-4 22 -16 63q16 11 33 17h-33v62h-269q-34 0 -34 33v75h506v143h-357q-30 0 -30 29v81h479q28 -1 28 -29v-57v-69q0 -69 -1 -98h81q34 0 34 -33v-75h-303v-28z" />
    <glyph glyph-name="uniAD88" unicode="&#xad88;" 
d="M690 95v-48q0 -39 -4 -55q-5 -26 -26 -38.5t-61 -12.5q-11 0 -37 2v166q-52 -4 -65 -4q-38 0 -56 7.5t-26 21.5q-7 13 -7 36q0 30 10 53h144v549h94q34 0 34 -33v-644zM343 106v-31q0 -40 -3 -55q-10 -49 -90 -49q-10 0 -36 2v304h-42q-66 0 -94 1q-22 1 -31.5 10.5
t-9.5 30.5v70q70 -2 108 -2q103 0 206 5q9 107 9 209v6h-238q-37 0 -37 36v73h352q37 0 37 -36v-61q0 -127 -7 -219l12 1q19 2 30 -6.5t11 -25.5v-72q-76 -10 -177 -15v-176z" />
    <glyph glyph-name="uniAD89" unicode="&#xad89;" 
d="M561 376v396h94q34 0 34 -33v-340v-48q0 -39 -4 -55q-5 -26 -26 -38.5t-61 -12.5q-11 0 -37 2v24q-36 -3 -59 -3q-37 0 -53 6.5t-23 20.5q-6 12 -6 32q0 27 9 49h132zM202 387q-87 0 -124 1q-22 1 -31.5 10.5t-9.5 30.5v63q72 -2 110 -2q104 0 209 5q4 69 4 136v7h-238
q-37 0 -37 36v72h352q37 0 37 -36v-61q0 -81 -3 -146l8 1q19 2 30 -6.5t11 -25.5v-65q-69 -9 -184 -16v-44q0 -38 -2 -52q-10 -47 -92 -47q-12 0 -40 2v137zM689 117l1 -54q0 -47 -5 -76q-9 -51 -84 -51q-23 0 -36 2v164h-361q-34 0 -34 33v77h485q34 0 34 -33v-62z" />
    <glyph glyph-name="uniAD8C" unicode="&#xad8c;" 
d="M562 324v448h94q34 0 34 -33v-449v-48q0 -39 -4 -55q-10 -51 -86 -51q-24 0 -38 2v81q-36 -3 -60 -3q-37 0 -53 6.5t-23 20.5q-6 12 -6 32q0 27 9 49h133zM202 363q-87 0 -124 1q-22 1 -31.5 10.5t-9.5 30.5v63q72 -2 110 -2q103 0 208 5q5 69 5 144v7h-238q-37 0 -37 36
v72h352q37 0 37 -36v-61q0 -94 -4 -154l9 1q19 2 30 -6.5t11 -25.5v-65q-69 -9 -184 -16v-43q0 -39 -2 -54q-10 -47 -92 -47q-12 0 -40 2v138zM668 80q33 0 33 -37v-69q-89 -19 -222 -19q-96 0 -169 10q-111 15 -129 97q-6 27 -6 61q0 31 5 66h84q33 0 33 -37q0 -30 2 -39
q3 -14 18 -25t42 -15q39 -7 104 -7q100 0 195 13q3 1 10 1z" />
    <glyph glyph-name="uniAD90" unicode="&#xad90;" 
d="M562 417v355h94q34 0 34 -33v-300v-48q0 -39 -4 -55q-5 -26 -26 -38.5t-61 -12.5q-11 0 -37 2v31q-36 -3 -61 -3q-36 0 -52 6.5t-23 19.5q-6 12 -6 32q0 22 8 44h134zM202 418q-87 0 -124 1q-22 1 -31.5 10.5t-9.5 30.5v56q76 -2 116 -2q95 0 193 5q3 57 3 106v8h-227
q-37 0 -37 36v71h340q37 0 37 -36v-61q0 -87 -3 -117l20 2q19 2 30 -6.5t11 -25.5v-58q-69 -9 -184 -16v-36q0 -38 -2 -52q-10 -47 -92 -47q-12 0 -40 2v129zM685 31q11 -8 11 -24v-54q-102 -14 -226 -14q-89 0 -167 8q-54 6 -84 23t-42 49q-8 21 -8 59q0 35 7 67h384v33
h-338q-25 0 -38 12t-13 33v42h470q34 0 34 -33v-127q0 -38 -40 -38h-347q0 -15 8.5 -22t34.5 -10q58 -4 142 -4q100 0 182 6q19 2 30 -6z" />
    <glyph glyph-name="uniAD9C" unicode="&#xad9c;" 
d="M562 372v400h94q34 0 34 -33v-350v-48q0 -39 -4 -55q-5 -26 -26 -38.5t-61 -12.5q-11 0 -37 2v44q-40 -4 -73 -4q-36 0 -51.5 6t-21.5 18q-5 9 -5 29q0 23 7 43zM211 390l-58 -1q-29 0 -75 2q-22 0 -31.5 10t-9.5 31v59q70 -2 108 -2q102 0 207 5q5 83 5 136v7h-233
q-37 0 -37 36v72h346q37 0 37 -36v-61q0 -94 -4 -145v-1l13 1q19 2 30 -6.5t11 -25.5v-62q-72 -9 -185 -16v-41v-25.5t-2 -32.5q-10 -47 -88 -47q-10 0 -34 2v141zM697 70q14 -7 21.5 -18t7.5 -25q0 -24 -14 -41.5t-38 -24.5l-139 67q-23 -26 -56 -51q-34 -25 -71 -25
q-26 0 -44.5 15.5t-25.5 40.5q4 3 12 7l-55 34q-27 -33 -65 -58q-32 -22 -60 -22q-13 0 -26 5q-17 6 -30 22t-16 34q63 37 103 79t40 84v22h74q32 0 32 -31q0 -22 -4 -39l97 -62q29 28 42 56t13 59v17h74q32 0 32 -31q0 -30 -9 -59z" />
    <glyph glyph-name="uniAD9D" unicode="&#xad9d;" 
d="M562 369v403h94q34 0 34 -33v-350v-48q0 -39 -4 -55q-5 -26 -26 -38.5t-61 -12.5q-11 0 -37 2v33q-36 -3 -61 -3q-36 0 -52 6.5t-23 19.5q-6 12 -6 32q0 22 8 44h134zM211 382h-42q-63 0 -91 1q-22 1 -31.5 10.5t-9.5 30.5v63q70 -2 108 -2q102 0 207 5q4 69 4 136v7
h-232q-37 0 -37 36v72h346q37 0 37 -36v-61q0 -81 -3 -146l12 1q19 2 30 -6.5t11 -25.5v-65q-76 -10 -175 -15v-41v-25t-3 -34q-9 -47 -91 -47q-12 0 -40 2v140zM576.5 206q58.5 -21 87.5 -56t29 -78q0 -65 -64.5 -102.5t-195.5 -37.5t-195.5 37.5t-64.5 102.5q0 43 29 78
t87.5 56t143.5 21t143.5 -21zM535.5 48q29.5 11 29.5 32t-32 34t-100 13t-99.5 -13t-31.5 -34t29 -32t102 -11t102.5 11z" />
    <glyph glyph-name="uniADA4" unicode="&#xada4;" 
d="M720 95v-48q0 -39 -4 -55q-5 -26 -25 -38.5t-58 -12.5q-9 0 -33 2v829h86q34 0 34 -33v-644zM516 753q34 0 34 -33v-691q0 -27 -8 -41t-26 -19q-14 -5 -36 -5q-15 0 -45 4v168q-16 -2 -41 -2q-30 0 -45.5 7t-22.5 21q-6 12 -6 35q0 27 9 51h106v505h81zM273 128v-42
q0 -39 -4 -54q-12 -51 -89 -51q-9 0 -31 2v305q-58 0 -82 1q-22 1 -31.5 10.5t-9.5 30.5v66q20 -1 62 -1q58 0 154 4q8 101 8 192v7h-156q-37 0 -37 36v72h266q37 0 37 -36v-61q0 -124 -5 -202q19 2 30 -6t11 -25v-70q-57 -7 -123 -12v-166z" />
    <glyph glyph-name="uniADB7" unicode="&#xadb7;" 
d="M691 168.5q-20 -12.5 -57 -12.5q-8 0 -34 2v614h86q34 0 34 -33v-429v-48q0 -39 -4 -55q-5 -26 -25 -38.5zM435 358v404h81q34 0 34 -33v-441q0 -27 -8 -41t-26 -19q-14 -5 -36 -5q-15 0 -45 4v38q-27 -3 -45 -3q-30 0 -44.5 6.5t-19.5 18.5t-5 29q0 23 7 43zM149 374
q-62 0 -88 1q-22 1 -31.5 10.5t-9.5 30.5v56q27 -1 82 -1q76 0 143 3q4 69 4 137v8h-150q-37 0 -37 36v71h260q37 0 37 -36v-61q0 -92 -4 -147q11 0 16 1q19 2 30 -6t11 -25v-59q-73 -10 -144 -14h5v-103v-28t-3 -37q-9 -47 -85 -47q-10 0 -36 2v208zM678 74q47 -15 47 -56
q0 -22 -11 -39.5t-31 -26.5l-267 83q-51 -37 -140 -70q-42 -14 -72 -14q-21 0 -38 9q-16 9 -25.5 29t-9.5 46q132 41 196.5 78.5t64.5 74.5v22h81q32 0 32 -33q0 -22 -8 -46z" />
    <glyph glyph-name="uniADB8" unicode="&#xadb8;" 
d="M691 268.5q-20 -12.5 -57 -12.5q-8 0 -34 2v514h86q34 0 34 -33v-329v-48q0 -39 -4 -55q-5 -26 -25 -38.5zM435 386v376h81q34 0 34 -33v-411q0 -27 -8 -41t-26 -19q-14 -5 -36 -5q-15 0 -45 4v36q-27 -3 -45 -3q-30 0 -44.5 6.5t-19.5 18.5t-5 29q0 23 7 43zM149 406
q-62 0 -88 1q-22 1 -31.5 10.5t-9.5 30.5v56q27 -1 82 -1q77 0 144 3q3 66 3 115v8h-150q-37 0 -37 36v71h260q37 0 37 -36v-61q0 -51 -2 -125l14 1q19 2 30 -6t11 -25v-59q-69 -10 -139 -14v-45q0 -40 -2 -56q-10 -47 -88 -47q-10 0 -34 2v141zM712 70q27 -13 27 -43
q0 -24 -15.5 -41.5t-40.5 -23.5l-137 72q-28 -33 -58 -56q-36 -27 -70 -27q-25 0 -44 15.5t-28 39.5l14 9l-60 41q-31 -40 -68 -65q-31 -22 -59 -22q-13 0 -24 4q-18 5 -31 20t-17 34q67 45 105.5 91t38.5 97v23h73q33 0 33 -31q0 -23 -5 -50l100 -71q60 63 60 133v18h74
q32 0 32 -32q0 -35 -12 -73z" />
    <glyph glyph-name="uniADC0" unicode="&#xadc0;" 
d="M690 95v-48q0 -39 -4 -55q-5 -26 -26 -38.5t-61 -12.5q-11 0 -37 2v829h94q34 0 34 -33v-644zM509 374.5q11 -8.5 11 -25.5v-76q-76 -10 -177 -15v-164v-31q0 -38 -3 -53q-6 -26 -28.5 -38t-63.5 -12q-10 0 -34 2v292l-60 -1q-30 0 -76 2q-22 1 -31.5 10.5t-9.5 29.5v74
q70 -2 108 -2q103 0 206 5q9 107 9 209v6h-238q-37 0 -37 36v73h352q37 0 37 -36v-61q0 -127 -7 -219l12 1q19 2 30 -6.5z" />
    <glyph glyph-name="uniADC1" unicode="&#xadc1;" 
d="M659 267.5q-21 -12.5 -61 -12.5q-11 0 -37 2v515h94q34 0 34 -33v-330v-48q0 -39 -4 -55q-5 -26 -26 -38.5zM211 379l-58 -1q-29 0 -75 2q-22 0 -31.5 10t-9.5 31v59q76 -2 117 -2q95 0 193 5q5 92 5 145v7h-233q-37 0 -37 36v72h346q37 0 37 -36v-61q0 -96 -4 -156l18 2
q19 2 30 -6.5t11 -25.5v-62q-76 -10 -175 -15v-24v-25.5t-2 -32.5q-10 -47 -92 -47q-12 0 -40 2v123zM690 125l1 -57q0 -52 -5 -81q-9 -51 -84 -51q-23 0 -36 2v172h-361q-34 0 -34 33v77h485q34 0 34 -33v-62z" />
    <glyph glyph-name="uniADC4" unicode="&#xadc4;" 
d="M600 176q-24 0 -38 2v594h94q34 0 34 -33v-409v-48q0 -39 -4 -55q-10 -51 -86 -51zM212 346l-58 -1q-29 0 -75 2q-22 0 -31.5 10t-9.5 31v59q76 -2 116 -2q95 0 192 5q6 77 6 165v7h-232q-37 0 -37 36v72h346q37 0 37 -36v-61q0 -112 -5 -176l19 2q19 2 30 -6.5t11 -25.5
v-62q-76 -10 -175 -15v-22v-25.5t-2 -32.5q-10 -47 -92 -47q-12 0 -40 2v121zM669 81q33 0 33 -37v-69q-91 -19 -222 -19q-94 0 -165 10q-115 15 -132 98q-7 27 -7 67q0 32 5 69h84q33 0 33 -34q0 -32 3 -50q7 -32 62 -42q42 -6 104 -6q105 0 192 12q3 1 10 1z" />
    <glyph glyph-name="uniADC8" unicode="&#xadc8;" 
d="M660 312.5q-21 -12.5 -61 -12.5q-11 0 -37 2v470h94q34 0 34 -33v-285v-48q0 -39 -4 -55q-5 -26 -26 -38.5zM204 397q-52 0 -126 2q-22 0 -31.5 10t-9.5 31v59q78 -2 117 -2q95 0 193 5q4 68 4 133v7h-232q-37 0 -37 36v72h346q37 0 37 -36v-61q0 -79 -3 -144l17 2
q19 2 30 -6.5t11 -25.5v-62q-79 -10 -182 -15v-17q0 -35 -2 -49q-9 -47 -89 -47q-19 0 -43 3v105zM685 32q11 -8 11 -24v-54q-102 -14 -226 -14q-89 0 -167 8q-54 6 -84 23t-42 49q-8 21 -8 59q0 35 7 67h384v33h-338q-25 0 -38 12t-13 33v42h470q34 0 34 -33v-127
q0 -38 -40 -38h-347q0 -15 8.5 -22t34.5 -10q58 -4 142 -4q100 0 182 6q19 2 30 -6z" />
    <glyph glyph-name="uniADD0" unicode="&#xadd0;" 
d="M690 424v-48q0 -39 -4 -55q-5 -26 -26 -38.5t-61 -12.5q-11 0 -37 2v500h94q34 0 34 -33v-315zM214 376h-42q-66 0 -94 1q-22 1 -31.5 10.5t-9.5 30.5v63q76 -2 117 -2q95 0 192 5q5 70 5 146v7h-232q-37 0 -37 36v72h346q37 0 37 -36v-61q0 -96 -4 -157l18 2
q19 2 30 -6.5t11 -25.5v-65q-76 -10 -177 -15v-25q0 -38 -2 -53q-10 -46 -89 -46q-10 0 -38 2v117zM649 227q32 0 32 -31v-200q-48 -31 -116 -47.5t-147 -16.5q-25 0 -38 1q-172 11 -196 107q-7 28 -7 71q0 61 11 116h461zM295 129q-3 -41 13 -60.5t58 -26.5q26 -3 58 -3
q42 0 80 5.5t57 16.5v68h-266z" />
    <glyph glyph-name="uniADD1" unicode="&#xadd1;" 
d="M690 444v-48q0 -39 -4 -55q-5 -26 -26 -38.5t-61 -12.5q-11 0 -37 2v480h94q34 0 34 -33v-295zM214 385l-60 -1q-30 0 -76 2q-22 0 -31.5 10t-9.5 31v59q70 -2 108 -2q102 0 207 5q4 72 4 141v7h-232q-37 0 -37 36v72h346q37 0 37 -36v-61q0 -92 -4 -151l13 1
q19 2 30 -6.5t11 -25.5v-62q-76 -10 -177 -15v-18q0 -38 -2 -53q-10 -46 -89 -46q-10 0 -38 2v111zM649 253q33 0 33 -32v-222q-37 -30 -106.5 -47t-152.5 -17q-31 0 -64 3q-81 7 -125.5 35t-60.5 79q-9 33 -9 90q0 53 8 111h86q14 0 20 -6t6 -20l-1 -34h278v60h88zM427 36
q37 0 73.5 5t60.5 14v47h-274v-1q3 -26 19.5 -39t55.5 -21q32 -5 65 -5z" />
    <glyph glyph-name="uniADD3" unicode="&#xadd3;" 
d="M600 196q-24 0 -38 2v574h94q34 0 34 -33v-389v-48q0 -39 -4 -55q-10 -51 -86 -51zM211 361l-58 -1q-29 0 -75 2q-22 0 -31.5 10t-9.5 31v59q70 -2 108 -2q101 0 206 5q5 74 5 155v7h-232q-37 0 -37 36v72h346q37 0 37 -36v-61q0 -106 -5 -165l14 1q19 2 30 -6.5
t11 -25.5v-62q-76 -10 -175 -15v-51v-25.5t-3 -33.5q-4 -25 -27 -36.5t-65 -11.5q-11 0 -39 2v152zM656 77q47 -18 47 -57q0 -47 -45 -69l-249 97q-57 -49 -132 -79q-41 -16 -69 -16q-19 0 -35 8q-18 9 -28.5 28t-11.5 46q248 90 249 183v28h81q17 0 25 -8.5t8 -26.5
q0 -35 -12 -65z" />
    <glyph glyph-name="uniADD5" unicode="&#xadd5;" 
d="M660 262.5q-21 -12.5 -61 -12.5q-11 0 -37 2v520h94q34 0 34 -33v-335v-48q0 -39 -4 -55q-5 -26 -26 -38.5zM211 377l-58 -1q-29 0 -75 2q-22 0 -31.5 10t-9.5 31v59q70 -2 108 -2q103 0 206 5q5 70 5 145v7h-232q-37 0 -37 36v72h346q37 0 37 -36v-61q0 -95 -4 -155
l13 1q19 2 30 -6.5t11 -25.5v-62q-76 -10 -175 -15v-40q0 -38 -2 -52q-10 -47 -92 -47q-12 0 -40 2v133zM575.5 220q59.5 -22 88.5 -59t29 -82q0 -69 -65.5 -108t-197.5 -39t-197.5 39t-65.5 108q0 45 29 82t88.5 59t145.5 22t145.5 -22zM533.5 50.5q30.5 12.5 30.5 36.5
t-33 39t-101 15t-101 -15t-33 -39t30.5 -36.5t103.5 -12.5t103.5 12.5z" />
    <glyph glyph-name="uniADDC" unicode="&#xaddc;" 
d="M174 619q-30 0 -30 29v81h479q28 -1 28 -29v-57v-48q0 -139 -4 -159q-4 -25 -23 -36t-56 -11q-9 0 -37 2v228h-357zM765 233h-170v-143v-38q0 -30 -3 -42q-10 -49 -93 -49q-10 0 -38 2v270h-130v-143v-34.5t-3 -45.5q-10 -49 -93 -49q-10 0 -38 2v270h-138q-34 0 -34 33
v75h706q34 0 34 -33v-75z" />
    <glyph glyph-name="uniADE0" unicode="&#xade0;" 
d="M731 452q34 0 34 -33v-75h-151v-61v-26t-3 -34q-9 -48 -91 -48q-11 0 -35 2v167h-80v-64v-26t-3 -34q-9 -48 -91 -48q-11 0 -35 2v170h-217q-34 0 -34 33v75h506v179h-357q-30 0 -30 29v81h479q28 -1 28 -29v-57v-65q0 -104 -2 -138h82zM639.5 59.5q14.5 -9.5 14.5 -28.5
v-67q-97 -16 -219 -16q-69 0 -126 6q-78 8 -120.5 34t-56.5 71q-12 39 -12 109q0 43 5 80h90q16 0 23.5 -7.5t7.5 -25.5q0 -64 5 -92q5 -23 20.5 -36t45.5 -19q47 -8 125 -8q74 0 161 7q22 2 36.5 -7.5z" />
    <glyph glyph-name="uniADE4" unicode="&#xade4;" 
d="M765 380h-180v-72h27q31 0 31 -30v-159q0 -35 -37 -35h-351q-1 -18 7.5 -26.5t30.5 -13.5q45 -8 139 -8q104 0 194 8q38 3 38 -26v-66q-117 -16 -238 -16q-89 0 -157 11q-50 9 -80 27t-41 47q-11 28 -11 72q0 38 9 77h381v42h-340q-23 0 -35.5 11t-12.5 31v54h63v72h-143
q-34 0 -34 33v70h506v138h-357q-30 0 -30 29v81h479q28 -1 28 -29v-57q0 -103 -1 -162h81q34 0 34 -33v-70zM321 308h145v72h-145v-72z" />
    <glyph glyph-name="uniADEC" unicode="&#xadec;" 
d="M765 348h-180v-100h37q34 0 34 -33v-222q-42 -29 -115 -44t-148 -15q-19 0 -51 2q-89 7 -138.5 34t-64.5 80q-8 28 -8 71q0 66 18 127h51v100h-141q-34 0 -34 33v75h506v166h-357q-30 0 -30 29v81h479q28 -1 28 -29v-57v-79q0 -79 -1 -111h81q34 0 34 -33v-75zM319 248
h147v100h-147v-100zM258 145q-1 -8 -1 -22q0 -32 13 -49.5t46 -24.5q35 -8 82 -8q37 0 73 4.5t60 13.5v86h-273z" />
    <glyph glyph-name="uniADED" unicode="&#xaded;" 
d="M765 353h-185v-16v-23t-2 -30l-3 -9h47q32 0 32 -31v-268q-41 -24 -109 -36t-141 -12q-35 0 -68 3q-84 8 -131.5 37.5t-59.5 84.5q-9 41 -9 105q0 56 6 117h68v78h-151q-34 0 -34 33v75h506v161h-357q-30 0 -30 29v81h479q28 -1 28 -29v-57v-58q0 -94 -2 -127h82
q34 0 34 -33v-75zM535 243q-16 -5 -45 -5q-25 0 -39 2v113h-112v-16q0 -38 -2 -53q-9 -44 -81 -46q-2 -32 -2 -44h281v49zM411 32q81 0 124 12v55h-276q6 -28 26.5 -43.5t58.5 -20.5q30 -3 67 -3z" />
    <glyph glyph-name="uniADF8" unicode="&#xadf8;" 
d="M171 557q-30 0 -30 29v81h479q28 -1 28 -29v-57v-104q0 -159 -4 -178q-9 -48 -79 -48q-16 0 -37 3v303h-357zM731 174q34 0 34 -33v-82h-706q-34 0 -34 33v82h706z" />
    <glyph glyph-name="uniADF9" unicode="&#xadf9;" 
d="M731 453q34 0 34 -33v-80h-706q-34 0 -34 33v80h506v178h-357q-30 0 -30 29v81h479q28 -1 28 -29v-57v-65q0 -103 -2 -137h82zM657 147v-72q0 -72 -4 -88q-10 -51 -88 -51q-23 0 -36 2v194h-363q-34 0 -34 33v77h491q34 0 34 -33v-62z" />
    <glyph glyph-name="uniADFC" unicode="&#xadfc;" 
d="M731 427q34 0 34 -33v-80h-706q-34 0 -34 33v80h506v195h-357q-30 0 -30 29v81h479q28 -1 28 -29v-57v-91q0 -92 -1 -128h81zM623 69q18 0 29.5 -10t11.5 -27v-68q-96 -16 -217 -16q-68 0 -125 6q-78 8 -120.5 34t-56.5 69q-10 34 -10 99q0 53 5 82h90q16 0 23.5 -7.5
t7.5 -25.5q0 -64 4 -85q5 -21 20.5 -33.5t46.5 -17.5q47 -8 124 -8q71 0 157 7z" />
    <glyph glyph-name="uniADFF" unicode="&#xadff;" 
d="M731 459q34 0 34 -33v-80h-706q-34 0 -34 33v80h506v162h-357q-30 0 -30 29v81h479q28 -1 28 -29v-57v-59q0 -95 -2 -127h82zM655 48.5q12 -9.5 12 -30.5v-67q-106 -16 -218 -16q-74 0 -143 8q-148 18 -168 114q-5 20 -5 58q0 76 21 154h460q34 0 34 -30v-76h-386
q-3 -19 -3 -39t4 -33q4 -15 19.5 -23.5t49.5 -12.5q55 -7 129 -7q77 0 160 8q22 2 34 -7.5z" />
    <glyph glyph-name="uniAE00" unicode="&#xae00;" 
d="M731 495q34 0 34 -33v-80h-706q-34 0 -34 33v80h506v135h-357q-30 0 -30 29v81h479q28 -1 28 -29v-57v-66q0 -65 -1 -93h81zM664 22v-69q-116 -17 -236 -17q-94 0 -159 12q-99 18 -121 75q-11 30 -11 74q0 43 10 82h378v45h-338q-23 0 -35.5 11t-12.5 31v57h473
q31 0 31 -30v-168q0 -35 -37 -35h-350q-1 -19 7.5 -28.5t30.5 -14.5q42 -8 138 -8q106 0 194 8q38 3 38 -25z" />
    <glyph glyph-name="uniAE01" unicode="&#xae01;" 
d="M731 489q34 0 34 -33v-80h-706q-34 0 -34 33v80h506v142h-357q-30 0 -30 29v81h479q28 -1 28 -29v-57v-68q0 -68 -1 -98h81zM385 25q10 -8 10 -23v-58q-40 -8 -98 -8q-32 0 -59 3q-87 10 -107 73q-9 27 -9 70q0 40 9 87h147v53h-102q-22 0 -33.5 10t-11.5 29v56h210
q35 0 35 -33v-164q0 -39 -41 -39h-104q-2 -23 4.5 -33.5t25.5 -14.5q17 -3 45 -3q21 0 51 2q18 1 28 -7zM651 225v-71q0 -146 -4 -164q-10 -49 -80 -49q-20 0 -31 2v261h-101q-32 0 -32 31v81h216q32 0 32 -31v-60z" />
    <glyph glyph-name="uniAE02" unicode="&#xae02;" 
d="M731 489q34 0 34 -33v-80h-706q-34 0 -34 33v80h506v144h-357q-30 0 -30 29v81h479q28 -1 28 -29v-57q0 -106 -1 -168h81zM385 26q10 -8 10 -23v-58q-40 -8 -98 -8q-32 0 -59 3q-87 10 -107 73q-9 27 -9 69q0 40 9 87h147v53h-102q-22 0 -33.5 10t-11.5 29v56h210
q35 0 35 -33v-164q0 -39 -41 -39h-104q-2 -22 4.5 -32.5t25.5 -14.5q17 -3 45 -3q21 0 51 2q18 1 28 -7zM617 314q17 0 27.5 -8.5t10.5 -22.5v-321q-47 -32 -111 -32q-124 0 -138 99q-5 40 -5 96q0 102 12 189h204zM504 220q-3 -39 -3 -86q0 -56 4 -80t33 -24q11 0 17 3v187
h-51z" />
    <glyph glyph-name="uniAE07" unicode="&#xae07;" 
d="M731 489q34 0 34 -33v-80h-706q-34 0 -34 33v80h506v142h-357q-30 0 -30 29v81h479q28 -1 28 -29v-57q0 -105 -1 -166h81zM649 256q35 0 35 -34v-59h-277q-17 0 -24.5 8t-7.5 26v59h109q-10 44 -14 56q28 22 64 22q27 0 41 -13t14 -36q0 -15 -5 -29h65zM366 25
q10 -8 10 -24v-57q-40 -8 -90 -8q-26 0 -52 3q-88 11 -107 73q-9 27 -9 69q0 40 9 87h143v54h-99q-21 0 -32.5 10t-11.5 29v56h205q35 0 35 -33v-165q0 -39 -41 -39h-99q-2 -22 4.5 -32.5t25.5 -14.5q15 -3 37 -3q14 0 44 2q18 1 28 -7zM624.5 116.5q37.5 -32.5 37.5 -82.5
q0 -49 -36 -77t-97 -28t-96.5 28t-35.5 77q0 50 37 82.5t95 32.5t95.5 -32.5zM556.5 23q9.5 8 9.5 21q0 14 -10.5 23t-26.5 9t-26.5 -9t-10.5 -23q0 -13 10 -21t27 -8q18 0 27.5 8z" />
    <glyph glyph-name="uniAE08" unicode="&#xae08;" 
d="M731 457q34 0 34 -33v-80h-706q-34 0 -34 33v80h506v169h-357q-30 0 -30 29v81h479q28 -1 28 -29v-57v-63q0 -99 -2 -130h82zM623 273q34 0 34 -33v-247q-42 -29 -114.5 -44t-147.5 -15q-18 0 -50 2q-91 7 -140.5 35.5t-66.5 81.5q-10 31 -10 78q0 71 22 142h473z
M260 168q-2 -24 -2 -33q0 -35 13.5 -54.5t46.5 -28.5q35 -9 86 -9q76 0 127 17v108h-271z" />
    <glyph glyph-name="uniAE09" unicode="&#xae09;" 
d="M731 463q34 0 34 -33v-80h-706q-34 0 -34 33v80h506v169h-357q-30 0 -30 29v81h479q28 -1 28 -29v-57v-81q0 -81 -1 -112h81zM622 275q32 0 32 -31v-268q-41 -24 -109 -36t-141 -12q-35 0 -68 3q-84 8 -131.5 37.5t-59.5 84.5q-9 41 -9 105q0 56 6 117h87q14 0 20.5 -6
t6.5 -20q0 -17 -2 -45h281v71h87zM411 32q81 0 124 12v65h-277v-4q4 -31 24.5 -48t61.5 -22q30 -3 67 -3z" />
    <glyph glyph-name="uniAE0B" unicode="&#xae0b;" 
d="M731 438q34 0 34 -33v-80h-706q-34 0 -34 33v80h506v187h-357q-30 0 -30 29v81h479q28 -1 28 -29v-57v-69q0 -108 -2 -142h82zM628 70q49 -19 49 -61q0 -23 -12.5 -41.5t-36.5 -28.5l-244 101q-54 -49 -135 -84q-38 -16 -66 -16q-17 0 -31 6q-21 10 -32.5 29.5
t-12.5 47.5q116 47 180 97.5t65 99.5v34h84q18 0 26.5 -9t8.5 -28q0 -40 -14 -76z" />
    <glyph glyph-name="uniAE0D" unicode="&#xae0d;" 
d="M731 425q34 0 34 -33v-80h-706q-34 0 -34 33v80h506v200h-357q-30 0 -30 29v81h479q28 -1 28 -29v-57v-58q0 -132 -3 -166h83zM536.5 247.5q59.5 -22.5 91 -62.5t31.5 -92q0 -80 -67 -122.5t-196 -42.5q-128 0 -196.5 42.5t-68.5 122.5q0 52 32 92t92 62.5t141 22.5
t140.5 -22.5zM491 51q30 17 30 47t-31 49t-94 19t-95 -19t-32 -49q0 -29 31 -46.5t96 -17.5t95 17z" />
    <glyph glyph-name="uniAE0F" unicode="&#xae0f;" 
d="M731 463q34 0 34 -33v-77h-706q-34 0 -34 33v77h506v167h-357q-30 0 -30 29v81h479q28 -1 28 -29v-57v-50q0 -112 -3 -141h83zM634 57q24 -6 36.5 -20t12.5 -34q0 -21 -9.5 -37t-27.5 -25l-271 68q-62 -40 -140 -59q-31 -7 -55 -7q-32 0 -49 14q-12 9 -18.5 29t-4.5 44
q59 10 110.5 27t83.5 36.5t36 34.5h-178q-34 0 -34 33v72h218q-4 22 -16 63q33 24 77 24q22 0 34 -5q16 -5 24.5 -17t8.5 -28t-9 -37h167q34 0 34 -33v-72h-198q0 -14 -6 -29z" />
    <glyph glyph-name="uniAE11" unicode="&#xae11;" 
d="M731 473q34 0 34 -33v-80h-706q-34 0 -34 33v80h506v156h-357q-30 0 -30 29v81h479q28 -1 28 -29v-57v-76q0 -75 -1 -104h81zM659 36.5q11 -7.5 11 -23.5v-64q-111 -15 -222 -15q-67 0 -121 6q-164 19 -190 125q-8 35 -8 78q0 77 22 157h463q34 0 34 -33v-67h-405
q-3 -15 -3 -33h359q34 0 34 -33v-59h-377q20 -24 78 -33q42 -7 121 -7q85 0 174 7q19 2 30 -5.5z" />
    <glyph glyph-name="uniAE13" unicode="&#xae13;" 
d="M731 487q34 0 34 -33v-77h-706q-34 0 -34 33v77h506v142h-357q-30 0 -30 29v81h479q28 -1 28 -29v-57v-69q0 -69 -1 -97h81zM642 259q34 0 34 -32v-61l-529 2q-34 0 -34 32v59h222q-3 14 -7.5 31t-6.5 25q15 12 35.5 18t40.5 6q22 0 38 -6q32 -11 32 -44q0 -13 -6 -30
h181zM582 115.5q60 -32.5 60 -84.5q0 -51 -55.5 -80t-191.5 -29t-192 29t-56 80q0 52 60.5 84.5t187.5 32.5t187 -32.5zM498 21q28 5 28 16q0 26 -131 26q-132 0 -132 -26q0 -11 28 -16t104 -5q75 0 103 5z" />
    <glyph glyph-name="uniAE14" unicode="&#xae14;" 
d="M690 95v-48q0 -39 -4 -55q-5 -26 -26 -38.5t-61 -12.5q-11 0 -37 2v829h94q34 0 34 -33v-644zM122 567q-37 0 -37 36v73h352q37 0 37 -36v-61q0 -145 -7 -219q-3 -31 -19 -46t-49 -15q-27 0 -52 11q13 126 13 251v6h-238zM509 250.5q11 -8.5 11 -25.5v-76
q-73 -10 -167 -15t-182 -5q-37 0 -93 2q-22 1 -31.5 10.5t-9.5 29.5v74q74 -2 112 -2q182 0 330 14q19 2 30 -6.5z" />
    <glyph glyph-name="uniAE18" unicode="&#xae18;" 
d="M600 176q-24 0 -38 2v594h94q34 0 34 -33v-409v-48q0 -39 -4 -55q-10 -51 -86 -51zM520 320q-73 -10 -167 -15t-182 -5q-37 0 -93 2q-22 1 -31.5 10.5t-9.5 30.5v66q76 -2 115 -2q94 0 191 5q8 101 8 196v7h-232q-37 0 -37 36v72h346q37 0 37 -36v-61q0 -138 -7 -207
q18 2 27 2q16 0 25.5 -8t9.5 -24v-69zM668 82q33 0 33 -37v-69q-95 -19 -220 -19q-91 0 -155 10q-64 9 -98 35t-44 70q-8 29 -8 91q0 48 4 77h86q33 0 33 -37q-1 -18 0.5 -40.5t3.5 -35.5q8 -40 68 -50q42 -7 113 -7q95 0 174 11q3 1 10 1z" />
    <glyph glyph-name="uniAE29" unicode="&#xae29;" 
d="M660 272.5q-21 -12.5 -61 -12.5q-11 0 -37 2v510h94q34 0 34 -33v-325v-48q0 -39 -4 -55q-5 -26 -26 -38.5zM520 324q-73 -10 -167 -15t-182 -5q-37 0 -93 2q-22 1 -31.5 10.5t-9.5 30.5v66q76 -2 115 -2q94 0 191 5q8 97 8 193v7h-232q-37 0 -37 36v72h346q37 0 37 -36
v-61q0 -125 -6 -187l-3 -17q20 2 29 2q16 0 25.5 -8t9.5 -24v-69zM576.5 229.5q59.5 -22.5 89 -60.5t29.5 -85q0 -70 -66 -111t-199 -41t-199 41t-66 111q0 47 29.5 85t89 60.5t146.5 22.5t146.5 -22.5zM535 52.5q31 13.5 31 39.5q0 25 -34 42t-102 17t-102 -17t-34 -42
q0 -26 31 -39.5t105 -13.5t105 13.5z" />
    <glyph glyph-name="uniAE30" unicode="&#xae30;" 
d="M690 95v-48q0 -39 -4 -55q-5 -26 -26 -38.5t-61 -12.5q-11 0 -37 2v829h94q34 0 34 -33v-644zM398 673q16 0 23.5 -6t7.5 -21v-48q0 -132 -67.5 -250t-170.5 -189q-37 -25 -67 -25q-18 0 -32 7q-16 8 -28 24t-17 35q114 71 182 170.5t75 192.5h-198q-33 0 -33 32v78h325z
" />
    <glyph glyph-name="uniAE31" unicode="&#xae31;" 
d="M660 327.5q-21 -12.5 -61 -12.5q-11 0 -37 2v455h94q34 0 34 -33v-270v-48q0 -39 -4 -55q-5 -26 -26 -38.5zM451 664q0 -68 -35 -132t-93.5 -115.5t-126.5 -85.5q-41 -19 -66 -19q-18 0 -33 10q-15 9 -24 27.5t-11 38.5q105 47 177 114t84 124h-200q-33 0 -33 32v78h330
q31 0 31 -30v-42zM690 165l1 -78q0 -71 -5 -100q-9 -51 -84 -51q-23 0 -36 2v212h-356q-34 0 -34 33v77h480q34 0 34 -33v-62z" />
    <glyph glyph-name="uniAE34" unicode="&#xae34;" 
d="M600 176q-24 0 -38 2v594h94q34 0 34 -33v-409v-48q0 -39 -4 -55q-10 -51 -86 -51zM451 651q0 -70 -35 -135.5t-93 -118.5t-126 -87q-38 -19 -66 -19q-20 0 -33 9q-14 9 -24 27t-12 38q70 33 127 76t91.5 88.5t42.5 83.5h-200q-33 0 -33 32v78h330q31 0 31 -30v-42z
M669 83q33 0 33 -37v-69q-93 -18 -212 -18q-82 0 -147 9t-99 36t-45 71q-9 33 -9 96q0 41 5 78h86q33 0 33 -37q-1 -20 0.5 -44t4.5 -37q6 -42 68 -53q39 -7 104 -7q93 0 168 11q3 1 10 1z" />
    <glyph glyph-name="uniAE37" unicode="&#xae37;" 
d="M660 342.5q-21 -12.5 -61 -12.5q-11 0 -37 2v440h94q34 0 34 -33v-255v-48q0 -39 -4 -55q-5 -26 -26 -38.5zM451 665q0 -67 -35.5 -131t-93.5 -115t-127 -84q-37 -18 -65 -18q-20 0 -33 9q-15 10 -24 28t-11 38q105 47 177 113t84 121h-200q-33 0 -33 32v78h330
q31 0 31 -30v-41zM680 46.5q12 -9.5 12 -30.5v-66q-103 -16 -204 -16q-66 0 -135 8q-84 11 -125 41.5t-51 81.5q-5 23 -5 65q0 79 19 158h448q34 0 34 -30v-80h-373q-3 -18 -3 -39q0 -20 3 -35q5 -22 26.5 -34.5t66.5 -18.5q34 -5 95 -5q73 0 158 8q22 2 34 -7.5z" />
    <glyph glyph-name="uniAE38" unicode="&#xae38;" 
d="M660 367.5q-21 -12.5 -61 -12.5q-11 0 -37 2v415h94q34 0 34 -33v-230v-48q0 -39 -4 -55q-5 -26 -26 -38.5zM451 670q0 -62 -36.5 -120t-95.5 -104.5t-127 -76.5q-40 -17 -65 -17q-18 0 -33 10t-23.5 29t-9.5 39q100 40 172 97t88 103h-198q-33 0 -33 32v78h330
q31 0 31 -31v-39zM690 45.5q11 -7.5 11 -23.5v-67q-111 -15 -228 -15q-96 0 -160 10q-52 8 -82.5 27.5t-42.5 51.5q-9 27 -9 69q0 44 10 84h372v44h-329q-25 0 -38 12t-13 33v51h465q34 0 34 -33v-159q0 -38 -40 -38h-341q0 -18 7.5 -27t30.5 -14q40 -8 135 -8q94 0 188 8
q19 2 30 -5.5z" />
    <glyph glyph-name="uniAE3A" unicode="&#xae3a;" 
d="M660 352.5q-21 -12.5 -61 -12.5q-11 0 -37 2v430h94q34 0 34 -33v-245v-48q0 -39 -4 -55q-5 -26 -26 -38.5zM451 664q0 -63 -36 -122.5t-95 -107.5t-127 -79q-40 -17 -65 -17q-18 0 -33 10t-23.5 28.5t-10.5 38.5q101 42 173 101.5t87 108.5h-198q-33 0 -33 32v78h330
q31 0 31 -31v-40zM651 315q17 0 27.5 -8.5t10.5 -22.5v-319q-49 -32 -119 -32q-122 0 -137 98q-6 36 -6 95q0 93 13 189h211zM414.5 26.5q9.5 -7.5 9.5 -23.5v-56q-43 -9 -99 -9q-31 0 -57 3q-89 11 -107 73q-8 24 -8 69t8 85h148v51h-103q-44 0 -44 39v56h209q34 0 34 -33
v-162q0 -38 -40 -38h-104q-2 -22 4.5 -32.5t25.5 -14.5q12 -2 50 -2q32 0 46 1q18 1 27.5 -6.5zM533 221q-3 -37 -3 -81q0 -59 4 -84q4 -24 33 -24q11 0 21 4v185h-55z" />
    <glyph glyph-name="uniAE40" unicode="&#xae40;" 
d="M690 479v-48q0 -39 -4 -55q-5 -26 -26 -38.5t-61 -12.5q-11 0 -37 2v445h94q34 0 34 -33v-260zM451 662q0 -66 -35.5 -128t-94.5 -111.5t-127 -81.5q-39 -18 -65 -18q-19 0 -33 9q-15 10 -24 29t-11 38q69 30 125.5 69.5t91.5 80t43 74.5h-198q-33 0 -33 32v78h330
q31 0 31 -30v-41zM649 277q32 0 32 -31v-239q-39 -35 -107 -55t-148 -20q-23 0 -35 1q-84 5 -135 35.5t-67 85.5q-9 35 -9 78q0 74 19 145h450zM302 172q-2 -22 -2 -31q0 -39 15.5 -60t51.5 -30q29 -7 69 -7q36 0 68.5 6t53.5 18v104h-256z" />
    <glyph glyph-name="uniAE41" unicode="&#xae41;" 
d="M690 494v-48q0 -39 -4 -55q-5 -26 -26 -38.5t-61 -12.5q-11 0 -37 2v430h94q34 0 34 -33v-245zM451 662q0 -65 -36 -126t-94.5 -110t-126.5 -81q-37 -18 -65 -18q-18 0 -33 10t-24 28.5t-11 38.5q103 43 175 105.5t85 113.5h-198q-33 0 -33 32v78h330q31 0 31 -30v-41z
M640 298q33 0 33 -32v-267q-37 -30 -105 -47t-147 -17q-32 0 -65 3q-153 15 -183 118q-11 41 -11 102t11 140h87q15 0 21 -6t6 -18q0 -16 -2 -54h267v78h88zM427 40q74 0 125 19v62h-263l1 -10q3 -29 21.5 -44.5t55.5 -22.5q25 -4 60 -4z" />
    <glyph glyph-name="uniAE43" unicode="&#xae43;" 
d="M600 226q-24 0 -38 2v544h94q34 0 34 -33v-359v-48q0 -39 -4 -55q-10 -51 -86 -51zM134 264q-20 0 -33 9q-15 9 -25.5 26.5t-13.5 37.5q73 36 130 84t91 98t41 94h-201q-33 0 -33 32v78h330q16 0 23.5 -7t7.5 -22v-44q0 -74 -34.5 -144.5t-91.5 -127t-125 -94.5
q-39 -20 -66 -20zM658 81q47 -22 47 -61q0 -23 -12.5 -40.5t-35.5 -28.5l-247 110q-55 -52 -134 -89q-40 -17 -66 -17q-19 0 -32 7q-41 20 -44 73q120 50 184 103.5t65 105.5v32h82q18 0 25.5 -8.5t7.5 -26.5q0 -43 -17 -82z" />
    <glyph glyph-name="uniAE44" unicode="&#xae44;" 
d="M660 322.5q-21 -12.5 -61 -12.5q-11 0 -37 2v460h94q34 0 34 -33v-275v-48q0 -39 -4 -55q-5 -26 -26 -38.5zM132 295q-19 0 -33 9q-15 9 -25 27t-12 38q71 33 128 77.5t91.5 91t41.5 85.5h-200q-33 0 -33 32v78h330q31 0 31 -30v-42q0 -70 -35 -137t-93 -120.5
t-126 -88.5q-39 -20 -65 -20zM707 72q24 -18 24 -44q0 -14 -5 -24q-7 -16 -22.5 -27t-36.5 -14l-122 87q-28 -41 -58 -67q-31 -30 -67 -30q-5 0 -17 2q-19 4 -34 17.5t-22 31.5l20 17l-63 50q-28 -46 -65 -75q-32 -26 -64 -26q-25 0 -44.5 14t-27.5 38q68 56 106 114t38 121
v28h75q34 0 34 -33q0 -35 -8 -72l94 -79q59 79 59 158v23h75q33 0 33 -32q0 -45 -14 -93z" />
    <glyph glyph-name="uniAE45" unicode="&#xae45;" 
d="M660 312.5q-21 -12.5 -61 -12.5q-11 0 -37 2v470h94q34 0 34 -33v-285v-48q0 -39 -4 -55q-5 -26 -26 -38.5zM451 651q0 -72 -34.5 -140t-92.5 -123t-126 -91q-39 -20 -65 -20q-20 0 -33 9q-15 9 -25.5 27.5t-12.5 37.5q71 34 128 79.5t91.5 93.5t41.5 89h-200
q-33 0 -33 32v78h330q16 0 23.5 -7t7.5 -22v-43zM586 266.5q59 -25.5 88.5 -68t29.5 -95.5q0 -79 -67 -125t-196 -46q-130 0 -197 46t-67 125q0 53 29.5 95.5t89 68t145.5 25.5t145 -25.5zM541.5 59.5q32.5 18.5 32.5 51.5q0 34 -35 55.5t-98 21.5q-64 0 -99 -21.5
t-35 -55.5q0 -33 32.5 -51.5t101.5 -18.5q68 0 100.5 18.5z" />
    <glyph glyph-name="uniAE46" unicode="&#xae46;" 
d="M660 327.5q-21 -12.5 -61 -12.5q-11 0 -37 2v455h94q34 0 34 -33v-270v-48q0 -39 -4 -55q-5 -26 -26 -38.5zM451 662q0 -67 -35.5 -131t-93.5 -115t-127 -84q-37 -18 -65 -18q-20 0 -33 9q-15 10 -24 28t-11 38q105 47 177 113t84 121h-200q-33 0 -33 32v78h330
q31 0 31 -30v-41zM651 63q26 -8 38.5 -21.5t12.5 -33.5t-10.5 -38.5t-27.5 -27.5l-249 78q-55 -45 -138 -73q-27 -9 -48 -9q-23 0 -40 11q-15 8 -24.5 28t-10.5 46q92 26 151.5 62t67.5 67h-167q-32 0 -32 31v80h484q32 0 32 -31v-80h-194q-1 -18 -8 -38z" />
    <glyph glyph-name="uniAE4A" unicode="&#xae4a;" 
d="M660 352.5q-21 -12.5 -61 -12.5q-11 0 -37 2v430h94q34 0 34 -33v-245v-48q0 -39 -4 -55q-5 -26 -26 -38.5zM451 662q0 -65 -36 -126t-94.5 -110t-126.5 -81q-37 -18 -65 -18q-18 0 -33 10t-24 28.5t-11 38.5q103 43 175 105.5t85 113.5h-198q-33 0 -33 32v78h330
q31 0 31 -30v-41zM656 294q34 0 34 -33v-77h-486q-34 0 -34 33v77h486zM663 51q34 0 34 -33v-75h-500q-34 0 -34 33v75h93v110h84q34 0 34 -31v-79h113q4 49 6 108h84q34 0 34 -31q0 -32 -5 -77h57z" />
    <glyph glyph-name="uniAE4C" unicode="&#xae4c;" 
d="M647 95v-48q0 -39 -4 -55q-5 -26 -26 -38.5t-61 -12.5q-11 0 -37 2v829h94q34 0 34 -33v-266q34 6 57 6q26 0 40 -8t21 -25q5 -12 5 -33q0 -37 -18 -66h-105v-252zM252 597q0 -109 -27 -220.5t-67 -185.5q-25 -47 -75 -42q-19 1 -36 10.5t-27 25.5q48 81 77.5 180.5
t33.5 186.5h-69q-34 0 -34 33v85h190q34 0 34 -33v-40zM435 670q34 0 34 -33v-41q0 -115 -29 -242t-68 -199q-13 -24 -30 -34t-41 -10q-21 0 -40.5 9t-31.5 24q48 90 80 202.5t36 205.5h-47q-34 0 -34 33v85h171z" />
    <glyph glyph-name="uniAE4D" unicode="&#xae4d;" 
d="M647 449v-48q0 -39 -4 -55q-5 -26 -25.5 -38.5t-60.5 -12.5q-10 0 -36 2v475h92q34 0 34 -33v-148q34 6 57 6q26 0 40 -8t21 -25q5 -12 5 -33q0 -37 -18 -66h-105v-16zM98 332q-21 0 -38 10.5t-27 28.5q46 62 72 131.5t29 129.5h-78q-34 0 -34 33v73h190q34 0 34 -33v-36
q0 -83 -23.5 -162t-59.5 -137q-23 -38 -65 -38zM282.5 319q-18.5 10 -27.5 25q41 69 64.5 146t26.5 142h-54q-34 0 -34 33v73h171q34 0 34 -33v-34q0 -84 -22 -173.5t-54 -147.5q-12 -22 -28 -31.5t-39 -9.5q-19 0 -37.5 10zM640 165l1 -79q0 -72 -5 -101q-9 -51 -84 -51
q-23 0 -36 2v214h-341q-34 0 -34 33v77h465q34 0 34 -33v-62z" />
    <glyph glyph-name="uniAE4E" unicode="&#xae4e;" 
d="M647 449v-48q0 -39 -4 -55q-5 -26 -25.5 -38.5t-60.5 -12.5q-10 0 -36 2v475h92q34 0 34 -33v-158q34 6 57 6q26 0 40 -8t21 -25q5 -12 5 -33q0 -37 -18 -66h-105v-6zM98 332q-21 0 -38 10.5t-27 28.5q46 62 72 131.5t29 129.5h-78q-34 0 -34 33v73h190q34 0 34 -33v-36
q0 -83 -23.5 -162t-59.5 -137q-23 -38 -65 -38zM463 671q0 -84 -22 -173.5t-54 -147.5q-12 -22 -28 -31.5t-39 -9.5q-19 0 -37.5 10t-27.5 25q41 69 64.5 146t26.5 142h-54q-34 0 -34 33v73h171q34 0 34 -33v-34zM333 258q33 0 33 -32v-60q0 -156 -4 -181q-10 -50 -83 -50
q-22 0 -35 2v213h-89q-33 0 -33 32v76h211zM640 166v-53q0 -110 -4 -128q-10 -50 -82 -50q-22 0 -35 2v213h-89q-33 0 -33 32v76h210q33 0 33 -32v-60z" />
    <glyph glyph-name="uniAE50" unicode="&#xae50;" 
d="M770 481q0 -37 -18 -66h-105v-85v-48q0 -39 -4 -55q-5 -26 -25.5 -38.5t-60.5 -12.5q-10 0 -36 2v594h92q34 0 34 -33v-198q34 6 57 6q26 0 40 -8t21 -25q5 -12 5 -33zM100 305q-22 0 -40 10t-28 28q46 64 72 134.5t29 131.5h-77q-34 0 -34 33v74h190q34 0 34 -33v-36
q0 -84 -23.5 -165t-59.5 -140q-24 -37 -63 -37zM281.5 290.5q-18.5 9.5 -27.5 24.5q41 71 64.5 149t26.5 145h-53q-34 0 -34 33v74h171q34 0 34 -33v-35q0 -85 -22 -176.5t-55 -149.5q-12 -23 -28.5 -32.5t-38.5 -9.5q-19 1 -37.5 10.5zM626 81q33 0 33 -37v-69
q-92 -19 -214 -19q-78 0 -153 10q-65 9 -99 35.5t-44 70.5q-9 33 -9 95q0 39 5 76h86q33 0 33 -37q-1 -19 0.5 -42t3.5 -36q8 -41 68 -52q42 -7 111 -7q94 0 169 11q3 1 10 1z" />
    <glyph glyph-name="uniAE54" unicode="&#xae54;" 
d="M770 541q0 -37 -18 -66h-105v-33.5t-4 -45.5q-5 -26 -25.5 -38.5t-60.5 -12.5q-10 0 -36 2v425h92q34 0 34 -33v-138q34 6 57 6q26 0 40 -8t21 -25q5 -12 5 -33zM105 373q-22 0 -38.5 11t-25.5 28q45 56 69 114t27 107h-81q-34 0 -34 33v69h190q34 0 34 -33v-35
q0 -73 -22 -139.5t-56 -118.5q-24 -36 -63 -36zM292 633q-34 0 -34 33v69h171q34 0 34 -33v-32q0 -72 -19 -147t-48 -128q-12 -21 -28 -30.5t-38 -9.5q-19 0 -37 10t-25 26q38 62 58 125t22 117h-56zM647 43.5q11 -7.5 11 -24.5v-65q-112 -14 -221 -14q-90 0 -156 9
q-54 7 -84.5 26.5t-41.5 51.5q-10 26 -10 67q0 39 9 81h365v41h-321q-25 0 -38 12t-13 33v50h456q34 0 34 -33v-153q0 -38 -40 -38h-331q0 -17 8 -26t31 -13q42 -7 131 -7q91 0 181 8q19 2 30 -5.5z" />
    <glyph glyph-name="uniAE56" unicode="&#xae56;" 
d="M770 541q0 -37 -18 -66h-105v-33.5t-4 -45.5q-5 -26 -25.5 -38.5t-60.5 -12.5q-10 0 -36 2v425h92q34 0 34 -33v-138q34 6 57 6q26 0 40 -8t21 -25q5 -12 5 -33zM105 374q-22 0 -38.5 11t-25.5 28q45 56 69 114t27 107h-81q-34 0 -34 33v69h190q34 0 34 -33v-35
q0 -73 -22 -139.5t-56 -118.5q-24 -36 -63 -36zM292 634q-34 0 -34 33v69h171q34 0 34 -33v-32q0 -72 -19 -147t-48 -128q-12 -21 -28 -30.5t-38 -9.5q-19 0 -37 10t-25 26q38 62 58 125t22 117h-56zM372.5 27.5q9.5 -7.5 9.5 -23.5v-56q-43 -9 -99 -9q-32 0 -57 3
q-89 11 -107 73q-8 24 -8 69t8 85h148v51h-103q-44 0 -44 39v56h209q34 0 34 -33v-162q0 -38 -40 -38h-104q-2 -22 4.5 -32.5t25.5 -14.5q12 -2 50 -2q32 0 46 1q18 1 27.5 -6.5zM609 315q17 0 27.5 -8.5t10.5 -22.5v-319q-49 -32 -119 -32q-122 0 -137 98q-6 36 -6 95
q0 93 13 189h211zM491 221q-3 -37 -3 -81q0 -59 4 -84q4 -24 33 -24q11 0 21 4v185h-55z" />
    <glyph glyph-name="uniAE5C" unicode="&#xae5c;" 
d="M770 521q0 -37 -18 -66h-105v-43q0 -36 -4 -51q-5 -26 -25.5 -38.5t-60.5 -12.5q-10 0 -36 2v460h92q34 0 34 -33v-158q34 6 57 6q26 0 40 -8t21 -25q5 -12 5 -33zM101 352q-21 0 -38 11t-26 28q45 59 70 123t28 118h-79q-34 0 -34 33v71h190q34 0 34 -33v-36
q0 -77 -22.5 -150.5t-58.5 -127.5q-22 -37 -64 -37zM292 632q-34 0 -34 33v71h171q34 0 34 -33v-33q0 -78 -20.5 -160t-50.5 -138q-23 -41 -67 -41q-19 1 -37 11t-27 25q40 65 61.5 134.5t24.5 130.5h-55zM607 267q32 0 32 -31v-231q-41 -34 -108.5 -53.5t-146.5 -19.5
q-24 0 -36 1q-84 5 -134.5 35t-65.5 83q-8 29 -8 77q0 71 17 139h450zM261 163q-2 -20 -2 -29q0 -37 16 -57t52 -28q30 -6 66 -6t69.5 6t54.5 18v96h-256z" />
    <glyph glyph-name="uniAE5D" unicode="&#xae5d;" 
d="M770 541q0 -37 -18 -66h-105v-46q0 -37 -4 -53q-5 -26 -25.5 -38.5t-60.5 -12.5q-10 0 -36 2v445h92q34 0 34 -33v-138q34 6 57 6q26 0 40 -8t21 -25q5 -12 5 -33zM104 350q-23 0 -41 10.5t-27 27.5q45 60 70.5 125.5t28.5 120.5h-79q-34 0 -34 33v72h190q34 0 34 -33
v-36q0 -79 -22.5 -153.5t-58.5 -130.5q-24 -36 -61 -36zM292 634q-34 0 -34 33v72h171q34 0 34 -33v-34q0 -79 -20.5 -163t-51.5 -140q-23 -41 -67 -41q-19 0 -37.5 10t-26.5 25q39 67 61.5 139t25.5 132h-55zM607 288q33 0 33 -32v-256q-36 -30 -103.5 -47.5t-146.5 -17.5
q-32 0 -64 3q-149 15 -181 117q-10 36 -10 99q0 64 10 134h87q15 0 21 -6.5t6 -19.5q0 -16 -1 -24l-1 -24h262v74h88zM396 39q33 0 66 5t57 14v58h-259l1 -8q3 -28 21.5 -43t56.5 -22q23 -4 57 -4z" />
    <glyph glyph-name="uniAE5F" unicode="&#xae5f;" 
d="M770 481q0 -37 -18 -66h-105v-45v-48q0 -39 -4 -55q-5 -26 -25.5 -38.5t-58.5 -12.5q-24 0 -38 2v554h92q34 0 34 -33v-198q34 6 57 6q26 0 40 -8t21 -25q5 -12 5 -33zM98 310q-21 0 -38 10.5t-27 28.5q46 62 72 131.5t29 129.5h-78q-34 0 -34 33v73h190q34 0 34 -33v-36
q0 -83 -23.5 -162t-59.5 -137q-23 -38 -65 -38zM282.5 297q-18.5 10 -27.5 25q41 69 64.5 146t26.5 142h-54q-34 0 -34 33v73h171q34 0 34 -33v-34q0 -84 -22 -173.5t-54 -147.5q-12 -22 -28 -31.5t-39 -9.5q-19 0 -37.5 10zM628 79q47 -21 47 -59q0 -23 -12 -40.5
t-34 -28.5l-248 101q-53 -47 -133 -82q-41 -16 -69 -16q-20 0 -33 7q-19 10 -29.5 29t-11.5 45q248 95 248 192v29h82q17 0 25 -8.5t8 -26.5q0 -37 -14 -71z" />
    <glyph glyph-name="uniAE60" unicode="&#xae60;" 
d="M770 521q0 -37 -18 -66h-105v-30q0 -42 -4 -59q-5 -26 -25.5 -38.5t-60.5 -12.5q-10 0 -36 2v455h92q34 0 34 -33v-158q34 6 57 6q26 0 40 -8t21 -25q5 -12 5 -33zM101 352q-21 0 -38 11t-26 28q45 59 70 123t28 118h-79q-34 0 -34 33v71h190q34 0 34 -33v-36
q0 -77 -22.5 -150.5t-58.5 -127.5q-22 -37 -64 -37zM292 632q-34 0 -34 33v71h171q34 0 34 -33v-33q0 -78 -20.5 -160t-50.5 -138q-23 -41 -67 -41q-19 1 -37 11t-27 25q40 65 61.5 134.5t24.5 130.5h-55zM679 70q25 -18 25 -43q0 -11 -5 -24q-6 -16 -22 -27t-36 -14
l-126 83q-26 -36 -59 -65t-67 -29q-24 0 -44.5 15t-28.5 37l18 15l-64 49q-30 -45 -67 -74q-31 -25 -61 -25q-26 0 -45.5 14.5t-27.5 38.5q69 55 107 110t38 116v27h74q33 0 33 -32q0 -29 -7 -68l98 -79q61 75 61 154v22h74q33 0 33 -32q0 -42 -14 -89z" />
    <glyph glyph-name="uniAE61" unicode="&#xae61;" 
d="M770 526q0 -37 -18 -66h-105v-21v-48q0 -39 -4 -55q-5 -26 -25.5 -38.5t-60.5 -12.5q-10 0 -36 2v485h92q34 0 34 -33v-153q34 6 57 6q26 0 40 -8t21 -25q5 -12 5 -33zM100 328q-21 0 -39 10.5t-26 28.5q45 61 70.5 127t28.5 124h-78q-34 0 -34 33v72h190q34 0 34 -33
v-36q0 -81 -23 -157t-59 -132q-23 -37 -64 -37zM285.5 316q-18.5 10 -27.5 25q40 67 62.5 140.5t25.5 136.5h-54q-34 0 -34 33v72h171q34 0 34 -33v-34q0 -80 -21 -166.5t-53 -142.5q-12 -22 -28 -31.5t-38 -9.5q-19 0 -37.5 10zM544.5 248q59.5 -24 89 -64.5t29.5 -89.5
q0 -75 -66.5 -118.5t-197.5 -43.5t-197.5 43.5t-66.5 118.5q0 49 29.5 89.5t88.5 64.5t146 24q86 0 145.5 -24zM534 102q0 29 -34.5 48t-100.5 19t-100.5 -19t-34.5 -48q0 -62 135 -62t135 62z" />
    <glyph glyph-name="uniAE65" unicode="&#xae65;" 
d="M770 554q0 -37 -18 -66h-105v-34.5t-4 -47.5q-5 -26 -25.5 -38.5t-60.5 -12.5q-10 0 -36 2v415h92q34 0 34 -33v-125q34 6 57 6q26 0 40 -8t21 -25q5 -12 5 -33zM107 378q-22 0 -39 11t-25 29q44 54 68 109t27 101h-82q-34 0 -34 33v68h190q34 0 34 -33v-35
q0 -69 -21.5 -132.5t-55.5 -115.5q-24 -35 -62 -35zM292 628q-34 0 -34 33v68h171q34 0 34 -33v-31q0 -69 -18 -140.5t-47 -123.5q-12 -21 -27 -30t-36 -9q-19 0 -38 10t-26 25q37 60 56.5 120.5t21.5 110.5h-57zM645 32.5q11 -7.5 11 -21.5v-65q-85 -12 -197 -12
q-67 0 -107 4q-94 7 -143.5 38t-62.5 90q-8 37 -8 81q0 78 21 165h445q17 0 25 -7.5t8 -24.5v-67h-386q-2 -11 -4 -39h342q33 0 33 -33v-60h-365q10 -18 32.5 -27.5t61.5 -14.5q50 -5 121 -5q76 0 143 5q19 1 30 -6.5z" />
    <glyph glyph-name="uniAE68" unicode="&#xae68;" 
d="M735 95v-48q0 -39 -4 -55q-5 -26 -25 -38.5t-58 -12.5q-9 0 -33 2v411h-46v-311q0 -27 -8 -41t-26 -19q-14 -5 -36 -5q-15 0 -45 4v770h81q34 0 34 -33v-240h46v293h86q34 0 34 -33v-644zM221 597q0 -112 -20 -220t-49 -184q-11 -29 -27.5 -41.5t-40.5 -12.5
q-42 0 -71 27q39 89 62.5 192t26.5 196h-49q-34 0 -34 33v83h168q34 0 34 -33v-40zM382 670q34 0 34 -33v-42q0 -110 -20.5 -231.5t-49.5 -200.5q-11 -30 -28.5 -41.5t-45.5 -11.5q-17 0 -34 6.5t-29 18.5q37 94 59.5 208t25.5 211h-27q-34 0 -34 33v83h149z" />
    <glyph glyph-name="uniAE69" unicode="&#xae69;" 
d="M505 288q-23 0 -42 4v470h75q34 0 34 -33v-128h46v171h83q34 0 34 -33v-309v-48q0 -39 -4 -55q-5 -26 -24 -38.5t-56 -12.5q-9 0 -33 2v198h-46v-123q0 -27 -7.5 -41t-24.5 -19q-14 -5 -35 -5zM227 661q0 -154 -54 -299q-20 -50 -63 -50q-39 0 -67 26q34 71 52.5 145.5
t20.5 142.5h-53q-34 0 -34 33v72h164q34 0 34 -33v-37zM273 626q-34 0 -34 33v72h145q34 0 34 -33v-36q0 -80 -12 -164.5t-32 -147.5q-9 -25 -22.5 -36.5t-35.5 -14.5l-10 -1q-17 0 -33 6t-25 18q50 139 54 304h-29zM735 137l1 -64q0 -57 -5 -86q-9 -51 -84 -51q-23 0 -36 2
v184h-391q-34 0 -34 33v77h515q34 0 34 -33v-62z" />
    <glyph glyph-name="uniAE6C" unicode="&#xae6c;" 
d="M505 193q-23 0 -42 4v565h75q34 0 34 -33v-178h46v221h83q34 0 34 -33v-419v-48q0 -39 -4 -55q-5 -26 -24.5 -38.5t-56.5 -12.5q-8 0 -32 2v258h-46v-168q0 -27 -7.5 -41t-24.5 -19q-14 -5 -35 -5zM227 651q0 -144 -53 -288q-20 -50 -61 -50t-68 27q34 69 52 140t20 137
h-54q-34 0 -34 33v71h164q34 0 34 -33v-37zM273 617q-34 0 -34 33v71h145q34 0 34 -33v-35q0 -79 -11 -159t-31 -142q-10 -28 -26.5 -39.5t-42.5 -11.5q-16 0 -31 6.5t-25 17.5q50 138 52 292h-30zM700 81q33 0 33 -36v-71q-105 -19 -232 -19q-82 0 -157 10q-67 9 -102 36
t-46 72q-9 33 -9 99q0 42 5 80h86q33 0 33 -34q0 -55 5 -88q6 -42 69 -54q54 -8 126 -8q98 0 179 12q4 1 10 1z" />
    <glyph glyph-name="uniAE6F" unicode="&#xae6f;" 
d="M735 459v-48q0 -39 -4 -55q-5 -26 -24.5 -38.5t-56.5 -12.5q-8 0 -32 2v169h-46v-98q0 -27 -7.5 -41t-24.5 -19q-14 -5 -35 -5q-23 0 -42 4v445h75q34 0 34 -33v-128h46v171h83q34 0 34 -33v-280zM227 666q0 -143 -52 -278q-20 -50 -61 -50q-42 0 -67 27q66 132 71 267
h-55q-34 0 -34 33v70h164q34 0 34 -33v-36zM273 632q-34 0 -34 33v70h145q34 0 34 -33v-34q0 -76 -10.5 -153t-29.5 -136q-9 -25 -22.5 -36.5t-34.5 -14.5l-10 -1q-17 0 -32.5 6t-24.5 18q47 131 49 281h-30zM698 45.5q12 -9.5 12 -30.5v-66q-108 -16 -215 -16q-76 0 -131 7
q-85 11 -125 40.5t-50 79.5q-6 26 -6 61q0 67 19 146h455q34 0 34 -30v-79h-379q-3 -16 -3 -33q0 -15 3 -27q5 -20 25.5 -31.5t66.5 -17.5q43 -5 96 -5q82 0 164 9q22 2 34 -7.5z" />
    <glyph glyph-name="uniAE70" unicode="&#xae70;" 
d="M505 343q-23 0 -42 4v415h75q34 0 34 -33v-118h46v161h83q34 0 34 -33v-245v-48q0 -39 -4 -55q-5 -26 -24.5 -38.5t-56.5 -12.5q-8 0 -32 2v144h-46v-78q0 -27 -7.5 -41t-24.5 -19q-14 -5 -35 -5zM227 654q0 -74 -13.5 -132.5t-35.5 -115.5q-20 -48 -59 -48q-40 0 -67 27
q65 124 68 237h-57q-34 0 -34 33v67h164q34 0 34 -33v-35zM273 622q-34 0 -34 33v67h145q34 0 34 -33v-33q0 -143 -34 -254q-8 -24 -21.5 -35.5t-34.5 -14.5q-18 -2 -37 4.5t-28 19.5q24 66 32.5 126t9.5 120h-32zM731 43.5q11 -7.5 11 -23.5v-66q-115 -14 -231 -14
q-100 0 -167 10q-53 8 -83 26.5t-42 51.5q-9 27 -9 66q0 41 9 81h384v41h-340q-25 0 -38 12t-13 33v50h475q34 0 34 -33v-153q0 -38 -40 -38h-351q0 -16 8 -25t30 -13q50 -8 142 -8q97 0 191 8q19 2 30 -5.5z" />
    <glyph glyph-name="uniAE78" unicode="&#xae78;" 
d="M735 454v-48q0 -39 -4 -55q-5 -26 -24.5 -38.5t-56.5 -12.5q-8 0 -32 2v174h-46v-103q0 -27 -7.5 -41t-24.5 -19q-14 -5 -35 -5q-23 0 -42 4v450h75q34 0 34 -33v-128h46v171h83q34 0 34 -33v-285zM227 662q0 -137 -51 -273q-21 -50 -58 -50q-43 0 -70 27q65 133 70 263
h-55q-34 0 -34 33v69h164q34 0 34 -33v-36zM273 629q-34 0 -34 33v69h145q34 0 34 -33v-34q0 -75 -10 -149.5t-29 -133.5q-9 -25 -22.5 -36.5t-34.5 -14.5l-10 -1q-16 0 -31.5 6.5t-24.5 18.5q46 129 48 275h-31zM680 257q32 0 32 -31v-229q-43 -31 -116 -48t-156 -17
q-16 0 -48 2q-84 5 -135 34.5t-65 81.5q-8 28 -8 74q0 64 16 133h480zM304 155q-1 -8 -1 -22q0 -37 16.5 -56.5t54.5 -27.5q34 -7 81 -7q40 0 76.5 6t58.5 16v91h-286z" />
    <glyph glyph-name="uniAE79" unicode="&#xae79;" 
d="M735 459v-48q0 -39 -4 -55q-5 -26 -24.5 -38.5t-56.5 -12.5q-8 0 -32 2v179h-46v-108q0 -27 -7.5 -41t-24.5 -19q-14 -5 -35 -5q-23 0 -42 4v445h75q34 0 34 -33v-118h46v161h83q34 0 34 -33v-280zM227 652q0 -79 -14 -144t-37 -124q-20 -49 -60 -49q-41 0 -68 27
q67 132 70 257h-55q-34 0 -34 33v69h164q34 0 34 -33v-36zM273 619q-34 0 -34 33v69h145q34 0 34 -33v-34q0 -72 -10 -145.5t-28 -131.5q-9 -25 -22.5 -36.5t-34.5 -14.5q-18 -2 -37 4.5t-29 19.5q45 122 47 269h-31zM682 273q33 0 33 -32v-242q-37 -30 -107.5 -47
t-153.5 -17q-34 0 -68 3q-83 7 -129 35.5t-61 80.5q-11 39 -11 98q0 56 10 121h86q15 0 21 -6t6 -20t-2 -42h288v68h88zM456 38q39 0 76.5 5t61.5 14v53h-283v-3q3 -28 20.5 -42.5t54.5 -21.5q26 -5 70 -5z" />
    <glyph glyph-name="uniAE7B" unicode="&#xae7b;" 
d="M735 355v-48q0 -39 -4 -55q-5 -26 -24 -38.5t-56 -12.5q-9 0 -33 2v258h-46v-98q0 -27 -7.5 -41t-24.5 -19q-14 -5 -35 -5q-23 0 -42 4v460h75q34 0 34 -33v-143h46v186h83q34 0 34 -33v-384zM110 292q-39 0 -67 26q34 71 52.5 145.5t20.5 142.5h-53q-34 0 -34 33v72h164
q34 0 34 -33v-37q0 -154 -54 -299q-20 -50 -63 -50zM273 606q-34 0 -34 33v72h145q34 0 34 -33v-36q0 -80 -12 -164.5t-32 -147.5q-9 -25 -22.5 -36.5t-35.5 -14.5l-10 -1q-17 0 -33 6t-25 18q50 139 54 304h-29zM675 80q47 -20 47 -58q0 -49 -47 -71l-256 108
q-56 -49 -137 -87q-42 -17 -67 -17q-19 0 -32 7q-42 21 -43 73q123 51 188.5 103t66.5 102v31h82q18 0 25.5 -8.5t7.5 -26.5q0 -42 -17 -79z" />
    <glyph glyph-name="uniAE7C" unicode="&#xae7c;" 
d="M505 308q-23 0 -42 4v450h75q34 0 34 -33v-128h46v171h83q34 0 34 -33v-285v-48q0 -39 -4 -55q-5 -26 -24.5 -38.5t-56.5 -12.5q-8 0 -32 2v174h-46v-103q0 -27 -7.5 -41t-24.5 -19q-14 -5 -35 -5zM60 362q63 134 66 263h-51q-34 0 -34 33v69h160q34 0 34 -33v-36
q0 -80 -13 -143.5t-34 -126.5q-19 -48 -51 -51q-46 -3 -77 25zM281 625q-34 0 -34 33v69h141q34 0 34 -33v-34q0 -72 -8.5 -145.5t-24.5 -132.5q-9 -29 -26 -41t-43 -12q-16 0 -30.5 5.5t-23.5 16.5q24 71 32.5 138t9.5 136h-27zM724 69q25 -16 25 -42q0 -12 -6 -24
q-7 -16 -22.5 -27t-35.5 -14l-128 82q-27 -38 -60 -66q-34 -28 -68 -28q-25 0 -45 15t-28 37q18 15 17 14l-66 52q-28 -44 -69 -77q-30 -24 -59 -24q-26 0 -46 14.5t-27 39.5q69 55 107 110t38 118v25h74q33 0 33 -32q0 -30 -7 -67l102 -82q63 77 63 157v21h74q33 0 33 -32
q0 -45 -15 -92z" />
    </font>
</defs>
</svg>
